%TF.GenerationSoftware,KiCad,Pcbnew,7.0.10*%
%TF.CreationDate,2024-01-22T13:30:55+09:00*%
%TF.ProjectId,RS485_Converter,52533438-355f-4436-9f6e-766572746572,1.0*%
%TF.SameCoordinates,Original*%
%TF.FileFunction,Copper,L1,Top*%
%TF.FilePolarity,Positive*%
%FSLAX46Y46*%
G04 Gerber Fmt 4.6, Leading zero omitted, Abs format (unit mm)*
G04 Created by KiCad (PCBNEW 7.0.10) date 2024-01-22 13:30:55*
%MOMM*%
%LPD*%
G01*
G04 APERTURE LIST*
%TA.AperFunction,ComponentPad*%
%ADD10C,1.600000*%
%TD*%
%TA.AperFunction,ComponentPad*%
%ADD11O,1.600000X1.600000*%
%TD*%
%TA.AperFunction,ComponentPad*%
%ADD12C,3.800000*%
%TD*%
%TA.AperFunction,ComponentPad*%
%ADD13R,1.800000X1.800000*%
%TD*%
%TA.AperFunction,ComponentPad*%
%ADD14C,1.800000*%
%TD*%
%TA.AperFunction,ComponentPad*%
%ADD15R,1.600000X1.600000*%
%TD*%
%TA.AperFunction,ComponentPad*%
%ADD16C,4.000000*%
%TD*%
%TA.AperFunction,ComponentPad*%
%ADD17R,2.300000X2.300000*%
%TD*%
%TA.AperFunction,ComponentPad*%
%ADD18C,2.300000*%
%TD*%
%TA.AperFunction,ComponentPad*%
%ADD19R,1.700000X1.700000*%
%TD*%
%TA.AperFunction,ComponentPad*%
%ADD20O,1.700000X1.700000*%
%TD*%
%TA.AperFunction,SMDPad,CuDef*%
%ADD21R,0.450000X1.750000*%
%TD*%
%TA.AperFunction,ViaPad*%
%ADD22C,0.800000*%
%TD*%
%TA.AperFunction,Conductor*%
%ADD23C,0.250000*%
%TD*%
G04 APERTURE END LIST*
D10*
%TO.P,R1,1*%
%TO.N,/5V*%
X165100000Y-82550000D03*
D11*
%TO.P,R1,2*%
%TO.N,Net-(U2-RXD)*%
X165100000Y-92710000D03*
%TD*%
D12*
%TO.P,REF\u002A\u002A,1*%
%TO.N,/GND*%
X187960000Y-80010000D03*
%TD*%
D10*
%TO.P,C1,1*%
%TO.N,/5V*%
X113030000Y-107990000D03*
%TO.P,C1,2*%
%TO.N,/GND*%
X113030000Y-112990000D03*
%TD*%
D13*
%TO.P,D1,1,K*%
%TO.N,Net-(D1-K)*%
X135890000Y-82550000D03*
D14*
%TO.P,D1,2,A*%
%TO.N,Net-(D1-A)*%
X138430000Y-82550000D03*
%TD*%
D10*
%TO.P,R8,1*%
%TO.N,Net-(J3-Pin_2)*%
X172720000Y-102870000D03*
D11*
%TO.P,R8,2*%
%TO.N,Net-(J4-Pin_2)*%
X162560000Y-102870000D03*
%TD*%
D15*
%TO.P,U3,1,RO*%
%TO.N,Net-(U2-RXD)*%
X146050000Y-95250000D03*
D11*
%TO.P,U3,2,~{RE}*%
%TO.N,Net-(U2-CBUS3)*%
X146050000Y-97790000D03*
%TO.P,U3,3,DE*%
%TO.N,Net-(U2-CBUS2)*%
X146050000Y-100330000D03*
%TO.P,U3,4,DI*%
%TO.N,Net-(U2-TXD)*%
X146050000Y-102870000D03*
%TO.P,U3,5,GND*%
%TO.N,/GND*%
X153670000Y-102870000D03*
%TO.P,U3,6,A*%
%TO.N,Net-(J4-Pin_2)*%
X153670000Y-100330000D03*
%TO.P,U3,7,B*%
%TO.N,Net-(J3-Pin_1)*%
X153670000Y-97790000D03*
%TO.P,U3,8,VCC*%
%TO.N,/5V*%
X153670000Y-95250000D03*
%TD*%
D15*
%TO.P,J1,1,VBUS*%
%TO.N,/5V*%
X105847500Y-99040000D03*
D10*
%TO.P,J1,2,D-*%
%TO.N,Net-(J1-D-)*%
X105847500Y-96540000D03*
%TO.P,J1,3,D+*%
%TO.N,Net-(J1-D+)*%
X103847500Y-96540000D03*
%TO.P,J1,4,GND*%
%TO.N,/GND*%
X103847500Y-99040000D03*
D16*
%TO.P,J1,5,Shield*%
X100987500Y-103790000D03*
X100987500Y-91790000D03*
%TD*%
D17*
%TO.P,J4,1,Pin_1*%
%TO.N,Net-(J3-Pin_1)*%
X184150000Y-102250000D03*
D18*
%TO.P,J4,2,Pin_2*%
%TO.N,Net-(J4-Pin_2)*%
X184150000Y-98750000D03*
%TO.P,J4,3,Pin_3*%
%TO.N,/GND*%
X184150000Y-95250000D03*
%TD*%
D10*
%TO.P,C3,1*%
%TO.N,/5V*%
X113110000Y-88900000D03*
%TO.P,C3,2*%
%TO.N,/GND*%
X118110000Y-88900000D03*
%TD*%
D13*
%TO.P,D2,1,K*%
%TO.N,Net-(D2-K)*%
X135890000Y-90170000D03*
D14*
%TO.P,D2,2,A*%
%TO.N,Net-(D2-A)*%
X138430000Y-90170000D03*
%TD*%
D19*
%TO.P,J3,1,Pin_1*%
%TO.N,Net-(J3-Pin_1)*%
X172720000Y-109220000D03*
D20*
%TO.P,J3,2,Pin_2*%
%TO.N,Net-(J3-Pin_2)*%
X172720000Y-106680000D03*
%TD*%
D10*
%TO.P,R6,1*%
%TO.N,/5V*%
X153670000Y-82550000D03*
D11*
%TO.P,R6,2*%
%TO.N,Net-(D1-A)*%
X143510000Y-82550000D03*
%TD*%
D12*
%TO.P,REF\u002A\u002A,1*%
%TO.N,/GND*%
X95250000Y-80010000D03*
%TD*%
%TO.P,REF\u002A\u002A,1*%
%TO.N,/GND*%
X187960000Y-114300000D03*
%TD*%
%TO.P,REF\u002A\u002A,1*%
%TO.N,/GND*%
X95250000Y-114300000D03*
%TD*%
D10*
%TO.P,C2,1*%
%TO.N,Net-(U2-3V3OUT)*%
X119380000Y-108030000D03*
%TO.P,C2,2*%
%TO.N,/GND*%
X119380000Y-113030000D03*
%TD*%
%TO.P,R4,1*%
%TO.N,/5V*%
X175260000Y-82550000D03*
D11*
%TO.P,R4,2*%
%TO.N,Net-(J4-Pin_2)*%
X175260000Y-92710000D03*
%TD*%
D10*
%TO.P,R7,1*%
%TO.N,/5V*%
X153670000Y-90170000D03*
D11*
%TO.P,R7,2*%
%TO.N,Net-(D2-A)*%
X143510000Y-90170000D03*
%TD*%
D10*
%TO.P,R2,1*%
%TO.N,/5V*%
X170180000Y-82550000D03*
D11*
%TO.P,R2,2*%
%TO.N,Net-(U2-CBUS3)*%
X170180000Y-92710000D03*
%TD*%
D21*
%TO.P,U2,1,TXD*%
%TO.N,Net-(U2-TXD)*%
X126970000Y-102450000D03*
%TO.P,U2,2,DTR*%
%TO.N,unconnected-(U2-DTR-Pad2)*%
X127620000Y-102450000D03*
%TO.P,U2,3,RTS*%
%TO.N,unconnected-(U2-RTS-Pad3)*%
X128270000Y-102450000D03*
%TO.P,U2,4,VCCIO*%
%TO.N,/5V*%
X128920000Y-102450000D03*
%TO.P,U2,5,RXD*%
%TO.N,Net-(U2-RXD)*%
X129570000Y-102450000D03*
%TO.P,U2,6,RI*%
%TO.N,unconnected-(U2-RI-Pad6)*%
X130220000Y-102450000D03*
%TO.P,U2,7,GND*%
%TO.N,/GND*%
X130870000Y-102450000D03*
%TO.P,U2,8*%
%TO.N,N/C*%
X131520000Y-102450000D03*
%TO.P,U2,9,DCR*%
%TO.N,unconnected-(U2-DCR-Pad9)*%
X132170000Y-102450000D03*
%TO.P,U2,10,DCD*%
%TO.N,unconnected-(U2-DCD-Pad10)*%
X132820000Y-102450000D03*
%TO.P,U2,11,CTS*%
%TO.N,unconnected-(U2-CTS-Pad11)*%
X133470000Y-102450000D03*
%TO.P,U2,12,CBUS4*%
%TO.N,unconnected-(U2-CBUS4-Pad12)*%
X134120000Y-102450000D03*
%TO.P,U2,13,CBUS2*%
%TO.N,Net-(U2-CBUS2)*%
X134770000Y-102450000D03*
%TO.P,U2,14,CBUS3*%
%TO.N,Net-(U2-CBUS3)*%
X135420000Y-102450000D03*
%TO.P,U2,15,USBD+*%
%TO.N,Net-(J1-D+)*%
X135420000Y-95250000D03*
%TO.P,U2,16,USBD-*%
%TO.N,Net-(J1-D-)*%
X134770000Y-95250000D03*
%TO.P,U2,17,3V3OUT*%
%TO.N,Net-(U2-3V3OUT)*%
X134120000Y-95250000D03*
%TO.P,U2,18,GND*%
%TO.N,/GND*%
X133470000Y-95250000D03*
%TO.P,U2,19,~{RESET}*%
%TO.N,/5V*%
X132820000Y-95250000D03*
%TO.P,U2,20,VCC*%
X132170000Y-95250000D03*
%TO.P,U2,21,GND*%
%TO.N,/GND*%
X131520000Y-95250000D03*
%TO.P,U2,22,CBUS1*%
%TO.N,Net-(D2-K)*%
X130870000Y-95250000D03*
%TO.P,U2,23,CBUS0*%
%TO.N,Net-(D1-K)*%
X130220000Y-95250000D03*
%TO.P,U2,24*%
%TO.N,N/C*%
X129570000Y-95250000D03*
%TO.P,U2,25,AGND*%
%TO.N,/GND*%
X128920000Y-95250000D03*
%TO.P,U2,26,TEST*%
%TO.N,unconnected-(U2-TEST-Pad26)*%
X128270000Y-95250000D03*
%TO.P,U2,27,OSCI*%
%TO.N,unconnected-(U2-OSCI-Pad27)*%
X127620000Y-95250000D03*
%TO.P,U2,28,OSCO*%
%TO.N,unconnected-(U2-OSCO-Pad28)*%
X126970000Y-95250000D03*
%TD*%
D10*
%TO.P,R5,1*%
%TO.N,Net-(J3-Pin_1)*%
X163830000Y-111760000D03*
D11*
%TO.P,R5,2*%
%TO.N,/GND*%
X153670000Y-111760000D03*
%TD*%
D10*
%TO.P,R3,1*%
%TO.N,/5V*%
X160020000Y-82550000D03*
D11*
%TO.P,R3,2*%
%TO.N,Net-(U2-TXD)*%
X160020000Y-92710000D03*
%TD*%
D22*
%TO.N,/5V*%
X132080000Y-92710000D03*
X123190000Y-101600000D03*
%TO.N,/GND*%
X139700000Y-99060000D03*
X139700000Y-104140000D03*
X142240000Y-104140000D03*
X109220000Y-93980000D03*
X116840000Y-96520000D03*
X116840000Y-93980000D03*
X111760000Y-91440000D03*
X114300000Y-93980000D03*
X114300000Y-96520000D03*
X139700000Y-96520000D03*
%TO.N,Net-(U2-3V3OUT)*%
X123190000Y-104140000D03*
X132080000Y-97790000D03*
%TO.N,Net-(U2-TXD)*%
X127000000Y-105410000D03*
X135890000Y-105410000D03*
%TO.N,Net-(U2-CBUS3)*%
X142240000Y-101600000D03*
%TD*%
D23*
%TO.N,/5V*%
X153670000Y-90170000D02*
X153670000Y-95250000D01*
X153670000Y-82550000D02*
X153670000Y-90170000D01*
X132920000Y-94050000D02*
X152470000Y-94050000D01*
X113110000Y-91777500D02*
X105847500Y-99040000D01*
X132170000Y-92800000D02*
X132080000Y-92710000D01*
X128845000Y-101250000D02*
X123540000Y-101250000D01*
X128920000Y-101325000D02*
X128845000Y-101250000D01*
X132170000Y-95250000D02*
X132170000Y-92800000D01*
X132170000Y-95250000D02*
X132820000Y-95250000D01*
X113110000Y-88900000D02*
X113110000Y-91777500D01*
X132820000Y-95250000D02*
X132820000Y-94150000D01*
X152470000Y-94050000D02*
X153670000Y-95250000D01*
X132820000Y-94150000D02*
X132920000Y-94050000D01*
X123540000Y-101250000D02*
X123190000Y-101600000D01*
X160020000Y-82550000D02*
X175260000Y-82550000D01*
X128920000Y-102450000D02*
X128920000Y-101325000D01*
X116800000Y-107990000D02*
X113030000Y-107990000D01*
X123190000Y-101600000D02*
X116800000Y-107990000D01*
X160020000Y-82550000D02*
X153670000Y-82550000D01*
%TO.N,/GND*%
X100987500Y-91790000D02*
X100987500Y-103790000D01*
X128920000Y-96375000D02*
X128995000Y-96450000D01*
X113030000Y-112990000D02*
X119340000Y-112990000D01*
X130870000Y-102450000D02*
X130870000Y-111700000D01*
X131520000Y-96375000D02*
X131520000Y-95250000D01*
X184150000Y-95250000D02*
X185625000Y-96725000D01*
X118110000Y-88900000D02*
X123695000Y-88900000D01*
X100987500Y-103790000D02*
X103830000Y-103790000D01*
X176320000Y-113030000D02*
X154940000Y-113030000D01*
X128920000Y-95250000D02*
X128920000Y-96375000D01*
X122660000Y-111760000D02*
X130810000Y-111760000D01*
X185625000Y-103725000D02*
X176320000Y-113030000D01*
X133470000Y-95250000D02*
X133470000Y-96388604D01*
X185625000Y-96725000D02*
X185625000Y-103725000D01*
X154940000Y-113030000D02*
X153670000Y-111760000D01*
X123695000Y-88900000D02*
X128920000Y-94125000D01*
X130870000Y-111700000D02*
X130810000Y-111760000D01*
X128995000Y-96450000D02*
X131595000Y-96450000D01*
X133470000Y-96388604D02*
X133408604Y-96450000D01*
X103830000Y-103790000D02*
X113030000Y-112990000D01*
X121390000Y-113030000D02*
X122660000Y-111760000D01*
X130810000Y-111760000D02*
X153670000Y-111760000D01*
X119340000Y-112990000D02*
X119380000Y-113030000D01*
X128920000Y-94125000D02*
X128920000Y-95250000D01*
X131595000Y-96450000D02*
X131520000Y-96375000D01*
X119380000Y-113030000D02*
X121390000Y-113030000D01*
X153670000Y-111760000D02*
X153670000Y-102870000D01*
X133408604Y-96450000D02*
X131595000Y-96450000D01*
%TO.N,Net-(U2-3V3OUT)*%
X134120000Y-95250000D02*
X134120000Y-96375000D01*
X134120000Y-96375000D02*
X132705000Y-97790000D01*
X123190000Y-104220000D02*
X123190000Y-104140000D01*
X119380000Y-108030000D02*
X123190000Y-104220000D01*
X132705000Y-97790000D02*
X132080000Y-97790000D01*
%TO.N,Net-(D1-K)*%
X130220000Y-88220000D02*
X135890000Y-82550000D01*
X130220000Y-95250000D02*
X130220000Y-88220000D01*
%TO.N,Net-(D1-A)*%
X138430000Y-82550000D02*
X143510000Y-82550000D01*
%TO.N,Net-(D2-K)*%
X130870000Y-91380000D02*
X130870000Y-95250000D01*
X132080000Y-90170000D02*
X130870000Y-91380000D01*
X135890000Y-90170000D02*
X132080000Y-90170000D01*
%TO.N,Net-(D2-A)*%
X143510000Y-90170000D02*
X138430000Y-90170000D01*
%TO.N,Net-(J1-D-)*%
X105847500Y-96540000D02*
X105847500Y-94571509D01*
X126385000Y-99715000D02*
X131430000Y-99715000D01*
X134770000Y-96375000D02*
X134770000Y-95250000D01*
X131430000Y-99715000D02*
X134770000Y-96375000D01*
X105847500Y-94571509D02*
X112644009Y-87775000D01*
X112644009Y-87775000D02*
X114445000Y-87775000D01*
X114445000Y-87775000D02*
X126385000Y-99715000D01*
%TO.N,Net-(J1-D+)*%
X103381509Y-100165000D02*
X131616396Y-100165000D01*
X135420000Y-96361396D02*
X135420000Y-95250000D01*
X103847500Y-96540000D02*
X102722500Y-97665000D01*
X102722500Y-97665000D02*
X102722500Y-99505991D01*
X102722500Y-99505991D02*
X103381509Y-100165000D01*
X131616396Y-100165000D02*
X135420000Y-96361396D01*
%TO.N,Net-(J3-Pin_1)*%
X184150000Y-102250000D02*
X179690000Y-102250000D01*
X172720000Y-109220000D02*
X166370000Y-109220000D01*
X179690000Y-102250000D02*
X172720000Y-109220000D01*
X166370000Y-109220000D02*
X163830000Y-111760000D01*
%TO.N,Net-(J4-Pin_2)*%
X184150000Y-97790000D02*
X184150000Y-98750000D01*
X156210000Y-102870000D02*
X153670000Y-100330000D01*
X175260000Y-92710000D02*
X178110000Y-92710000D01*
X172720000Y-92710000D02*
X162560000Y-102870000D01*
X178110000Y-92710000D02*
X184150000Y-98750000D01*
X175260000Y-92710000D02*
X172720000Y-92710000D01*
X162560000Y-102870000D02*
X156210000Y-102870000D01*
%TO.N,Net-(U2-RXD)*%
X129670000Y-101250000D02*
X129570000Y-101350000D01*
X163830000Y-91440000D02*
X165100000Y-92710000D01*
X154764009Y-96375000D02*
X159699009Y-91440000D01*
X146050000Y-95250000D02*
X140050000Y-101250000D01*
X140050000Y-101250000D02*
X129670000Y-101250000D01*
X159699009Y-91440000D02*
X163830000Y-91440000D01*
X147175000Y-96375000D02*
X154764009Y-96375000D01*
X129570000Y-101350000D02*
X129570000Y-102450000D01*
X146050000Y-95250000D02*
X147175000Y-96375000D01*
%TO.N,Net-(U2-TXD)*%
X146515991Y-96665000D02*
X145584009Y-96665000D01*
X144925000Y-101745000D02*
X146050000Y-102870000D01*
X145584009Y-96665000D02*
X144925000Y-97324009D01*
X160020000Y-92710000D02*
X160020000Y-93841370D01*
X126970000Y-102450000D02*
X127000000Y-105410000D01*
X154801370Y-99060000D02*
X148910991Y-99060000D01*
X148910991Y-99060000D02*
X146515991Y-96665000D01*
X160020000Y-93841370D02*
X154801370Y-99060000D01*
X127000000Y-105410000D02*
X126970000Y-105380000D01*
X144925000Y-97324009D02*
X144925000Y-101745000D01*
X138430000Y-102870000D02*
X135890000Y-105410000D01*
X146050000Y-102870000D02*
X138430000Y-102870000D01*
%TO.N,Net-(U2-CBUS3)*%
X141420000Y-102420000D02*
X142240000Y-101600000D01*
X135420000Y-102450000D02*
X135450000Y-102420000D01*
X135450000Y-102420000D02*
X141420000Y-102420000D01*
%TO.N,Net-(U2-CBUS2)*%
X135345000Y-106135000D02*
X134770000Y-105560000D01*
X147175000Y-101455000D02*
X147175000Y-104285000D01*
X134770000Y-105560000D02*
X134770000Y-102450000D01*
X146050000Y-100330000D02*
X147175000Y-101455000D01*
X147175000Y-104285000D02*
X145325000Y-106135000D01*
X145325000Y-106135000D02*
X135345000Y-106135000D01*
%TO.N,Net-(J3-Pin_2)*%
X172720000Y-106680000D02*
X172720000Y-102870000D01*
%TD*%
%TA.AperFunction,Conductor*%
%TO.N,/GND*%
G36*
X144902851Y-103515185D02*
G01*
X144937387Y-103548377D01*
X145049954Y-103709141D01*
X145210858Y-103870045D01*
X145210861Y-103870047D01*
X145397266Y-104000568D01*
X145603504Y-104096739D01*
X145823308Y-104155635D01*
X145985230Y-104169801D01*
X146049998Y-104175468D01*
X146049999Y-104175468D01*
X146049999Y-104175467D01*
X146050000Y-104175468D01*
X146094102Y-104171609D01*
X146162600Y-104185375D01*
X146212784Y-104233989D01*
X146228718Y-104302018D01*
X146205344Y-104367862D01*
X146192590Y-104382818D01*
X145102228Y-105473181D01*
X145040905Y-105506666D01*
X145014547Y-105509500D01*
X136974452Y-105509500D01*
X136907413Y-105489815D01*
X136861658Y-105437011D01*
X136851714Y-105367853D01*
X136880739Y-105304297D01*
X136886771Y-105297819D01*
X137766820Y-104417771D01*
X138652772Y-103531819D01*
X138714095Y-103498334D01*
X138740453Y-103495500D01*
X144835812Y-103495500D01*
X144902851Y-103515185D01*
G37*
%TD.AperFunction*%
%TA.AperFunction,Conductor*%
G36*
X144692539Y-94695185D02*
G01*
X144738294Y-94747989D01*
X144749500Y-94799500D01*
X144749500Y-95614546D01*
X144729815Y-95681585D01*
X144713181Y-95702227D01*
X139827228Y-100588181D01*
X139765905Y-100621666D01*
X139739547Y-100624500D01*
X132340847Y-100624500D01*
X132273808Y-100604815D01*
X132228053Y-100552011D01*
X132218109Y-100482853D01*
X132247134Y-100419297D01*
X132253166Y-100412819D01*
X133940243Y-98725742D01*
X135803788Y-96862197D01*
X135816042Y-96852382D01*
X135815859Y-96852160D01*
X135821868Y-96847187D01*
X135821877Y-96847182D01*
X135867949Y-96798118D01*
X135870566Y-96795419D01*
X135890120Y-96775867D01*
X135892576Y-96772699D01*
X135900156Y-96763823D01*
X135930062Y-96731978D01*
X135939713Y-96714420D01*
X135950396Y-96698157D01*
X135962673Y-96682332D01*
X135980021Y-96642240D01*
X135985151Y-96631767D01*
X136006197Y-96593488D01*
X136011180Y-96574076D01*
X136017481Y-96555676D01*
X136025437Y-96537292D01*
X136032270Y-96494144D01*
X136034636Y-96482725D01*
X136034682Y-96482546D01*
X136045348Y-96441004D01*
X136066185Y-96397534D01*
X136088796Y-96367331D01*
X136139091Y-96232483D01*
X136145500Y-96172873D01*
X136145499Y-94799499D01*
X136165184Y-94732461D01*
X136217987Y-94686706D01*
X136269499Y-94675500D01*
X144625500Y-94675500D01*
X144692539Y-94695185D01*
G37*
%TD.AperFunction*%
%TA.AperFunction,Conductor*%
G36*
X114625216Y-88839806D02*
G01*
X119871132Y-94085723D01*
X125113228Y-99327819D01*
X125146713Y-99389142D01*
X125141729Y-99458834D01*
X125099857Y-99514767D01*
X125034393Y-99539184D01*
X125025547Y-99539500D01*
X107272000Y-99539500D01*
X107204961Y-99519815D01*
X107159206Y-99467011D01*
X107148000Y-99415500D01*
X107147999Y-98675451D01*
X107167683Y-98608412D01*
X107184313Y-98587775D01*
X113493788Y-92278301D01*
X113506042Y-92268486D01*
X113505859Y-92268264D01*
X113511868Y-92263291D01*
X113511877Y-92263286D01*
X113557949Y-92214222D01*
X113560566Y-92211523D01*
X113580120Y-92191971D01*
X113582576Y-92188803D01*
X113590156Y-92179927D01*
X113620062Y-92148082D01*
X113629715Y-92130520D01*
X113640389Y-92114270D01*
X113652673Y-92098436D01*
X113670019Y-92058350D01*
X113675157Y-92047862D01*
X113689604Y-92021585D01*
X113696197Y-92009592D01*
X113701177Y-91990191D01*
X113707478Y-91971788D01*
X113715438Y-91953396D01*
X113722272Y-91910241D01*
X113724635Y-91898831D01*
X113735500Y-91856519D01*
X113735500Y-91836483D01*
X113737027Y-91817082D01*
X113738228Y-91809500D01*
X113740160Y-91797304D01*
X113736050Y-91753824D01*
X113735500Y-91742155D01*
X113735500Y-90114188D01*
X113755185Y-90047149D01*
X113788377Y-90012613D01*
X113887364Y-89943302D01*
X113949139Y-89900047D01*
X114110047Y-89739139D01*
X114240568Y-89552734D01*
X114336739Y-89346496D01*
X114395635Y-89126692D01*
X114414008Y-88916679D01*
X114439460Y-88851612D01*
X114496051Y-88810633D01*
X114565813Y-88806755D01*
X114625216Y-88839806D01*
G37*
%TD.AperFunction*%
%TA.AperFunction,Conductor*%
G36*
X111912537Y-89493575D02*
G01*
X111968470Y-89535447D01*
X111976207Y-89548341D01*
X111976724Y-89548043D01*
X111979432Y-89552734D01*
X112109954Y-89739141D01*
X112270858Y-89900045D01*
X112431623Y-90012613D01*
X112475248Y-90067189D01*
X112484500Y-90114188D01*
X112484500Y-91467046D01*
X112464815Y-91534085D01*
X112448181Y-91554727D01*
X107364153Y-96638754D01*
X107302830Y-96672239D01*
X107233138Y-96667255D01*
X107177205Y-96625383D01*
X107152788Y-96559919D01*
X107152946Y-96540246D01*
X107152968Y-96540000D01*
X107133135Y-96313308D01*
X107074239Y-96093504D01*
X106978068Y-95887266D01*
X106861732Y-95721119D01*
X106847545Y-95700858D01*
X106686640Y-95539953D01*
X106525877Y-95427386D01*
X106482252Y-95372809D01*
X106473000Y-95325811D01*
X106473000Y-94881961D01*
X106492685Y-94814922D01*
X106509319Y-94794280D01*
X109136275Y-92167324D01*
X111781524Y-89522074D01*
X111842845Y-89488591D01*
X111912537Y-89493575D01*
G37*
%TD.AperFunction*%
%TA.AperFunction,Conductor*%
G36*
X187285607Y-77490185D02*
G01*
X187331362Y-77542989D01*
X187341306Y-77612147D01*
X187312281Y-77675703D01*
X187253503Y-77713477D01*
X187249406Y-77714604D01*
X187216889Y-77722953D01*
X186936117Y-77834117D01*
X186936109Y-77834121D01*
X186671476Y-77979604D01*
X186671471Y-77979607D01*
X186446565Y-78143010D01*
X186446564Y-78143011D01*
X187376693Y-79073140D01*
X187362590Y-79080411D01*
X187197460Y-79210271D01*
X187059890Y-79369035D01*
X187025334Y-79428887D01*
X186095311Y-78498864D01*
X186014520Y-78596525D01*
X186014518Y-78596528D01*
X185852707Y-78851502D01*
X185852704Y-78851508D01*
X185724127Y-79124747D01*
X185724125Y-79124752D01*
X185630805Y-79411959D01*
X185574216Y-79708609D01*
X185574215Y-79708616D01*
X185555255Y-80009994D01*
X185555255Y-80010005D01*
X185574215Y-80311383D01*
X185574216Y-80311390D01*
X185630805Y-80608040D01*
X185724125Y-80895247D01*
X185724127Y-80895252D01*
X185852704Y-81168491D01*
X185852707Y-81168497D01*
X186014516Y-81423469D01*
X186095311Y-81521133D01*
X187024210Y-80592234D01*
X187124894Y-80733624D01*
X187276932Y-80878592D01*
X187379222Y-80944329D01*
X186446564Y-81876987D01*
X186446565Y-81876989D01*
X186671461Y-82040385D01*
X186671479Y-82040397D01*
X186936109Y-82185878D01*
X186936117Y-82185882D01*
X187216889Y-82297047D01*
X187216892Y-82297048D01*
X187509399Y-82372150D01*
X187808995Y-82409999D01*
X187809007Y-82410000D01*
X188110993Y-82410000D01*
X188111004Y-82409999D01*
X188410600Y-82372150D01*
X188703107Y-82297048D01*
X188703110Y-82297047D01*
X188983882Y-82185882D01*
X188983890Y-82185878D01*
X189248520Y-82040397D01*
X189248530Y-82040390D01*
X189473433Y-81876987D01*
X189473434Y-81876987D01*
X188543307Y-80946859D01*
X188557410Y-80939589D01*
X188722540Y-80809729D01*
X188860110Y-80650965D01*
X188894665Y-80591112D01*
X189824687Y-81521134D01*
X189905486Y-81423464D01*
X190067292Y-81168497D01*
X190067295Y-81168491D01*
X190195872Y-80895252D01*
X190195874Y-80895247D01*
X190257569Y-80705372D01*
X190297006Y-80647696D01*
X190361365Y-80620498D01*
X190430211Y-80632413D01*
X190481687Y-80679657D01*
X190499500Y-80743690D01*
X190499500Y-113566309D01*
X190479815Y-113633348D01*
X190427011Y-113679103D01*
X190357853Y-113689047D01*
X190294297Y-113660022D01*
X190257569Y-113604627D01*
X190195874Y-113414752D01*
X190195872Y-113414747D01*
X190067295Y-113141508D01*
X190067292Y-113141502D01*
X189905483Y-112886530D01*
X189824686Y-112788864D01*
X188895787Y-113717763D01*
X188795106Y-113576376D01*
X188643068Y-113431408D01*
X188540776Y-113365669D01*
X189473434Y-112433011D01*
X189473433Y-112433009D01*
X189248538Y-112269614D01*
X189248520Y-112269602D01*
X188983890Y-112124121D01*
X188983882Y-112124117D01*
X188703110Y-112012952D01*
X188703107Y-112012951D01*
X188410600Y-111937849D01*
X188111004Y-111900000D01*
X187808995Y-111900000D01*
X187509399Y-111937849D01*
X187216892Y-112012951D01*
X187216889Y-112012952D01*
X186936117Y-112124117D01*
X186936109Y-112124121D01*
X186671476Y-112269604D01*
X186671471Y-112269607D01*
X186446565Y-112433010D01*
X186446564Y-112433011D01*
X187376693Y-113363140D01*
X187362590Y-113370411D01*
X187197460Y-113500271D01*
X187059890Y-113659035D01*
X187025334Y-113718887D01*
X186095311Y-112788864D01*
X186014520Y-112886525D01*
X186014518Y-112886528D01*
X185852707Y-113141502D01*
X185852704Y-113141508D01*
X185724127Y-113414747D01*
X185724125Y-113414752D01*
X185630805Y-113701959D01*
X185574216Y-113998609D01*
X185574215Y-113998616D01*
X185555255Y-114299994D01*
X185555255Y-114300005D01*
X185574215Y-114601383D01*
X185574216Y-114601390D01*
X185630805Y-114898040D01*
X185724125Y-115185247D01*
X185724127Y-115185252D01*
X185852704Y-115458491D01*
X185852707Y-115458497D01*
X186014516Y-115713469D01*
X186095311Y-115811133D01*
X187024210Y-114882234D01*
X187124894Y-115023624D01*
X187276932Y-115168592D01*
X187379222Y-115234329D01*
X186446564Y-116166987D01*
X186446565Y-116166989D01*
X186671461Y-116330385D01*
X186671479Y-116330397D01*
X186936109Y-116475878D01*
X186936117Y-116475882D01*
X187216889Y-116587046D01*
X187249406Y-116595396D01*
X187309444Y-116631134D01*
X187340629Y-116693658D01*
X187333061Y-116763117D01*
X187289142Y-116817457D01*
X187222817Y-116839427D01*
X187218568Y-116839500D01*
X95991432Y-116839500D01*
X95924393Y-116819815D01*
X95878638Y-116767011D01*
X95868694Y-116697853D01*
X95897719Y-116634297D01*
X95956497Y-116596523D01*
X95960594Y-116595396D01*
X95993110Y-116587046D01*
X96273882Y-116475882D01*
X96273890Y-116475878D01*
X96538520Y-116330397D01*
X96538530Y-116330390D01*
X96763433Y-116166987D01*
X96763434Y-116166987D01*
X95833307Y-115236859D01*
X95847410Y-115229589D01*
X96012540Y-115099729D01*
X96150110Y-114940965D01*
X96184665Y-114881112D01*
X97114687Y-115811134D01*
X97195486Y-115713464D01*
X97357292Y-115458497D01*
X97357295Y-115458491D01*
X97485872Y-115185252D01*
X97485874Y-115185247D01*
X97579194Y-114898040D01*
X97635783Y-114601390D01*
X97635784Y-114601383D01*
X97654745Y-114300005D01*
X97654745Y-114299994D01*
X97635784Y-113998616D01*
X97635783Y-113998609D01*
X97579194Y-113701959D01*
X97485874Y-113414752D01*
X97485872Y-113414747D01*
X97357295Y-113141508D01*
X97357292Y-113141502D01*
X97261148Y-112990002D01*
X111725034Y-112990002D01*
X111744858Y-113216599D01*
X111744860Y-113216610D01*
X111803730Y-113436317D01*
X111803735Y-113436331D01*
X111899863Y-113642478D01*
X111950974Y-113715472D01*
X112632046Y-113034400D01*
X112644835Y-113115148D01*
X112702359Y-113228045D01*
X112791955Y-113317641D01*
X112904852Y-113375165D01*
X112985599Y-113387953D01*
X112304526Y-114069025D01*
X112377513Y-114120132D01*
X112377521Y-114120136D01*
X112583668Y-114216264D01*
X112583682Y-114216269D01*
X112803389Y-114275139D01*
X112803400Y-114275141D01*
X113029998Y-114294966D01*
X113030002Y-114294966D01*
X113256599Y-114275141D01*
X113256610Y-114275139D01*
X113476317Y-114216269D01*
X113476331Y-114216264D01*
X113682478Y-114120136D01*
X113755471Y-114069024D01*
X113074400Y-113387953D01*
X113155148Y-113375165D01*
X113268045Y-113317641D01*
X113357641Y-113228045D01*
X113415165Y-113115148D01*
X113427953Y-113034400D01*
X114109024Y-113715471D01*
X114160136Y-113642478D01*
X114256264Y-113436331D01*
X114256269Y-113436317D01*
X114315139Y-113216610D01*
X114315141Y-113216599D01*
X114331466Y-113030002D01*
X118075034Y-113030002D01*
X118094858Y-113256599D01*
X118094860Y-113256610D01*
X118153730Y-113476317D01*
X118153735Y-113476331D01*
X118249863Y-113682478D01*
X118300974Y-113755472D01*
X118982046Y-113074400D01*
X118994835Y-113155148D01*
X119052359Y-113268045D01*
X119141955Y-113357641D01*
X119254852Y-113415165D01*
X119335599Y-113427953D01*
X118654526Y-114109025D01*
X118727513Y-114160132D01*
X118727521Y-114160136D01*
X118933668Y-114256264D01*
X118933682Y-114256269D01*
X119153389Y-114315139D01*
X119153400Y-114315141D01*
X119379998Y-114334966D01*
X119380002Y-114334966D01*
X119606599Y-114315141D01*
X119606610Y-114315139D01*
X119826317Y-114256269D01*
X119826331Y-114256264D01*
X120032478Y-114160136D01*
X120105471Y-114109024D01*
X119424400Y-113427953D01*
X119505148Y-113415165D01*
X119618045Y-113357641D01*
X119707641Y-113268045D01*
X119765165Y-113155148D01*
X119777953Y-113074400D01*
X120459024Y-113755471D01*
X120510136Y-113682478D01*
X120606264Y-113476331D01*
X120606269Y-113476317D01*
X120665139Y-113256610D01*
X120665141Y-113256599D01*
X120684966Y-113030002D01*
X120684966Y-113029997D01*
X120665141Y-112803400D01*
X120665139Y-112803389D01*
X120606269Y-112583682D01*
X120606264Y-112583668D01*
X120510136Y-112377521D01*
X120510132Y-112377513D01*
X120459025Y-112304526D01*
X119777953Y-112985598D01*
X119765165Y-112904852D01*
X119707641Y-112791955D01*
X119618045Y-112702359D01*
X119505148Y-112644835D01*
X119424401Y-112632046D01*
X120105472Y-111950974D01*
X120032478Y-111899863D01*
X119826331Y-111803735D01*
X119826317Y-111803730D01*
X119606610Y-111744860D01*
X119606599Y-111744858D01*
X119380002Y-111725034D01*
X119379998Y-111725034D01*
X119153400Y-111744858D01*
X119153389Y-111744860D01*
X118933682Y-111803730D01*
X118933673Y-111803734D01*
X118727516Y-111899866D01*
X118727512Y-111899868D01*
X118654526Y-111950973D01*
X118654526Y-111950974D01*
X119335599Y-112632046D01*
X119254852Y-112644835D01*
X119141955Y-112702359D01*
X119052359Y-112791955D01*
X118994835Y-112904852D01*
X118982046Y-112985598D01*
X118300974Y-112304526D01*
X118300973Y-112304526D01*
X118249868Y-112377512D01*
X118249866Y-112377516D01*
X118153734Y-112583673D01*
X118153730Y-112583682D01*
X118094860Y-112803389D01*
X118094858Y-112803400D01*
X118075034Y-113029997D01*
X118075034Y-113030002D01*
X114331466Y-113030002D01*
X114334966Y-112990002D01*
X114334966Y-112989997D01*
X114315141Y-112763400D01*
X114315139Y-112763389D01*
X114256269Y-112543682D01*
X114256264Y-112543668D01*
X114160136Y-112337521D01*
X114160132Y-112337513D01*
X114109025Y-112264526D01*
X113427953Y-112945598D01*
X113415165Y-112864852D01*
X113357641Y-112751955D01*
X113268045Y-112662359D01*
X113155148Y-112604835D01*
X113074401Y-112592046D01*
X113755472Y-111910974D01*
X113682478Y-111859863D01*
X113476331Y-111763735D01*
X113476317Y-111763730D01*
X113256610Y-111704860D01*
X113256599Y-111704858D01*
X113030002Y-111685034D01*
X113029998Y-111685034D01*
X112803400Y-111704858D01*
X112803389Y-111704860D01*
X112583682Y-111763730D01*
X112583673Y-111763734D01*
X112377516Y-111859866D01*
X112377512Y-111859868D01*
X112304526Y-111910973D01*
X112304526Y-111910974D01*
X112985599Y-112592046D01*
X112904852Y-112604835D01*
X112791955Y-112662359D01*
X112702359Y-112751955D01*
X112644835Y-112864852D01*
X112632046Y-112945598D01*
X111950974Y-112264526D01*
X111950973Y-112264526D01*
X111899868Y-112337512D01*
X111899866Y-112337516D01*
X111803734Y-112543673D01*
X111803730Y-112543682D01*
X111744860Y-112763389D01*
X111744858Y-112763400D01*
X111725034Y-112989997D01*
X111725034Y-112990002D01*
X97261148Y-112990002D01*
X97195483Y-112886530D01*
X97114686Y-112788864D01*
X96185787Y-113717763D01*
X96085106Y-113576376D01*
X95933068Y-113431408D01*
X95830776Y-113365669D01*
X96763434Y-112433011D01*
X96763433Y-112433009D01*
X96538538Y-112269614D01*
X96538520Y-112269602D01*
X96273890Y-112124121D01*
X96273882Y-112124117D01*
X95993110Y-112012952D01*
X95993107Y-112012951D01*
X95700600Y-111937849D01*
X95401004Y-111900000D01*
X95098995Y-111900000D01*
X94799399Y-111937849D01*
X94506892Y-112012951D01*
X94506889Y-112012952D01*
X94226117Y-112124117D01*
X94226109Y-112124121D01*
X93961476Y-112269604D01*
X93961471Y-112269607D01*
X93736565Y-112433010D01*
X93736564Y-112433011D01*
X94666693Y-113363140D01*
X94652590Y-113370411D01*
X94487460Y-113500271D01*
X94349890Y-113659035D01*
X94315334Y-113718887D01*
X93385311Y-112788864D01*
X93304520Y-112886525D01*
X93304518Y-112886528D01*
X93142707Y-113141502D01*
X93142704Y-113141508D01*
X93014127Y-113414747D01*
X93014125Y-113414752D01*
X92952431Y-113604627D01*
X92912993Y-113662303D01*
X92848635Y-113689501D01*
X92779788Y-113677586D01*
X92728313Y-113630342D01*
X92710500Y-113566309D01*
X92710500Y-111509999D01*
X152391127Y-111509999D01*
X152391128Y-111510000D01*
X153354314Y-111510000D01*
X153342359Y-111521955D01*
X153284835Y-111634852D01*
X153265014Y-111760000D01*
X153284835Y-111885148D01*
X153342359Y-111998045D01*
X153354314Y-112010000D01*
X152391128Y-112010000D01*
X152443730Y-112206317D01*
X152443734Y-112206326D01*
X152539865Y-112412482D01*
X152670342Y-112598820D01*
X152831179Y-112759657D01*
X153017517Y-112890134D01*
X153223673Y-112986265D01*
X153223682Y-112986269D01*
X153419999Y-113038872D01*
X153420000Y-113038871D01*
X153420000Y-112075686D01*
X153431955Y-112087641D01*
X153544852Y-112145165D01*
X153638519Y-112160000D01*
X153701481Y-112160000D01*
X153795148Y-112145165D01*
X153908045Y-112087641D01*
X153920000Y-112075686D01*
X153920000Y-113038872D01*
X154116317Y-112986269D01*
X154116326Y-112986265D01*
X154322482Y-112890134D01*
X154508820Y-112759657D01*
X154669657Y-112598820D01*
X154800134Y-112412482D01*
X154896265Y-112206326D01*
X154896269Y-112206317D01*
X154948872Y-112010000D01*
X153985686Y-112010000D01*
X153997641Y-111998045D01*
X154055165Y-111885148D01*
X154074986Y-111760000D01*
X154055165Y-111634852D01*
X153997641Y-111521955D01*
X153985686Y-111510000D01*
X154948872Y-111510000D01*
X154948872Y-111509999D01*
X154896269Y-111313682D01*
X154896265Y-111313673D01*
X154800134Y-111107517D01*
X154669657Y-110921179D01*
X154508820Y-110760342D01*
X154322482Y-110629865D01*
X154116328Y-110533734D01*
X153920000Y-110481127D01*
X153920000Y-111444314D01*
X153908045Y-111432359D01*
X153795148Y-111374835D01*
X153701481Y-111360000D01*
X153638519Y-111360000D01*
X153544852Y-111374835D01*
X153431955Y-111432359D01*
X153420000Y-111444314D01*
X153420000Y-110481127D01*
X153223671Y-110533734D01*
X153017517Y-110629865D01*
X152831179Y-110760342D01*
X152670342Y-110921179D01*
X152539865Y-111107517D01*
X152443734Y-111313673D01*
X152443730Y-111313682D01*
X152391127Y-111509999D01*
X92710500Y-111509999D01*
X92710500Y-103790005D01*
X98482557Y-103790005D01*
X98502307Y-104103942D01*
X98502308Y-104103949D01*
X98561255Y-104412958D01*
X98658463Y-104712132D01*
X98658465Y-104712137D01*
X98792400Y-104996761D01*
X98792403Y-104996767D01*
X98960957Y-105262367D01*
X98960960Y-105262371D01*
X99051786Y-105372160D01*
X100016938Y-104407007D01*
X100065848Y-104485999D01*
X100209431Y-104643501D01*
X100367888Y-104763163D01*
X99402471Y-105728579D01*
X99402472Y-105728581D01*
X99645272Y-105904985D01*
X99645290Y-105904996D01*
X99920947Y-106056540D01*
X99920955Y-106056544D01*
X100213426Y-106172340D01*
X100518120Y-106250573D01*
X100518129Y-106250575D01*
X100830201Y-106289999D01*
X100830215Y-106290000D01*
X101144785Y-106290000D01*
X101144798Y-106289999D01*
X101456870Y-106250575D01*
X101456879Y-106250573D01*
X101761573Y-106172340D01*
X102054044Y-106056544D01*
X102054052Y-106056540D01*
X102329709Y-105904996D01*
X102329719Y-105904990D01*
X102572526Y-105728579D01*
X102572527Y-105728579D01*
X101607111Y-104763163D01*
X101765569Y-104643501D01*
X101909152Y-104485999D01*
X101958060Y-104407008D01*
X102923212Y-105372160D01*
X103014044Y-105262364D01*
X103182596Y-104996767D01*
X103182599Y-104996761D01*
X103316534Y-104712137D01*
X103316536Y-104712132D01*
X103413744Y-104412958D01*
X103472691Y-104103949D01*
X103472692Y-104103942D01*
X103492443Y-103790005D01*
X103492443Y-103789994D01*
X103472692Y-103476057D01*
X103472691Y-103476050D01*
X103413744Y-103167041D01*
X103316536Y-102867867D01*
X103316534Y-102867862D01*
X103182599Y-102583238D01*
X103182596Y-102583232D01*
X103014042Y-102317632D01*
X103014039Y-102317628D01*
X102923212Y-102207838D01*
X101958060Y-103172991D01*
X101909152Y-103094001D01*
X101765569Y-102936499D01*
X101607111Y-102816836D01*
X102572527Y-101851419D01*
X102572526Y-101851417D01*
X102329727Y-101675014D01*
X102329709Y-101675003D01*
X102054052Y-101523459D01*
X102054044Y-101523455D01*
X101761573Y-101407659D01*
X101456879Y-101329426D01*
X101456870Y-101329424D01*
X101144798Y-101290000D01*
X100830201Y-101290000D01*
X100518129Y-101329424D01*
X100518120Y-101329426D01*
X100213426Y-101407659D01*
X99920955Y-101523455D01*
X99920947Y-101523459D01*
X99645287Y-101675004D01*
X99645282Y-101675007D01*
X99402472Y-101851418D01*
X99402471Y-101851419D01*
X100367888Y-102816836D01*
X100209431Y-102936499D01*
X100065848Y-103094001D01*
X100016939Y-103172991D01*
X99051786Y-102207838D01*
X99051785Y-102207838D01*
X98960959Y-102317629D01*
X98960957Y-102317632D01*
X98792403Y-102583232D01*
X98792400Y-102583238D01*
X98658465Y-102867862D01*
X98658463Y-102867867D01*
X98561255Y-103167041D01*
X98502308Y-103476050D01*
X98502307Y-103476057D01*
X98482557Y-103789994D01*
X98482557Y-103790005D01*
X92710500Y-103790005D01*
X92710500Y-97645195D01*
X102092340Y-97645195D01*
X102096450Y-97688674D01*
X102097000Y-97700343D01*
X102097000Y-99423246D01*
X102095275Y-99438863D01*
X102095561Y-99438890D01*
X102094826Y-99446656D01*
X102096939Y-99513863D01*
X102097000Y-99517758D01*
X102097000Y-99545348D01*
X102097503Y-99549326D01*
X102098418Y-99560958D01*
X102099790Y-99604615D01*
X102099791Y-99604618D01*
X102105380Y-99623858D01*
X102109324Y-99642902D01*
X102110370Y-99651177D01*
X102111836Y-99662783D01*
X102127914Y-99703394D01*
X102131697Y-99714443D01*
X102143881Y-99756379D01*
X102154080Y-99773625D01*
X102162638Y-99791094D01*
X102170014Y-99809723D01*
X102195681Y-99845051D01*
X102202093Y-99854812D01*
X102224328Y-99892408D01*
X102224333Y-99892415D01*
X102238490Y-99906571D01*
X102251128Y-99921367D01*
X102262905Y-99937577D01*
X102262906Y-99937578D01*
X102296557Y-99965416D01*
X102305198Y-99973279D01*
X102880706Y-100548788D01*
X102890531Y-100561051D01*
X102890752Y-100560869D01*
X102895720Y-100566874D01*
X102895722Y-100566876D01*
X102895723Y-100566877D01*
X102944731Y-100612899D01*
X102947530Y-100615612D01*
X102967031Y-100635114D01*
X102967035Y-100635117D01*
X102967038Y-100635120D01*
X102970211Y-100637581D01*
X102979083Y-100645159D01*
X103010927Y-100675062D01*
X103028485Y-100684714D01*
X103044744Y-100695395D01*
X103060573Y-100707673D01*
X103100664Y-100725021D01*
X103111135Y-100730151D01*
X103126967Y-100738855D01*
X103149411Y-100751194D01*
X103149413Y-100751195D01*
X103149417Y-100751197D01*
X103168825Y-100756180D01*
X103187228Y-100762481D01*
X103205610Y-100770436D01*
X103205611Y-100770436D01*
X103205613Y-100770437D01*
X103248759Y-100777270D01*
X103260181Y-100779636D01*
X103302490Y-100790500D01*
X103322525Y-100790500D01*
X103341923Y-100792026D01*
X103361703Y-100795159D01*
X103361704Y-100795160D01*
X103361704Y-100795159D01*
X103361705Y-100795160D01*
X103405184Y-100791050D01*
X103416853Y-100790500D01*
X122428626Y-100790500D01*
X122495665Y-100810185D01*
X122541420Y-100862989D01*
X122551364Y-100932147D01*
X122522339Y-100995703D01*
X122520776Y-100997472D01*
X122457466Y-101067785D01*
X122362821Y-101231715D01*
X122362818Y-101231722D01*
X122304327Y-101411740D01*
X122304326Y-101411744D01*
X122296405Y-101487105D01*
X122286678Y-101579651D01*
X122260093Y-101644266D01*
X122251038Y-101654370D01*
X116577228Y-107328181D01*
X116515905Y-107361666D01*
X116489547Y-107364500D01*
X114244188Y-107364500D01*
X114177149Y-107344815D01*
X114142613Y-107311623D01*
X114030045Y-107150858D01*
X113869141Y-106989954D01*
X113682734Y-106859432D01*
X113682732Y-106859431D01*
X113476497Y-106763261D01*
X113476488Y-106763258D01*
X113256697Y-106704366D01*
X113256693Y-106704365D01*
X113256692Y-106704365D01*
X113256691Y-106704364D01*
X113256686Y-106704364D01*
X113030002Y-106684532D01*
X113029998Y-106684532D01*
X112803313Y-106704364D01*
X112803302Y-106704366D01*
X112583511Y-106763258D01*
X112583502Y-106763261D01*
X112377267Y-106859431D01*
X112377265Y-106859432D01*
X112190858Y-106989954D01*
X112029954Y-107150858D01*
X111899432Y-107337265D01*
X111899431Y-107337267D01*
X111803261Y-107543502D01*
X111803258Y-107543511D01*
X111744366Y-107763302D01*
X111744364Y-107763313D01*
X111724532Y-107989998D01*
X111724532Y-107990001D01*
X111744364Y-108216686D01*
X111744366Y-108216697D01*
X111803258Y-108436488D01*
X111803261Y-108436497D01*
X111899431Y-108642732D01*
X111899432Y-108642734D01*
X112029954Y-108829141D01*
X112190858Y-108990045D01*
X112190861Y-108990047D01*
X112377266Y-109120568D01*
X112583504Y-109216739D01*
X112803308Y-109275635D01*
X112965230Y-109289801D01*
X113029998Y-109295468D01*
X113030000Y-109295468D01*
X113030002Y-109295468D01*
X113086673Y-109290509D01*
X113256692Y-109275635D01*
X113476496Y-109216739D01*
X113682734Y-109120568D01*
X113869139Y-108990047D01*
X114030047Y-108829139D01*
X114132560Y-108682734D01*
X114142613Y-108668377D01*
X114197189Y-108624752D01*
X114244188Y-108615500D01*
X116717257Y-108615500D01*
X116732877Y-108617224D01*
X116732904Y-108616939D01*
X116740660Y-108617671D01*
X116740667Y-108617673D01*
X116807873Y-108615561D01*
X116811768Y-108615500D01*
X116839346Y-108615500D01*
X116839350Y-108615500D01*
X116843324Y-108614997D01*
X116854963Y-108614080D01*
X116898627Y-108612709D01*
X116917869Y-108607117D01*
X116936912Y-108603174D01*
X116956792Y-108600664D01*
X116997401Y-108584585D01*
X117008444Y-108580803D01*
X117050390Y-108568618D01*
X117067629Y-108558422D01*
X117085103Y-108549862D01*
X117103727Y-108542488D01*
X117103727Y-108542487D01*
X117103732Y-108542486D01*
X117139083Y-108516800D01*
X117148814Y-108510408D01*
X117186420Y-108488170D01*
X117200589Y-108473999D01*
X117215379Y-108461368D01*
X117231587Y-108449594D01*
X117259438Y-108415926D01*
X117267279Y-108407309D01*
X117874853Y-107799735D01*
X117936174Y-107766252D01*
X118005866Y-107771236D01*
X118061799Y-107813108D01*
X118086216Y-107878572D01*
X118086060Y-107898225D01*
X118074532Y-108029997D01*
X118074532Y-108030001D01*
X118094364Y-108256686D01*
X118094366Y-108256697D01*
X118153258Y-108476488D01*
X118153261Y-108476497D01*
X118249431Y-108682732D01*
X118249432Y-108682734D01*
X118379954Y-108869141D01*
X118540858Y-109030045D01*
X118540861Y-109030047D01*
X118727266Y-109160568D01*
X118933504Y-109256739D01*
X119153308Y-109315635D01*
X119315230Y-109329801D01*
X119379998Y-109335468D01*
X119380000Y-109335468D01*
X119380002Y-109335468D01*
X119436673Y-109330509D01*
X119606692Y-109315635D01*
X119826496Y-109256739D01*
X120032734Y-109160568D01*
X120219139Y-109030047D01*
X120380047Y-108869139D01*
X120510568Y-108682734D01*
X120606739Y-108476496D01*
X120665635Y-108256692D01*
X120685468Y-108030000D01*
X120681968Y-107990000D01*
X120665635Y-107803313D01*
X120665635Y-107803308D01*
X120647318Y-107734947D01*
X120648981Y-107665101D01*
X120679410Y-107615178D01*
X123219871Y-105074718D01*
X123281192Y-105041235D01*
X123281770Y-105041111D01*
X123284645Y-105040500D01*
X123284646Y-105040500D01*
X123469803Y-105001144D01*
X123642730Y-104924151D01*
X123795871Y-104812888D01*
X123922533Y-104672216D01*
X124017179Y-104508284D01*
X124075674Y-104328256D01*
X124095460Y-104140000D01*
X124075674Y-103951744D01*
X124017179Y-103771716D01*
X123922533Y-103607784D01*
X123795871Y-103467112D01*
X123795870Y-103467111D01*
X123642734Y-103355851D01*
X123642729Y-103355848D01*
X123469807Y-103278857D01*
X123469802Y-103278855D01*
X123324001Y-103247865D01*
X123284646Y-103239500D01*
X123095354Y-103239500D01*
X123062897Y-103246398D01*
X122910197Y-103278855D01*
X122910192Y-103278857D01*
X122737270Y-103355848D01*
X122737265Y-103355851D01*
X122584129Y-103467111D01*
X122457466Y-103607785D01*
X122362821Y-103771715D01*
X122362818Y-103771722D01*
X122320976Y-103900500D01*
X122304326Y-103951744D01*
X122299195Y-104000567D01*
X122284540Y-104140000D01*
X122287951Y-104172456D01*
X122275381Y-104241186D01*
X122252311Y-104273097D01*
X119794821Y-106730586D01*
X119733498Y-106764071D01*
X119675048Y-106762680D01*
X119606697Y-106744366D01*
X119606693Y-106744365D01*
X119606692Y-106744365D01*
X119470880Y-106732483D01*
X119380001Y-106724532D01*
X119379998Y-106724532D01*
X119248225Y-106736060D01*
X119179725Y-106722293D01*
X119129542Y-106673678D01*
X119113609Y-106605649D01*
X119136985Y-106539805D01*
X119149730Y-106524858D01*
X123137771Y-102536819D01*
X123199094Y-102503334D01*
X123225452Y-102500500D01*
X123284644Y-102500500D01*
X123284646Y-102500500D01*
X123469803Y-102461144D01*
X123642730Y-102384151D01*
X123795871Y-102272888D01*
X123922533Y-102132216D01*
X124017179Y-101968284D01*
X124019487Y-101961181D01*
X124058925Y-101903506D01*
X124123284Y-101876308D01*
X124137418Y-101875500D01*
X126120500Y-101875500D01*
X126187539Y-101895185D01*
X126233294Y-101947989D01*
X126244500Y-101999500D01*
X126244500Y-103372870D01*
X126244501Y-103372876D01*
X126250908Y-103432483D01*
X126301202Y-103567327D01*
X126301204Y-103567331D01*
X126332224Y-103608768D01*
X126356642Y-103674232D01*
X126356952Y-103681822D01*
X126367452Y-104717875D01*
X126348447Y-104785111D01*
X126335609Y-104802103D01*
X126267468Y-104877782D01*
X126267464Y-104877787D01*
X126172821Y-105041715D01*
X126172818Y-105041722D01*
X126114327Y-105221740D01*
X126114326Y-105221744D01*
X126094540Y-105410000D01*
X126114326Y-105598256D01*
X126114327Y-105598259D01*
X126172818Y-105778277D01*
X126172821Y-105778284D01*
X126267467Y-105942216D01*
X126370405Y-106056540D01*
X126394129Y-106082888D01*
X126547265Y-106194148D01*
X126547270Y-106194151D01*
X126720192Y-106271142D01*
X126720197Y-106271144D01*
X126905354Y-106310500D01*
X126905355Y-106310500D01*
X127094644Y-106310500D01*
X127094646Y-106310500D01*
X127279803Y-106271144D01*
X127452730Y-106194151D01*
X127605871Y-106082888D01*
X127732533Y-105942216D01*
X127827179Y-105778284D01*
X127885674Y-105598256D01*
X127905460Y-105410000D01*
X127885674Y-105221744D01*
X127827179Y-105041716D01*
X127732533Y-104877784D01*
X127650226Y-104786373D01*
X127619996Y-104723382D01*
X127618383Y-104704669D01*
X127610742Y-103950754D01*
X127629747Y-103883520D01*
X127682084Y-103837232D01*
X127734736Y-103825499D01*
X127892872Y-103825499D01*
X127892885Y-103825498D01*
X127931744Y-103821320D01*
X127958252Y-103821320D01*
X127997127Y-103825500D01*
X128542872Y-103825499D01*
X128542873Y-103825498D01*
X128542885Y-103825498D01*
X128581744Y-103821320D01*
X128608252Y-103821320D01*
X128647127Y-103825500D01*
X129192872Y-103825499D01*
X129192873Y-103825498D01*
X129192885Y-103825498D01*
X129231744Y-103821320D01*
X129258252Y-103821320D01*
X129297127Y-103825500D01*
X129842872Y-103825499D01*
X129842873Y-103825498D01*
X129842885Y-103825498D01*
X129881744Y-103821320D01*
X129908252Y-103821320D01*
X129947127Y-103825500D01*
X130492872Y-103825499D01*
X130501711Y-103824548D01*
X130534094Y-103821068D01*
X130560606Y-103821068D01*
X130597166Y-103824999D01*
X130597182Y-103825000D01*
X130645000Y-103825000D01*
X130660611Y-103809388D01*
X130664685Y-103795515D01*
X130694689Y-103763288D01*
X130767022Y-103709139D01*
X130795689Y-103687678D01*
X130861153Y-103663261D01*
X130929426Y-103678112D01*
X130944309Y-103687678D01*
X130972978Y-103709139D01*
X131045311Y-103763288D01*
X131081110Y-103811110D01*
X131095000Y-103825000D01*
X131142819Y-103825000D01*
X131142833Y-103824999D01*
X131179395Y-103821068D01*
X131205905Y-103821068D01*
X131247127Y-103825500D01*
X131792872Y-103825499D01*
X131792873Y-103825498D01*
X131792885Y-103825498D01*
X131831744Y-103821320D01*
X131858252Y-103821320D01*
X131897127Y-103825500D01*
X132442872Y-103825499D01*
X132442873Y-103825498D01*
X132442885Y-103825498D01*
X132481744Y-103821320D01*
X132508252Y-103821320D01*
X132547127Y-103825500D01*
X133092872Y-103825499D01*
X133092873Y-103825498D01*
X133092885Y-103825498D01*
X133131744Y-103821320D01*
X133158252Y-103821320D01*
X133197127Y-103825500D01*
X133742872Y-103825499D01*
X133742873Y-103825498D01*
X133742885Y-103825498D01*
X133781744Y-103821320D01*
X133808252Y-103821320D01*
X133847127Y-103825500D01*
X134020500Y-103825499D01*
X134087539Y-103845183D01*
X134133294Y-103897987D01*
X134144500Y-103949499D01*
X134144500Y-105477255D01*
X134142775Y-105492872D01*
X134143061Y-105492899D01*
X134142326Y-105500665D01*
X134144439Y-105567872D01*
X134144500Y-105571767D01*
X134144500Y-105599357D01*
X134145003Y-105603335D01*
X134145918Y-105614967D01*
X134147290Y-105658624D01*
X134147291Y-105658627D01*
X134152880Y-105677867D01*
X134156824Y-105696911D01*
X134159336Y-105716792D01*
X134175414Y-105757403D01*
X134179197Y-105768452D01*
X134191381Y-105810388D01*
X134201580Y-105827634D01*
X134210138Y-105845103D01*
X134217514Y-105863732D01*
X134243181Y-105899060D01*
X134249593Y-105908821D01*
X134271828Y-105946417D01*
X134271833Y-105946424D01*
X134285990Y-105960580D01*
X134298628Y-105975376D01*
X134310405Y-105991586D01*
X134310406Y-105991587D01*
X134344057Y-106019425D01*
X134352698Y-106027288D01*
X134844194Y-106518784D01*
X134854019Y-106531048D01*
X134854240Y-106530866D01*
X134859210Y-106536874D01*
X134908239Y-106582915D01*
X134911036Y-106585626D01*
X134930529Y-106605119D01*
X134933696Y-106607576D01*
X134942575Y-106615160D01*
X134974415Y-106645060D01*
X134974417Y-106645061D01*
X134974418Y-106645062D01*
X134991976Y-106654714D01*
X135008235Y-106665395D01*
X135024064Y-106677673D01*
X135064147Y-106695018D01*
X135074634Y-106700156D01*
X135112904Y-106721195D01*
X135112908Y-106721197D01*
X135112912Y-106721198D01*
X135132311Y-106726179D01*
X135150722Y-106732483D01*
X135169097Y-106740435D01*
X135169100Y-106740435D01*
X135169105Y-106740438D01*
X135212254Y-106747271D01*
X135223680Y-106749638D01*
X135265981Y-106760500D01*
X135286016Y-106760500D01*
X135305413Y-106762026D01*
X135325196Y-106765160D01*
X135368675Y-106761050D01*
X135380344Y-106760500D01*
X145242257Y-106760500D01*
X145257877Y-106762224D01*
X145257904Y-106761939D01*
X145265660Y-106762671D01*
X145265667Y-106762673D01*
X145332873Y-106760561D01*
X145336768Y-106760500D01*
X145364346Y-106760500D01*
X145364350Y-106760500D01*
X145368324Y-106759997D01*
X145379963Y-106759080D01*
X145423627Y-106757709D01*
X145442869Y-106752117D01*
X145461912Y-106748174D01*
X145481792Y-106745664D01*
X145522401Y-106729585D01*
X145533444Y-106725803D01*
X145575390Y-106713618D01*
X145592629Y-106703422D01*
X145610103Y-106694862D01*
X145628727Y-106687488D01*
X145628727Y-106687487D01*
X145628732Y-106687486D01*
X145664083Y-106661800D01*
X145673814Y-106655408D01*
X145711420Y-106633170D01*
X145725589Y-106618999D01*
X145740379Y-106606368D01*
X145756587Y-106594594D01*
X145784438Y-106560926D01*
X145792279Y-106552309D01*
X147558787Y-104785801D01*
X147571042Y-104775986D01*
X147570859Y-104775764D01*
X147576868Y-104770791D01*
X147576877Y-104770786D01*
X147622949Y-104721722D01*
X147625566Y-104719023D01*
X147645120Y-104699471D01*
X147647576Y-104696303D01*
X147655156Y-104687427D01*
X147685062Y-104655582D01*
X147694713Y-104638024D01*
X147705396Y-104621761D01*
X147717673Y-104605936D01*
X147735021Y-104565844D01*
X147740151Y-104555371D01*
X147761197Y-104517092D01*
X147766180Y-104497680D01*
X147772481Y-104479280D01*
X147780437Y-104460896D01*
X147787270Y-104417748D01*
X147789633Y-104406338D01*
X147800500Y-104364019D01*
X147800500Y-104343983D01*
X147802027Y-104324582D01*
X147805160Y-104304804D01*
X147801050Y-104261324D01*
X147800500Y-104249655D01*
X147800500Y-101537737D01*
X147802224Y-101522123D01*
X147801938Y-101522096D01*
X147802672Y-101514333D01*
X147800561Y-101447144D01*
X147800500Y-101443250D01*
X147800500Y-101415651D01*
X147800500Y-101415650D01*
X147799997Y-101411670D01*
X147799080Y-101400021D01*
X147797709Y-101356373D01*
X147792122Y-101337144D01*
X147788174Y-101318084D01*
X147785664Y-101298208D01*
X147769585Y-101257597D01*
X147765804Y-101246552D01*
X147753619Y-101204612D01*
X147743418Y-101187363D01*
X147734860Y-101169894D01*
X147727486Y-101151268D01*
X147727483Y-101151264D01*
X147727483Y-101151263D01*
X147701816Y-101115935D01*
X147695403Y-101106172D01*
X147673172Y-101068583D01*
X147673170Y-101068579D01*
X147673166Y-101068575D01*
X147673163Y-101068571D01*
X147659005Y-101054413D01*
X147646370Y-101039620D01*
X147634593Y-101023412D01*
X147600945Y-100995576D01*
X147592304Y-100987713D01*
X147349413Y-100744822D01*
X147315928Y-100683499D01*
X147317319Y-100625048D01*
X147322447Y-100605909D01*
X147335635Y-100556692D01*
X147355468Y-100330000D01*
X147335635Y-100103308D01*
X147276739Y-99883504D01*
X147180568Y-99677266D01*
X147057583Y-99501623D01*
X147050045Y-99490858D01*
X146889141Y-99329954D01*
X146702734Y-99199432D01*
X146702728Y-99199429D01*
X146644725Y-99172382D01*
X146592285Y-99126210D01*
X146573133Y-99059017D01*
X146593348Y-98992135D01*
X146644725Y-98947618D01*
X146702734Y-98920568D01*
X146889139Y-98790047D01*
X147050047Y-98629139D01*
X147180568Y-98442734D01*
X147180572Y-98442725D01*
X147183276Y-98438043D01*
X147185564Y-98439364D01*
X147224197Y-98395159D01*
X147291319Y-98375758D01*
X147358275Y-98395726D01*
X147378476Y-98412076D01*
X148410188Y-99443788D01*
X148420013Y-99456051D01*
X148420234Y-99455869D01*
X148425202Y-99461874D01*
X148425204Y-99461876D01*
X148425205Y-99461877D01*
X148466276Y-99500446D01*
X148474213Y-99507899D01*
X148477012Y-99510612D01*
X148496513Y-99530114D01*
X148496517Y-99530117D01*
X148496520Y-99530120D01*
X148499693Y-99532581D01*
X148508565Y-99540159D01*
X148540409Y-99570062D01*
X148557967Y-99579714D01*
X148574226Y-99590395D01*
X148590055Y-99602673D01*
X148630146Y-99620021D01*
X148640617Y-99625151D01*
X148663171Y-99637550D01*
X148678893Y-99646194D01*
X148678895Y-99646195D01*
X148678899Y-99646197D01*
X148698307Y-99651180D01*
X148716710Y-99657481D01*
X148735092Y-99665436D01*
X148735093Y-99665436D01*
X148735095Y-99665437D01*
X148778241Y-99672270D01*
X148789663Y-99674636D01*
X148831972Y-99685500D01*
X148852007Y-99685500D01*
X148871405Y-99687026D01*
X148891185Y-99690159D01*
X148891186Y-99690160D01*
X148891186Y-99690159D01*
X148891187Y-99690160D01*
X148934666Y-99686050D01*
X148946335Y-99685500D01*
X152340951Y-99685500D01*
X152407990Y-99705185D01*
X152453745Y-99757989D01*
X152463689Y-99827147D01*
X152453333Y-99861905D01*
X152443262Y-99883502D01*
X152443258Y-99883511D01*
X152384366Y-100103302D01*
X152384364Y-100103313D01*
X152364532Y-100329998D01*
X152364532Y-100330001D01*
X152384364Y-100556686D01*
X152384366Y-100556697D01*
X152443258Y-100776488D01*
X152443261Y-100776497D01*
X152539431Y-100982732D01*
X152539432Y-100982734D01*
X152669954Y-101169141D01*
X152830858Y-101330045D01*
X152830861Y-101330047D01*
X153017266Y-101460568D01*
X153075865Y-101487893D01*
X153128305Y-101534065D01*
X153147457Y-101601258D01*
X153127242Y-101668139D01*
X153075867Y-101712657D01*
X153017515Y-101739867D01*
X152831179Y-101870342D01*
X152670342Y-102031179D01*
X152539865Y-102217517D01*
X152443734Y-102423673D01*
X152443730Y-102423682D01*
X152391127Y-102619999D01*
X152391128Y-102620000D01*
X153354314Y-102620000D01*
X153342359Y-102631955D01*
X153284835Y-102744852D01*
X153265014Y-102870000D01*
X153284835Y-102995148D01*
X153342359Y-103108045D01*
X153354314Y-103120000D01*
X152391128Y-103120000D01*
X152443730Y-103316317D01*
X152443734Y-103316326D01*
X152539865Y-103522482D01*
X152670342Y-103708820D01*
X152831179Y-103869657D01*
X153017517Y-104000134D01*
X153223673Y-104096265D01*
X153223682Y-104096269D01*
X153419999Y-104148872D01*
X153420000Y-104148871D01*
X153420000Y-103185686D01*
X153431955Y-103197641D01*
X153544852Y-103255165D01*
X153638519Y-103270000D01*
X153701481Y-103270000D01*
X153795148Y-103255165D01*
X153908045Y-103197641D01*
X153920000Y-103185686D01*
X153920000Y-104148872D01*
X154116317Y-104096269D01*
X154116326Y-104096265D01*
X154322482Y-104000134D01*
X154508820Y-103869657D01*
X154669657Y-103708820D01*
X154800134Y-103522482D01*
X154896265Y-103316326D01*
X154896269Y-103316317D01*
X154948872Y-103120000D01*
X153985686Y-103120000D01*
X153997641Y-103108045D01*
X154055165Y-102995148D01*
X154074986Y-102870000D01*
X154055165Y-102744852D01*
X153997641Y-102631955D01*
X153985686Y-102620000D01*
X154973304Y-102620000D01*
X154974158Y-102619376D01*
X155043904Y-102615219D01*
X155103792Y-102648383D01*
X155709197Y-103253788D01*
X155719022Y-103266051D01*
X155719243Y-103265869D01*
X155724211Y-103271874D01*
X155773222Y-103317899D01*
X155776021Y-103320612D01*
X155795522Y-103340114D01*
X155795526Y-103340117D01*
X155795529Y-103340120D01*
X155798702Y-103342581D01*
X155807574Y-103350159D01*
X155839418Y-103380062D01*
X155856976Y-103389714D01*
X155873235Y-103400395D01*
X155889064Y-103412673D01*
X155929155Y-103430021D01*
X155939626Y-103435151D01*
X155962180Y-103447550D01*
X155977902Y-103456194D01*
X155977904Y-103456195D01*
X155977908Y-103456197D01*
X155997316Y-103461180D01*
X156015719Y-103467481D01*
X156034101Y-103475436D01*
X156034102Y-103475436D01*
X156034104Y-103475437D01*
X156077250Y-103482270D01*
X156088672Y-103484636D01*
X156130981Y-103495500D01*
X156151016Y-103495500D01*
X156170414Y-103497026D01*
X156190194Y-103500159D01*
X156190195Y-103500160D01*
X156190195Y-103500159D01*
X156190196Y-103500160D01*
X156233675Y-103496050D01*
X156245344Y-103495500D01*
X161345812Y-103495500D01*
X161412851Y-103515185D01*
X161447387Y-103548377D01*
X161559954Y-103709141D01*
X161720858Y-103870045D01*
X161720861Y-103870047D01*
X161907266Y-104000568D01*
X162113504Y-104096739D01*
X162333308Y-104155635D01*
X162495230Y-104169801D01*
X162559998Y-104175468D01*
X162560000Y-104175468D01*
X162560002Y-104175468D01*
X162616673Y-104170509D01*
X162786692Y-104155635D01*
X163006496Y-104096739D01*
X163212734Y-104000568D01*
X163399139Y-103870047D01*
X163560047Y-103709139D01*
X163690568Y-103522734D01*
X163786739Y-103316496D01*
X163845635Y-103096692D01*
X163865468Y-102870000D01*
X163865281Y-102867867D01*
X163845635Y-102643313D01*
X163845635Y-102643308D01*
X163827318Y-102574947D01*
X163828981Y-102505101D01*
X163859410Y-102455178D01*
X172942771Y-93371819D01*
X173004094Y-93338334D01*
X173030452Y-93335500D01*
X174045812Y-93335500D01*
X174112851Y-93355185D01*
X174147387Y-93388377D01*
X174259954Y-93549141D01*
X174420858Y-93710045D01*
X174463509Y-93739909D01*
X174607266Y-93840568D01*
X174813504Y-93936739D01*
X175033308Y-93995635D01*
X175195230Y-94009801D01*
X175259998Y-94015468D01*
X175260000Y-94015468D01*
X175260002Y-94015468D01*
X175316673Y-94010509D01*
X175486692Y-93995635D01*
X175706496Y-93936739D01*
X175912734Y-93840568D01*
X176099139Y-93710047D01*
X176260047Y-93549139D01*
X176347672Y-93423996D01*
X176372613Y-93388377D01*
X176427189Y-93344752D01*
X176474188Y-93335500D01*
X177799548Y-93335500D01*
X177866587Y-93355185D01*
X177887229Y-93371819D01*
X182569084Y-98053674D01*
X182602569Y-98114997D01*
X182597585Y-98184689D01*
X182595964Y-98188807D01*
X182575426Y-98238388D01*
X182575426Y-98238389D01*
X182514778Y-98491009D01*
X182494396Y-98750000D01*
X182514778Y-99008990D01*
X182575427Y-99261610D01*
X182674843Y-99501623D01*
X182674845Y-99501627D01*
X182674846Y-99501628D01*
X182810588Y-99723140D01*
X182979311Y-99920689D01*
X183176860Y-100089412D01*
X183398372Y-100225154D01*
X183398374Y-100225154D01*
X183398376Y-100225156D01*
X183487035Y-100261879D01*
X183638390Y-100324573D01*
X183764826Y-100354927D01*
X183825415Y-100389717D01*
X183857579Y-100451743D01*
X183851103Y-100521312D01*
X183808044Y-100576336D01*
X183742071Y-100599345D01*
X183735876Y-100599500D01*
X182952129Y-100599500D01*
X182952123Y-100599501D01*
X182892516Y-100605908D01*
X182757671Y-100656202D01*
X182757664Y-100656206D01*
X182642455Y-100742452D01*
X182642452Y-100742455D01*
X182556206Y-100857664D01*
X182556202Y-100857671D01*
X182505908Y-100992517D01*
X182499996Y-101047511D01*
X182499501Y-101052123D01*
X182499500Y-101052135D01*
X182499500Y-101500500D01*
X182479815Y-101567539D01*
X182427011Y-101613294D01*
X182375500Y-101624500D01*
X179772743Y-101624500D01*
X179757122Y-101622775D01*
X179757095Y-101623061D01*
X179749333Y-101622326D01*
X179682113Y-101624439D01*
X179678219Y-101624500D01*
X179650650Y-101624500D01*
X179646673Y-101625002D01*
X179635042Y-101625917D01*
X179591374Y-101627289D01*
X179591368Y-101627290D01*
X179572126Y-101632880D01*
X179553087Y-101636823D01*
X179533217Y-101639334D01*
X179533203Y-101639337D01*
X179492598Y-101655413D01*
X179481554Y-101659194D01*
X179439614Y-101671379D01*
X179439610Y-101671381D01*
X179422366Y-101681579D01*
X179404905Y-101690133D01*
X179386274Y-101697510D01*
X179386262Y-101697517D01*
X179350933Y-101723185D01*
X179341173Y-101729596D01*
X179303580Y-101751829D01*
X179289414Y-101765995D01*
X179274624Y-101778627D01*
X179258414Y-101790404D01*
X179258411Y-101790407D01*
X179230573Y-101824058D01*
X179222711Y-101832697D01*
X174287340Y-106768068D01*
X174226017Y-106801553D01*
X174156325Y-106796569D01*
X174100392Y-106754697D01*
X174075975Y-106689233D01*
X174075659Y-106680387D01*
X174075659Y-106679999D01*
X174067165Y-106582915D01*
X174055063Y-106444592D01*
X173993903Y-106216337D01*
X173894035Y-106002171D01*
X173886624Y-105991586D01*
X173758494Y-105808597D01*
X173591402Y-105641506D01*
X173591401Y-105641505D01*
X173458093Y-105548161D01*
X173398376Y-105506347D01*
X173354751Y-105451770D01*
X173345500Y-105404772D01*
X173345500Y-104084188D01*
X173365185Y-104017149D01*
X173398377Y-103982613D01*
X173515647Y-103900500D01*
X173559139Y-103870047D01*
X173720047Y-103709139D01*
X173850568Y-103522734D01*
X173946739Y-103316496D01*
X174005635Y-103096692D01*
X174025468Y-102870000D01*
X174025281Y-102867867D01*
X174005635Y-102643313D01*
X174005635Y-102643308D01*
X173946739Y-102423504D01*
X173850568Y-102217266D01*
X173720047Y-102030861D01*
X173720045Y-102030858D01*
X173559141Y-101869954D01*
X173372734Y-101739432D01*
X173372732Y-101739431D01*
X173166497Y-101643261D01*
X173166488Y-101643258D01*
X172946697Y-101584366D01*
X172946693Y-101584365D01*
X172946692Y-101584365D01*
X172946691Y-101584364D01*
X172946686Y-101584364D01*
X172720002Y-101564532D01*
X172719998Y-101564532D01*
X172493313Y-101584364D01*
X172493302Y-101584366D01*
X172273511Y-101643258D01*
X172273502Y-101643261D01*
X172067267Y-101739431D01*
X172067265Y-101739432D01*
X171880858Y-101869954D01*
X171719954Y-102030858D01*
X171589432Y-102217265D01*
X171589431Y-102217267D01*
X171493261Y-102423502D01*
X171493258Y-102423511D01*
X171434366Y-102643302D01*
X171434364Y-102643313D01*
X171414532Y-102869998D01*
X171414532Y-102870001D01*
X171434364Y-103096686D01*
X171434366Y-103096697D01*
X171493258Y-103316488D01*
X171493261Y-103316497D01*
X171589431Y-103522732D01*
X171589432Y-103522734D01*
X171719954Y-103709141D01*
X171880858Y-103870045D01*
X172041623Y-103982613D01*
X172085248Y-104037189D01*
X172094500Y-104084188D01*
X172094500Y-105404773D01*
X172074815Y-105471812D01*
X172041623Y-105506348D01*
X171848597Y-105641505D01*
X171681505Y-105808597D01*
X171545965Y-106002169D01*
X171545964Y-106002171D01*
X171446098Y-106216335D01*
X171446094Y-106216344D01*
X171384938Y-106444586D01*
X171384936Y-106444596D01*
X171364341Y-106679999D01*
X171364341Y-106680000D01*
X171384936Y-106915403D01*
X171384938Y-106915413D01*
X171446094Y-107143655D01*
X171446096Y-107143659D01*
X171446097Y-107143663D01*
X171524418Y-107311623D01*
X171545965Y-107357830D01*
X171545967Y-107357834D01*
X171550635Y-107364500D01*
X171675980Y-107543511D01*
X171681501Y-107551395D01*
X171681506Y-107551402D01*
X171803430Y-107673326D01*
X171836915Y-107734649D01*
X171831931Y-107804341D01*
X171790059Y-107860274D01*
X171759083Y-107877189D01*
X171627669Y-107926203D01*
X171627664Y-107926206D01*
X171512455Y-108012452D01*
X171512452Y-108012455D01*
X171426206Y-108127664D01*
X171426202Y-108127671D01*
X171375908Y-108262517D01*
X171369501Y-108322116D01*
X171369500Y-108322135D01*
X171369500Y-108470500D01*
X171349815Y-108537539D01*
X171297011Y-108583294D01*
X171245500Y-108594500D01*
X166452737Y-108594500D01*
X166437120Y-108592776D01*
X166437093Y-108593062D01*
X166429331Y-108592327D01*
X166362144Y-108594439D01*
X166358250Y-108594500D01*
X166330650Y-108594500D01*
X166326962Y-108594965D01*
X166326649Y-108595005D01*
X166315031Y-108595918D01*
X166271372Y-108597290D01*
X166271369Y-108597291D01*
X166252126Y-108602881D01*
X166233083Y-108606825D01*
X166213204Y-108609336D01*
X166213203Y-108609337D01*
X166172593Y-108625415D01*
X166161548Y-108629197D01*
X166119608Y-108641383D01*
X166119604Y-108641385D01*
X166102365Y-108651580D01*
X166084898Y-108660137D01*
X166066269Y-108667512D01*
X166066267Y-108667514D01*
X166030926Y-108693189D01*
X166021168Y-108699599D01*
X165983580Y-108721828D01*
X165969408Y-108736000D01*
X165954623Y-108748628D01*
X165938412Y-108760407D01*
X165910571Y-108794059D01*
X165902711Y-108802696D01*
X164244821Y-110460586D01*
X164183498Y-110494071D01*
X164125048Y-110492680D01*
X164056697Y-110474366D01*
X164056693Y-110474365D01*
X164056692Y-110474365D01*
X163943346Y-110464448D01*
X163830001Y-110454532D01*
X163829998Y-110454532D01*
X163603313Y-110474364D01*
X163603302Y-110474366D01*
X163383511Y-110533258D01*
X163383502Y-110533261D01*
X163177267Y-110629431D01*
X163177265Y-110629432D01*
X162990858Y-110759954D01*
X162829954Y-110920858D01*
X162699432Y-111107265D01*
X162699431Y-111107267D01*
X162603261Y-111313502D01*
X162603258Y-111313511D01*
X162544366Y-111533302D01*
X162544364Y-111533313D01*
X162524532Y-111759998D01*
X162524532Y-111760001D01*
X162544364Y-111986686D01*
X162544366Y-111986697D01*
X162603258Y-112206488D01*
X162603261Y-112206497D01*
X162699431Y-112412732D01*
X162699432Y-112412734D01*
X162829954Y-112599141D01*
X162990858Y-112760045D01*
X163032016Y-112788864D01*
X163177266Y-112890568D01*
X163383504Y-112986739D01*
X163383509Y-112986740D01*
X163383511Y-112986741D01*
X163436415Y-113000916D01*
X163603308Y-113045635D01*
X163765230Y-113059801D01*
X163829998Y-113065468D01*
X163830000Y-113065468D01*
X163830002Y-113065468D01*
X163886673Y-113060509D01*
X164056692Y-113045635D01*
X164276496Y-112986739D01*
X164482734Y-112890568D01*
X164669139Y-112760047D01*
X164830047Y-112599139D01*
X164960568Y-112412734D01*
X165056739Y-112206496D01*
X165115635Y-111986692D01*
X165135468Y-111760000D01*
X165134143Y-111744860D01*
X165115635Y-111533313D01*
X165115635Y-111533308D01*
X165097318Y-111464948D01*
X165098981Y-111395103D01*
X165129410Y-111345179D01*
X166592772Y-109881819D01*
X166654095Y-109848334D01*
X166680453Y-109845500D01*
X171245501Y-109845500D01*
X171312540Y-109865185D01*
X171358295Y-109917989D01*
X171369501Y-109969500D01*
X171369501Y-110117876D01*
X171375908Y-110177483D01*
X171426202Y-110312328D01*
X171426206Y-110312335D01*
X171512452Y-110427544D01*
X171512455Y-110427547D01*
X171627664Y-110513793D01*
X171627671Y-110513797D01*
X171762517Y-110564091D01*
X171762516Y-110564091D01*
X171769444Y-110564835D01*
X171822127Y-110570500D01*
X173617872Y-110570499D01*
X173677483Y-110564091D01*
X173812331Y-110513796D01*
X173927546Y-110427546D01*
X174013796Y-110312331D01*
X174064091Y-110177483D01*
X174070500Y-110117873D01*
X174070499Y-108805450D01*
X174090184Y-108738412D01*
X174106813Y-108717775D01*
X179912771Y-102911819D01*
X179974094Y-102878334D01*
X180000452Y-102875500D01*
X182375501Y-102875500D01*
X182442540Y-102895185D01*
X182488295Y-102947989D01*
X182499501Y-102999500D01*
X182499501Y-103447876D01*
X182505908Y-103507483D01*
X182556202Y-103642328D01*
X182556206Y-103642335D01*
X182642452Y-103757544D01*
X182642455Y-103757547D01*
X182757664Y-103843793D01*
X182757671Y-103843797D01*
X182892517Y-103894091D01*
X182892516Y-103894091D01*
X182899444Y-103894835D01*
X182952127Y-103900500D01*
X185347872Y-103900499D01*
X185407483Y-103894091D01*
X185542331Y-103843796D01*
X185657546Y-103757546D01*
X185743796Y-103642331D01*
X185794091Y-103507483D01*
X185800500Y-103447873D01*
X185800499Y-101052128D01*
X185794624Y-100997472D01*
X185794091Y-100992516D01*
X185743797Y-100857671D01*
X185743793Y-100857664D01*
X185657547Y-100742455D01*
X185657544Y-100742452D01*
X185542335Y-100656206D01*
X185542328Y-100656202D01*
X185407482Y-100605908D01*
X185407483Y-100605908D01*
X185347883Y-100599501D01*
X185347881Y-100599500D01*
X185347873Y-100599500D01*
X185347865Y-100599500D01*
X184564125Y-100599500D01*
X184497086Y-100579815D01*
X184451331Y-100527011D01*
X184441387Y-100457853D01*
X184470412Y-100394297D01*
X184529190Y-100356523D01*
X184535149Y-100354933D01*
X184661610Y-100324573D01*
X184901628Y-100225154D01*
X185123140Y-100089412D01*
X185320689Y-99920689D01*
X185489412Y-99723140D01*
X185625154Y-99501628D01*
X185724573Y-99261610D01*
X185785221Y-99008994D01*
X185805604Y-98750000D01*
X185785221Y-98491006D01*
X185724573Y-98238390D01*
X185648061Y-98053674D01*
X185625156Y-97998376D01*
X185612828Y-97978259D01*
X185489412Y-97776860D01*
X185320689Y-97579311D01*
X185123140Y-97410588D01*
X184901628Y-97274846D01*
X184901627Y-97274845D01*
X184901623Y-97274843D01*
X184699030Y-97190927D01*
X184661610Y-97175427D01*
X184432056Y-97120315D01*
X184371466Y-97085525D01*
X184339302Y-97023498D01*
X184345778Y-96953930D01*
X184388838Y-96898906D01*
X184432059Y-96879168D01*
X184661442Y-96824099D01*
X184661462Y-96824093D01*
X184901397Y-96724709D01*
X184901400Y-96724707D01*
X185122844Y-96589005D01*
X185129644Y-96583197D01*
X184359220Y-95812773D01*
X184452588Y-95774099D01*
X184577925Y-95677925D01*
X184674099Y-95552589D01*
X184712773Y-95459220D01*
X185483197Y-96229644D01*
X185489005Y-96222844D01*
X185624707Y-96001400D01*
X185624709Y-96001397D01*
X185724093Y-95761462D01*
X185724098Y-95761445D01*
X185784725Y-95508912D01*
X185805101Y-95250000D01*
X185784725Y-94991087D01*
X185724098Y-94738554D01*
X185724093Y-94738537D01*
X185624709Y-94498602D01*
X185624707Y-94498599D01*
X185489007Y-94277157D01*
X185483197Y-94270354D01*
X184712772Y-95040779D01*
X184674099Y-94947412D01*
X184577925Y-94822075D01*
X184452588Y-94725901D01*
X184359220Y-94687227D01*
X185129645Y-93916801D01*
X185122843Y-93910993D01*
X185122842Y-93910992D01*
X184901400Y-93775292D01*
X184901397Y-93775290D01*
X184661462Y-93675906D01*
X184661445Y-93675901D01*
X184408911Y-93615274D01*
X184408912Y-93615274D01*
X184150000Y-93594898D01*
X183891087Y-93615274D01*
X183638554Y-93675901D01*
X183638537Y-93675906D01*
X183398602Y-93775290D01*
X183398599Y-93775292D01*
X183177155Y-93910993D01*
X183170353Y-93916800D01*
X183940779Y-94687226D01*
X183847412Y-94725901D01*
X183722075Y-94822075D01*
X183625901Y-94947411D01*
X183587226Y-95040779D01*
X182816800Y-94270353D01*
X182810993Y-94277155D01*
X182675292Y-94498599D01*
X182675290Y-94498602D01*
X182575906Y-94738537D01*
X182575901Y-94738554D01*
X182515274Y-94991087D01*
X182494898Y-95250000D01*
X182515274Y-95508912D01*
X182575901Y-95761445D01*
X182575906Y-95761462D01*
X182675290Y-96001397D01*
X182744015Y-96113546D01*
X182762259Y-96180991D01*
X182741142Y-96247594D01*
X182687370Y-96292207D01*
X182618015Y-96300667D01*
X182555095Y-96270287D01*
X182550606Y-96266016D01*
X181032579Y-94747989D01*
X178610803Y-92326212D01*
X178600980Y-92313950D01*
X178600759Y-92314134D01*
X178595786Y-92308122D01*
X178546776Y-92262099D01*
X178543977Y-92259386D01*
X178524477Y-92239885D01*
X178524471Y-92239880D01*
X178521286Y-92237409D01*
X178512434Y-92229848D01*
X178480582Y-92199938D01*
X178480580Y-92199936D01*
X178480577Y-92199935D01*
X178463029Y-92190288D01*
X178446763Y-92179604D01*
X178438026Y-92172827D01*
X178430936Y-92167327D01*
X178430935Y-92167326D01*
X178430932Y-92167324D01*
X178390849Y-92149978D01*
X178380363Y-92144841D01*
X178342094Y-92123803D01*
X178342092Y-92123802D01*
X178322693Y-92118822D01*
X178304281Y-92112518D01*
X178285898Y-92104562D01*
X178285892Y-92104560D01*
X178242760Y-92097729D01*
X178231322Y-92095361D01*
X178189020Y-92084500D01*
X178189019Y-92084500D01*
X178168984Y-92084500D01*
X178149586Y-92082973D01*
X178142162Y-92081797D01*
X178129805Y-92079840D01*
X178129804Y-92079840D01*
X178086325Y-92083950D01*
X178074656Y-92084500D01*
X176474188Y-92084500D01*
X176407149Y-92064815D01*
X176372613Y-92031623D01*
X176260045Y-91870858D01*
X176099141Y-91709954D01*
X175912734Y-91579432D01*
X175912732Y-91579431D01*
X175706497Y-91483261D01*
X175706488Y-91483258D01*
X175486697Y-91424366D01*
X175486693Y-91424365D01*
X175486692Y-91424365D01*
X175486691Y-91424364D01*
X175486686Y-91424364D01*
X175260002Y-91404532D01*
X175259998Y-91404532D01*
X175033313Y-91424364D01*
X175033302Y-91424366D01*
X174813511Y-91483258D01*
X174813502Y-91483261D01*
X174607267Y-91579431D01*
X174607265Y-91579432D01*
X174420858Y-91709954D01*
X174259954Y-91870858D01*
X174147387Y-92031623D01*
X174092811Y-92075248D01*
X174045812Y-92084500D01*
X172802743Y-92084500D01*
X172787122Y-92082775D01*
X172787096Y-92083061D01*
X172779334Y-92082327D01*
X172779333Y-92082327D01*
X172727688Y-92083950D01*
X172712127Y-92084439D01*
X172708232Y-92084500D01*
X172680647Y-92084500D01*
X172676661Y-92085003D01*
X172665033Y-92085918D01*
X172621373Y-92087290D01*
X172602129Y-92092881D01*
X172583079Y-92096825D01*
X172563211Y-92099334D01*
X172563210Y-92099334D01*
X172522599Y-92115413D01*
X172511554Y-92119194D01*
X172469614Y-92131379D01*
X172469610Y-92131381D01*
X172452366Y-92141579D01*
X172434905Y-92150133D01*
X172416274Y-92157510D01*
X172416262Y-92157517D01*
X172380933Y-92183185D01*
X172371173Y-92189596D01*
X172333580Y-92211829D01*
X172319414Y-92225995D01*
X172304624Y-92238627D01*
X172288414Y-92250404D01*
X172288411Y-92250407D01*
X172260573Y-92284058D01*
X172252711Y-92292697D01*
X171692818Y-92852590D01*
X171631495Y-92886075D01*
X171561803Y-92881091D01*
X171505870Y-92839219D01*
X171481453Y-92773755D01*
X171481608Y-92754109D01*
X171485468Y-92710000D01*
X171465635Y-92483308D01*
X171408074Y-92268486D01*
X171406741Y-92263511D01*
X171406738Y-92263502D01*
X171406084Y-92262099D01*
X171310568Y-92057266D01*
X171180047Y-91870861D01*
X171180045Y-91870858D01*
X171019141Y-91709954D01*
X170832734Y-91579432D01*
X170832732Y-91579431D01*
X170626497Y-91483261D01*
X170626488Y-91483258D01*
X170406697Y-91424366D01*
X170406693Y-91424365D01*
X170406692Y-91424365D01*
X170406691Y-91424364D01*
X170406686Y-91424364D01*
X170180002Y-91404532D01*
X170179998Y-91404532D01*
X169953313Y-91424364D01*
X169953302Y-91424366D01*
X169733511Y-91483258D01*
X169733502Y-91483261D01*
X169527267Y-91579431D01*
X169527265Y-91579432D01*
X169340858Y-91709954D01*
X169179954Y-91870858D01*
X169049432Y-92057265D01*
X169049431Y-92057267D01*
X168953261Y-92263502D01*
X168953258Y-92263511D01*
X168894366Y-92483302D01*
X168894364Y-92483313D01*
X168874532Y-92709998D01*
X168874532Y-92710001D01*
X168894364Y-92936686D01*
X168894366Y-92936697D01*
X168953258Y-93156488D01*
X168953261Y-93156497D01*
X169049431Y-93362732D01*
X169049432Y-93362734D01*
X169179954Y-93549141D01*
X169340858Y-93710045D01*
X169383509Y-93739909D01*
X169527266Y-93840568D01*
X169733504Y-93936739D01*
X169953308Y-93995635D01*
X170115230Y-94009801D01*
X170179998Y-94015468D01*
X170179999Y-94015468D01*
X170179999Y-94015467D01*
X170180000Y-94015468D01*
X170224102Y-94011609D01*
X170292600Y-94025375D01*
X170342784Y-94073989D01*
X170358718Y-94142018D01*
X170335344Y-94207862D01*
X170322590Y-94222818D01*
X162974821Y-101570586D01*
X162913498Y-101604071D01*
X162855048Y-101602680D01*
X162786697Y-101584366D01*
X162786693Y-101584365D01*
X162786692Y-101584365D01*
X162673346Y-101574448D01*
X162560001Y-101564532D01*
X162559998Y-101564532D01*
X162333313Y-101584364D01*
X162333302Y-101584366D01*
X162113511Y-101643258D01*
X162113502Y-101643261D01*
X161907267Y-101739431D01*
X161907265Y-101739432D01*
X161720858Y-101869954D01*
X161559954Y-102030858D01*
X161447387Y-102191623D01*
X161392811Y-102235248D01*
X161345812Y-102244500D01*
X156520453Y-102244500D01*
X156453414Y-102224815D01*
X156432772Y-102208181D01*
X154969413Y-100744822D01*
X154935928Y-100683499D01*
X154937319Y-100625048D01*
X154942447Y-100605909D01*
X154955635Y-100556692D01*
X154975468Y-100330000D01*
X154955635Y-100103308D01*
X154896739Y-99883504D01*
X154877790Y-99842869D01*
X154867299Y-99773794D01*
X154895818Y-99710010D01*
X154951049Y-99673892D01*
X154950908Y-99673536D01*
X154952647Y-99672847D01*
X154954295Y-99671770D01*
X154957937Y-99670752D01*
X154958157Y-99670664D01*
X154958162Y-99670664D01*
X154998771Y-99654585D01*
X155009814Y-99650803D01*
X155051760Y-99638618D01*
X155068999Y-99628422D01*
X155086473Y-99619862D01*
X155105097Y-99612488D01*
X155105097Y-99612487D01*
X155105102Y-99612486D01*
X155140453Y-99586800D01*
X155150184Y-99580408D01*
X155187790Y-99558170D01*
X155201959Y-99543999D01*
X155216749Y-99531368D01*
X155232957Y-99519594D01*
X155260808Y-99485926D01*
X155268649Y-99477309D01*
X160403788Y-94342171D01*
X160416042Y-94332356D01*
X160415859Y-94332134D01*
X160421868Y-94327161D01*
X160421877Y-94327156D01*
X160467949Y-94278092D01*
X160470566Y-94275393D01*
X160490120Y-94255841D01*
X160492576Y-94252673D01*
X160500156Y-94243797D01*
X160530062Y-94211952D01*
X160539713Y-94194394D01*
X160550396Y-94178131D01*
X160562673Y-94162306D01*
X160580021Y-94122214D01*
X160585151Y-94111741D01*
X160606197Y-94073462D01*
X160611180Y-94054050D01*
X160617481Y-94035650D01*
X160625437Y-94017266D01*
X160632270Y-93974118D01*
X160634633Y-93962708D01*
X160645500Y-93920389D01*
X160645500Y-93920380D01*
X160646478Y-93912646D01*
X160648802Y-93912939D01*
X160665185Y-93857148D01*
X160698374Y-93822614D01*
X160859139Y-93710047D01*
X161020047Y-93549139D01*
X161150568Y-93362734D01*
X161246739Y-93156496D01*
X161305635Y-92936692D01*
X161325281Y-92712137D01*
X161325468Y-92710001D01*
X161325468Y-92709998D01*
X161319650Y-92643501D01*
X161305635Y-92483308D01*
X161248074Y-92268486D01*
X161246741Y-92263511D01*
X161246740Y-92263510D01*
X161246739Y-92263504D01*
X161236666Y-92241904D01*
X161226175Y-92172827D01*
X161254695Y-92109043D01*
X161313171Y-92070804D01*
X161349049Y-92065500D01*
X163519548Y-92065500D01*
X163586587Y-92085185D01*
X163607229Y-92101819D01*
X163800586Y-92295177D01*
X163834071Y-92356500D01*
X163832680Y-92414949D01*
X163814367Y-92483296D01*
X163814364Y-92483313D01*
X163794532Y-92709999D01*
X163794532Y-92710001D01*
X163814364Y-92936686D01*
X163814366Y-92936697D01*
X163873258Y-93156488D01*
X163873261Y-93156497D01*
X163969431Y-93362732D01*
X163969432Y-93362734D01*
X164099954Y-93549141D01*
X164260858Y-93710045D01*
X164303509Y-93739909D01*
X164447266Y-93840568D01*
X164653504Y-93936739D01*
X164873308Y-93995635D01*
X165035230Y-94009801D01*
X165099998Y-94015468D01*
X165100000Y-94015468D01*
X165100002Y-94015468D01*
X165156673Y-94010509D01*
X165326692Y-93995635D01*
X165546496Y-93936739D01*
X165752734Y-93840568D01*
X165939139Y-93710047D01*
X166100047Y-93549139D01*
X166230568Y-93362734D01*
X166326739Y-93156496D01*
X166385635Y-92936692D01*
X166405281Y-92712137D01*
X166405468Y-92710001D01*
X166405468Y-92709998D01*
X166399650Y-92643501D01*
X166385635Y-92483308D01*
X166328074Y-92268486D01*
X166326741Y-92263511D01*
X166326738Y-92263502D01*
X166326084Y-92262099D01*
X166230568Y-92057266D01*
X166100047Y-91870861D01*
X166100045Y-91870858D01*
X165939141Y-91709954D01*
X165752734Y-91579432D01*
X165752732Y-91579431D01*
X165546497Y-91483261D01*
X165546488Y-91483258D01*
X165326697Y-91424366D01*
X165326693Y-91424365D01*
X165326692Y-91424365D01*
X165326691Y-91424364D01*
X165326686Y-91424364D01*
X165100002Y-91404532D01*
X165099999Y-91404532D01*
X164873313Y-91424364D01*
X164873296Y-91424367D01*
X164804949Y-91442680D01*
X164735099Y-91441016D01*
X164685177Y-91410586D01*
X164330803Y-91056212D01*
X164320980Y-91043950D01*
X164320759Y-91044134D01*
X164315786Y-91038122D01*
X164266776Y-90992099D01*
X164263977Y-90989386D01*
X164244477Y-90969885D01*
X164244471Y-90969880D01*
X164241286Y-90967409D01*
X164232434Y-90959848D01*
X164200582Y-90929938D01*
X164200580Y-90929936D01*
X164200577Y-90929935D01*
X164183029Y-90920288D01*
X164166763Y-90909604D01*
X164150932Y-90897324D01*
X164110849Y-90879978D01*
X164100363Y-90874841D01*
X164062094Y-90853803D01*
X164062092Y-90853802D01*
X164042693Y-90848822D01*
X164024281Y-90842518D01*
X164005898Y-90834562D01*
X164005892Y-90834560D01*
X163962760Y-90827729D01*
X163951322Y-90825361D01*
X163909020Y-90814500D01*
X163909019Y-90814500D01*
X163888984Y-90814500D01*
X163869586Y-90812973D01*
X163862162Y-90811797D01*
X163849805Y-90809840D01*
X163849804Y-90809840D01*
X163806325Y-90813950D01*
X163794656Y-90814500D01*
X159781752Y-90814500D01*
X159766131Y-90812775D01*
X159766105Y-90813061D01*
X159758343Y-90812327D01*
X159758342Y-90812327D01*
X159706697Y-90813950D01*
X159691136Y-90814439D01*
X159687241Y-90814500D01*
X159659656Y-90814500D01*
X159655670Y-90815003D01*
X159644042Y-90815918D01*
X159600382Y-90817290D01*
X159581138Y-90822881D01*
X159562088Y-90826825D01*
X159542220Y-90829334D01*
X159542219Y-90829334D01*
X159501608Y-90845413D01*
X159490563Y-90849194D01*
X159448623Y-90861379D01*
X159448619Y-90861381D01*
X159431375Y-90871579D01*
X159413914Y-90880133D01*
X159395283Y-90887510D01*
X159395271Y-90887517D01*
X159359942Y-90913185D01*
X159350182Y-90919596D01*
X159312589Y-90941829D01*
X159298423Y-90955995D01*
X159283633Y-90968627D01*
X159267423Y-90980404D01*
X159267420Y-90980407D01*
X159239582Y-91014058D01*
X159231720Y-91022697D01*
X155165361Y-95089055D01*
X155104038Y-95122540D01*
X155034346Y-95117556D01*
X154978413Y-95075684D01*
X154957903Y-95028304D01*
X154957036Y-95028537D01*
X154896741Y-94803511D01*
X154896738Y-94803502D01*
X154853985Y-94711819D01*
X154800568Y-94597266D01*
X154670047Y-94410861D01*
X154670045Y-94410858D01*
X154509140Y-94249953D01*
X154348377Y-94137386D01*
X154304752Y-94082809D01*
X154295500Y-94035811D01*
X154295500Y-91384188D01*
X154315185Y-91317149D01*
X154348377Y-91282613D01*
X154396836Y-91248681D01*
X154509139Y-91170047D01*
X154670047Y-91009139D01*
X154800568Y-90822734D01*
X154896739Y-90616496D01*
X154955635Y-90396692D01*
X154975468Y-90170000D01*
X154955635Y-89943308D01*
X154896739Y-89723504D01*
X154800568Y-89517266D01*
X154670047Y-89330861D01*
X154670045Y-89330858D01*
X154509140Y-89169953D01*
X154348377Y-89057386D01*
X154304752Y-89002809D01*
X154295500Y-88955811D01*
X154295500Y-83764188D01*
X154315185Y-83697149D01*
X154348377Y-83662613D01*
X154396836Y-83628681D01*
X154509139Y-83550047D01*
X154670047Y-83389139D01*
X154782613Y-83228377D01*
X154837189Y-83184752D01*
X154884188Y-83175500D01*
X158805812Y-83175500D01*
X158872851Y-83195185D01*
X158907387Y-83228377D01*
X159019954Y-83389141D01*
X159180858Y-83550045D01*
X159180861Y-83550047D01*
X159367266Y-83680568D01*
X159573504Y-83776739D01*
X159793308Y-83835635D01*
X159955230Y-83849801D01*
X160019998Y-83855468D01*
X160020000Y-83855468D01*
X160020002Y-83855468D01*
X160076673Y-83850509D01*
X160246692Y-83835635D01*
X160466496Y-83776739D01*
X160672734Y-83680568D01*
X160859139Y-83550047D01*
X161020047Y-83389139D01*
X161132613Y-83228377D01*
X161187189Y-83184752D01*
X161234188Y-83175500D01*
X163885812Y-83175500D01*
X163952851Y-83195185D01*
X163987387Y-83228377D01*
X164099954Y-83389141D01*
X164260858Y-83550045D01*
X164260861Y-83550047D01*
X164447266Y-83680568D01*
X164653504Y-83776739D01*
X164873308Y-83835635D01*
X165035230Y-83849801D01*
X165099998Y-83855468D01*
X165100000Y-83855468D01*
X165100002Y-83855468D01*
X165156673Y-83850509D01*
X165326692Y-83835635D01*
X165546496Y-83776739D01*
X165752734Y-83680568D01*
X165939139Y-83550047D01*
X166100047Y-83389139D01*
X166212613Y-83228377D01*
X166267189Y-83184752D01*
X166314188Y-83175500D01*
X168965812Y-83175500D01*
X169032851Y-83195185D01*
X169067387Y-83228377D01*
X169179954Y-83389141D01*
X169340858Y-83550045D01*
X169340861Y-83550047D01*
X169527266Y-83680568D01*
X169733504Y-83776739D01*
X169953308Y-83835635D01*
X170115230Y-83849801D01*
X170179998Y-83855468D01*
X170180000Y-83855468D01*
X170180002Y-83855468D01*
X170236673Y-83850509D01*
X170406692Y-83835635D01*
X170626496Y-83776739D01*
X170832734Y-83680568D01*
X171019139Y-83550047D01*
X171180047Y-83389139D01*
X171292613Y-83228377D01*
X171347189Y-83184752D01*
X171394188Y-83175500D01*
X174045812Y-83175500D01*
X174112851Y-83195185D01*
X174147387Y-83228377D01*
X174259954Y-83389141D01*
X174420858Y-83550045D01*
X174420861Y-83550047D01*
X174607266Y-83680568D01*
X174813504Y-83776739D01*
X175033308Y-83835635D01*
X175195230Y-83849801D01*
X175259998Y-83855468D01*
X175260000Y-83855468D01*
X175260002Y-83855468D01*
X175316673Y-83850509D01*
X175486692Y-83835635D01*
X175706496Y-83776739D01*
X175912734Y-83680568D01*
X176099139Y-83550047D01*
X176260047Y-83389139D01*
X176390568Y-83202734D01*
X176486739Y-82996496D01*
X176545635Y-82776692D01*
X176565468Y-82550000D01*
X176545635Y-82323308D01*
X176486739Y-82103504D01*
X176390568Y-81897266D01*
X176260047Y-81710861D01*
X176260045Y-81710858D01*
X176099141Y-81549954D01*
X175912734Y-81419432D01*
X175912732Y-81419431D01*
X175706497Y-81323261D01*
X175706488Y-81323258D01*
X175486697Y-81264366D01*
X175486693Y-81264365D01*
X175486692Y-81264365D01*
X175486691Y-81264364D01*
X175486686Y-81264364D01*
X175260002Y-81244532D01*
X175259998Y-81244532D01*
X175033313Y-81264364D01*
X175033302Y-81264366D01*
X174813511Y-81323258D01*
X174813502Y-81323261D01*
X174607267Y-81419431D01*
X174607265Y-81419432D01*
X174420858Y-81549954D01*
X174259954Y-81710858D01*
X174147387Y-81871623D01*
X174092811Y-81915248D01*
X174045812Y-81924500D01*
X171394188Y-81924500D01*
X171327149Y-81904815D01*
X171292613Y-81871623D01*
X171180045Y-81710858D01*
X171019141Y-81549954D01*
X170832734Y-81419432D01*
X170832732Y-81419431D01*
X170626497Y-81323261D01*
X170626488Y-81323258D01*
X170406697Y-81264366D01*
X170406693Y-81264365D01*
X170406692Y-81264365D01*
X170406691Y-81264364D01*
X170406686Y-81264364D01*
X170180002Y-81244532D01*
X170179998Y-81244532D01*
X169953313Y-81264364D01*
X169953302Y-81264366D01*
X169733511Y-81323258D01*
X169733502Y-81323261D01*
X169527267Y-81419431D01*
X169527265Y-81419432D01*
X169340858Y-81549954D01*
X169179954Y-81710858D01*
X169067387Y-81871623D01*
X169012811Y-81915248D01*
X168965812Y-81924500D01*
X166314188Y-81924500D01*
X166247149Y-81904815D01*
X166212613Y-81871623D01*
X166100045Y-81710858D01*
X165939141Y-81549954D01*
X165752734Y-81419432D01*
X165752732Y-81419431D01*
X165546497Y-81323261D01*
X165546488Y-81323258D01*
X165326697Y-81264366D01*
X165326693Y-81264365D01*
X165326692Y-81264365D01*
X165326691Y-81264364D01*
X165326686Y-81264364D01*
X165100002Y-81244532D01*
X165099998Y-81244532D01*
X164873313Y-81264364D01*
X164873302Y-81264366D01*
X164653511Y-81323258D01*
X164653502Y-81323261D01*
X164447267Y-81419431D01*
X164447265Y-81419432D01*
X164260858Y-81549954D01*
X164099954Y-81710858D01*
X163987387Y-81871623D01*
X163932811Y-81915248D01*
X163885812Y-81924500D01*
X161234188Y-81924500D01*
X161167149Y-81904815D01*
X161132613Y-81871623D01*
X161020045Y-81710858D01*
X160859141Y-81549954D01*
X160672734Y-81419432D01*
X160672732Y-81419431D01*
X160466497Y-81323261D01*
X160466488Y-81323258D01*
X160246697Y-81264366D01*
X160246693Y-81264365D01*
X160246692Y-81264365D01*
X160246691Y-81264364D01*
X160246686Y-81264364D01*
X160020002Y-81244532D01*
X160019998Y-81244532D01*
X159793313Y-81264364D01*
X159793302Y-81264366D01*
X159573511Y-81323258D01*
X159573502Y-81323261D01*
X159367267Y-81419431D01*
X159367265Y-81419432D01*
X159180858Y-81549954D01*
X159019954Y-81710858D01*
X158907387Y-81871623D01*
X158852811Y-81915248D01*
X158805812Y-81924500D01*
X154884188Y-81924500D01*
X154817149Y-81904815D01*
X154782613Y-81871623D01*
X154670045Y-81710858D01*
X154509141Y-81549954D01*
X154322734Y-81419432D01*
X154322732Y-81419431D01*
X154116497Y-81323261D01*
X154116488Y-81323258D01*
X153896697Y-81264366D01*
X153896693Y-81264365D01*
X153896692Y-81264365D01*
X153896691Y-81264364D01*
X153896686Y-81264364D01*
X153670002Y-81244532D01*
X153669998Y-81244532D01*
X153443313Y-81264364D01*
X153443302Y-81264366D01*
X153223511Y-81323258D01*
X153223502Y-81323261D01*
X153017267Y-81419431D01*
X153017265Y-81419432D01*
X152830858Y-81549954D01*
X152669954Y-81710858D01*
X152539432Y-81897265D01*
X152539431Y-81897267D01*
X152443261Y-82103502D01*
X152443258Y-82103511D01*
X152384366Y-82323302D01*
X152384364Y-82323313D01*
X152364532Y-82549998D01*
X152364532Y-82550001D01*
X152384364Y-82776686D01*
X152384366Y-82776697D01*
X152443258Y-82996488D01*
X152443261Y-82996497D01*
X152539431Y-83202732D01*
X152539432Y-83202734D01*
X152669954Y-83389141D01*
X152830858Y-83550045D01*
X152991623Y-83662613D01*
X153035248Y-83717189D01*
X153044500Y-83764188D01*
X153044500Y-88955811D01*
X153024815Y-89022850D01*
X152991623Y-89057386D01*
X152830859Y-89169953D01*
X152669954Y-89330858D01*
X152539432Y-89517265D01*
X152539431Y-89517267D01*
X152443261Y-89723502D01*
X152443258Y-89723511D01*
X152384366Y-89943302D01*
X152384364Y-89943313D01*
X152364532Y-90169998D01*
X152364532Y-90170001D01*
X152384364Y-90396686D01*
X152384366Y-90396697D01*
X152443258Y-90616488D01*
X152443261Y-90616497D01*
X152539431Y-90822732D01*
X152539432Y-90822734D01*
X152669954Y-91009141D01*
X152830858Y-91170045D01*
X152991623Y-91282613D01*
X153035248Y-91337189D01*
X153044500Y-91384188D01*
X153044500Y-93444882D01*
X153024815Y-93511921D01*
X152972011Y-93557676D01*
X152902853Y-93567620D01*
X152848235Y-93542677D01*
X152846894Y-93544524D01*
X152840584Y-93539940D01*
X152840582Y-93539938D01*
X152823029Y-93530288D01*
X152806763Y-93519604D01*
X152796858Y-93511921D01*
X152790936Y-93507327D01*
X152790935Y-93507326D01*
X152790932Y-93507324D01*
X152750849Y-93489978D01*
X152740363Y-93484841D01*
X152702094Y-93463803D01*
X152702092Y-93463802D01*
X152682693Y-93458822D01*
X152664281Y-93452518D01*
X152645898Y-93444562D01*
X152645892Y-93444560D01*
X152602760Y-93437729D01*
X152591322Y-93435361D01*
X152549020Y-93424500D01*
X152549019Y-93424500D01*
X152528984Y-93424500D01*
X152509586Y-93422973D01*
X152502162Y-93421797D01*
X152489805Y-93419840D01*
X152489804Y-93419840D01*
X152446325Y-93423950D01*
X152434656Y-93424500D01*
X133002737Y-93424500D01*
X132987120Y-93422776D01*
X132987093Y-93423062D01*
X132979330Y-93422327D01*
X132926212Y-93423996D01*
X132858588Y-93406425D01*
X132811198Y-93355084D01*
X132799089Y-93286271D01*
X132814931Y-93238061D01*
X132907179Y-93078284D01*
X132965674Y-92898256D01*
X132985460Y-92710000D01*
X132965674Y-92521744D01*
X132907179Y-92341716D01*
X132812533Y-92177784D01*
X132685871Y-92037112D01*
X132664500Y-92021585D01*
X132532734Y-91925851D01*
X132532729Y-91925848D01*
X132359807Y-91848857D01*
X132359802Y-91848855D01*
X132210317Y-91817082D01*
X132174646Y-91809500D01*
X131985354Y-91809500D01*
X131952897Y-91816398D01*
X131800197Y-91848855D01*
X131800192Y-91848857D01*
X131669936Y-91906852D01*
X131600686Y-91916137D01*
X131537409Y-91886509D01*
X131500196Y-91827374D01*
X131495500Y-91793573D01*
X131495500Y-91690452D01*
X131515185Y-91623413D01*
X131531819Y-91602771D01*
X132302772Y-90831819D01*
X132364095Y-90798334D01*
X132390453Y-90795500D01*
X134365501Y-90795500D01*
X134432540Y-90815185D01*
X134478295Y-90867989D01*
X134489501Y-90919500D01*
X134489501Y-91117876D01*
X134495908Y-91177483D01*
X134546202Y-91312328D01*
X134546206Y-91312335D01*
X134632452Y-91427544D01*
X134632455Y-91427547D01*
X134747664Y-91513793D01*
X134747671Y-91513797D01*
X134882517Y-91564091D01*
X134882516Y-91564091D01*
X134889444Y-91564835D01*
X134942127Y-91570500D01*
X136837872Y-91570499D01*
X136897483Y-91564091D01*
X137032331Y-91513796D01*
X137147546Y-91427546D01*
X137233796Y-91312331D01*
X137262455Y-91235493D01*
X137304326Y-91179559D01*
X137369790Y-91155141D01*
X137438063Y-91169992D01*
X137469866Y-91194843D01*
X137477302Y-91202920D01*
X137478215Y-91203912D01*
X137478222Y-91203918D01*
X137661365Y-91346464D01*
X137661371Y-91346468D01*
X137661374Y-91346470D01*
X137865497Y-91456936D01*
X137942179Y-91483261D01*
X138085015Y-91532297D01*
X138085017Y-91532297D01*
X138085019Y-91532298D01*
X138313951Y-91570500D01*
X138313952Y-91570500D01*
X138546048Y-91570500D01*
X138546049Y-91570500D01*
X138774981Y-91532298D01*
X138994503Y-91456936D01*
X139198626Y-91346470D01*
X139210551Y-91337189D01*
X139290188Y-91275205D01*
X139381784Y-91203913D01*
X139538979Y-91033153D01*
X139584266Y-90963836D01*
X139657542Y-90851679D01*
X139710689Y-90806322D01*
X139761351Y-90795500D01*
X142295812Y-90795500D01*
X142362851Y-90815185D01*
X142397387Y-90848377D01*
X142509954Y-91009141D01*
X142670858Y-91170045D01*
X142670861Y-91170047D01*
X142857266Y-91300568D01*
X143063504Y-91396739D01*
X143283308Y-91455635D01*
X143445230Y-91469801D01*
X143509998Y-91475468D01*
X143510000Y-91475468D01*
X143510002Y-91475468D01*
X143566673Y-91470509D01*
X143736692Y-91455635D01*
X143956496Y-91396739D01*
X144162734Y-91300568D01*
X144349139Y-91170047D01*
X144510047Y-91009139D01*
X144640568Y-90822734D01*
X144736739Y-90616496D01*
X144795635Y-90396692D01*
X144815468Y-90170000D01*
X144795635Y-89943308D01*
X144736739Y-89723504D01*
X144640568Y-89517266D01*
X144510047Y-89330861D01*
X144510045Y-89330858D01*
X144349141Y-89169954D01*
X144162734Y-89039432D01*
X144162732Y-89039431D01*
X143956497Y-88943261D01*
X143956488Y-88943258D01*
X143736697Y-88884366D01*
X143736693Y-88884365D01*
X143736692Y-88884365D01*
X143736691Y-88884364D01*
X143736686Y-88884364D01*
X143510002Y-88864532D01*
X143509998Y-88864532D01*
X143283313Y-88884364D01*
X143283302Y-88884366D01*
X143063511Y-88943258D01*
X143063502Y-88943261D01*
X142857267Y-89039431D01*
X142857265Y-89039432D01*
X142670858Y-89169954D01*
X142509954Y-89330858D01*
X142397387Y-89491623D01*
X142342811Y-89535248D01*
X142295812Y-89544500D01*
X139761351Y-89544500D01*
X139694312Y-89524815D01*
X139657542Y-89488321D01*
X139538983Y-89306852D01*
X139538980Y-89306849D01*
X139538979Y-89306847D01*
X139381784Y-89136087D01*
X139381779Y-89136083D01*
X139381777Y-89136081D01*
X139198634Y-88993535D01*
X139198628Y-88993531D01*
X138994504Y-88883064D01*
X138994495Y-88883061D01*
X138774984Y-88807702D01*
X138584450Y-88775908D01*
X138546049Y-88769500D01*
X138313951Y-88769500D01*
X138275550Y-88775908D01*
X138085015Y-88807702D01*
X137865504Y-88883061D01*
X137865495Y-88883064D01*
X137661371Y-88993531D01*
X137661365Y-88993535D01*
X137478222Y-89136081D01*
X137478218Y-89136085D01*
X137469866Y-89145158D01*
X137409979Y-89181148D01*
X137340141Y-89179047D01*
X137282525Y-89139522D01*
X137262455Y-89104507D01*
X137233797Y-89027671D01*
X137233793Y-89027664D01*
X137147547Y-88912455D01*
X137147544Y-88912452D01*
X137032335Y-88826206D01*
X137032328Y-88826202D01*
X136897482Y-88775908D01*
X136897483Y-88775908D01*
X136837883Y-88769501D01*
X136837881Y-88769500D01*
X136837873Y-88769500D01*
X136837864Y-88769500D01*
X134942129Y-88769500D01*
X134942123Y-88769501D01*
X134882516Y-88775908D01*
X134747671Y-88826202D01*
X134747664Y-88826206D01*
X134632455Y-88912452D01*
X134632452Y-88912455D01*
X134546206Y-89027664D01*
X134546202Y-89027671D01*
X134495908Y-89162517D01*
X134489501Y-89222116D01*
X134489500Y-89222135D01*
X134489500Y-89420500D01*
X134469815Y-89487539D01*
X134417011Y-89533294D01*
X134365500Y-89544500D01*
X132162737Y-89544500D01*
X132147120Y-89542776D01*
X132147093Y-89543062D01*
X132139331Y-89542327D01*
X132072144Y-89544439D01*
X132068250Y-89544500D01*
X132040650Y-89544500D01*
X132036962Y-89544965D01*
X132036649Y-89545005D01*
X132025031Y-89545918D01*
X131981372Y-89547290D01*
X131981369Y-89547291D01*
X131962126Y-89552881D01*
X131943083Y-89556825D01*
X131923204Y-89559336D01*
X131923203Y-89559337D01*
X131882593Y-89575415D01*
X131871548Y-89579197D01*
X131829608Y-89591383D01*
X131829604Y-89591385D01*
X131812365Y-89601580D01*
X131794898Y-89610137D01*
X131776269Y-89617512D01*
X131776267Y-89617514D01*
X131740926Y-89643189D01*
X131731168Y-89649599D01*
X131693580Y-89671828D01*
X131679408Y-89686000D01*
X131664623Y-89698628D01*
X131648412Y-89710407D01*
X131620571Y-89744059D01*
X131612711Y-89752696D01*
X131057181Y-90308227D01*
X130995858Y-90341712D01*
X130926167Y-90336728D01*
X130870233Y-90294857D01*
X130845816Y-90229392D01*
X130845500Y-90220546D01*
X130845500Y-88530452D01*
X130865185Y-88463413D01*
X130881819Y-88442771D01*
X135337772Y-83986818D01*
X135399095Y-83953333D01*
X135425453Y-83950499D01*
X136837871Y-83950499D01*
X136837872Y-83950499D01*
X136897483Y-83944091D01*
X137032331Y-83893796D01*
X137147546Y-83807546D01*
X137233796Y-83692331D01*
X137262455Y-83615493D01*
X137304326Y-83559559D01*
X137369790Y-83535141D01*
X137438063Y-83549992D01*
X137469866Y-83574843D01*
X137477302Y-83582920D01*
X137478215Y-83583912D01*
X137478222Y-83583918D01*
X137661365Y-83726464D01*
X137661371Y-83726468D01*
X137661374Y-83726470D01*
X137865497Y-83836936D01*
X137919479Y-83855468D01*
X138085015Y-83912297D01*
X138085017Y-83912297D01*
X138085019Y-83912298D01*
X138313951Y-83950500D01*
X138313952Y-83950500D01*
X138546048Y-83950500D01*
X138546049Y-83950500D01*
X138774981Y-83912298D01*
X138994503Y-83836936D01*
X139198626Y-83726470D01*
X139210551Y-83717189D01*
X139280670Y-83662613D01*
X139381784Y-83583913D01*
X139538979Y-83413153D01*
X139657542Y-83231679D01*
X139710689Y-83186322D01*
X139761351Y-83175500D01*
X142295812Y-83175500D01*
X142362851Y-83195185D01*
X142397387Y-83228377D01*
X142509954Y-83389141D01*
X142670858Y-83550045D01*
X142670861Y-83550047D01*
X142857266Y-83680568D01*
X143063504Y-83776739D01*
X143283308Y-83835635D01*
X143445230Y-83849801D01*
X143509998Y-83855468D01*
X143510000Y-83855468D01*
X143510002Y-83855468D01*
X143566673Y-83850509D01*
X143736692Y-83835635D01*
X143956496Y-83776739D01*
X144162734Y-83680568D01*
X144349139Y-83550047D01*
X144510047Y-83389139D01*
X144640568Y-83202734D01*
X144736739Y-82996496D01*
X144795635Y-82776692D01*
X144815468Y-82550000D01*
X144795635Y-82323308D01*
X144736739Y-82103504D01*
X144640568Y-81897266D01*
X144510047Y-81710861D01*
X144510045Y-81710858D01*
X144349141Y-81549954D01*
X144162734Y-81419432D01*
X144162732Y-81419431D01*
X143956497Y-81323261D01*
X143956488Y-81323258D01*
X143736697Y-81264366D01*
X143736693Y-81264365D01*
X143736692Y-81264365D01*
X143736691Y-81264364D01*
X143736686Y-81264364D01*
X143510002Y-81244532D01*
X143509998Y-81244532D01*
X143283313Y-81264364D01*
X143283302Y-81264366D01*
X143063511Y-81323258D01*
X143063502Y-81323261D01*
X142857267Y-81419431D01*
X142857265Y-81419432D01*
X142670858Y-81549954D01*
X142509954Y-81710858D01*
X142397387Y-81871623D01*
X142342811Y-81915248D01*
X142295812Y-81924500D01*
X139761351Y-81924500D01*
X139694312Y-81904815D01*
X139657542Y-81868321D01*
X139538983Y-81686852D01*
X139538980Y-81686849D01*
X139538979Y-81686847D01*
X139381784Y-81516087D01*
X139381779Y-81516083D01*
X139381777Y-81516081D01*
X139198634Y-81373535D01*
X139198628Y-81373531D01*
X138994504Y-81263064D01*
X138994495Y-81263061D01*
X138774984Y-81187702D01*
X138584450Y-81155908D01*
X138546049Y-81149500D01*
X138313951Y-81149500D01*
X138275550Y-81155908D01*
X138085015Y-81187702D01*
X137865504Y-81263061D01*
X137865495Y-81263064D01*
X137661371Y-81373531D01*
X137661365Y-81373535D01*
X137478222Y-81516081D01*
X137478218Y-81516085D01*
X137469866Y-81525158D01*
X137409979Y-81561148D01*
X137340141Y-81559047D01*
X137282525Y-81519522D01*
X137262455Y-81484507D01*
X137233797Y-81407671D01*
X137233793Y-81407664D01*
X137147547Y-81292455D01*
X137147544Y-81292452D01*
X137032335Y-81206206D01*
X137032328Y-81206202D01*
X136897482Y-81155908D01*
X136897483Y-81155908D01*
X136837883Y-81149501D01*
X136837881Y-81149500D01*
X136837873Y-81149500D01*
X136837864Y-81149500D01*
X134942129Y-81149500D01*
X134942123Y-81149501D01*
X134882516Y-81155908D01*
X134747671Y-81206202D01*
X134747664Y-81206206D01*
X134632455Y-81292452D01*
X134632452Y-81292455D01*
X134546206Y-81407664D01*
X134546202Y-81407671D01*
X134495908Y-81542517D01*
X134489501Y-81602116D01*
X134489500Y-81602135D01*
X134489500Y-83014546D01*
X134469815Y-83081585D01*
X134453181Y-83102227D01*
X129836208Y-87719199D01*
X129823951Y-87729020D01*
X129824134Y-87729241D01*
X129818122Y-87734214D01*
X129772098Y-87783223D01*
X129769391Y-87786016D01*
X129749889Y-87805517D01*
X129749875Y-87805534D01*
X129747407Y-87808715D01*
X129739843Y-87817570D01*
X129709937Y-87849418D01*
X129709936Y-87849420D01*
X129700284Y-87866976D01*
X129689610Y-87883226D01*
X129677329Y-87899061D01*
X129677324Y-87899068D01*
X129659975Y-87939158D01*
X129654838Y-87949644D01*
X129633803Y-87987906D01*
X129628822Y-88007307D01*
X129622521Y-88025710D01*
X129614562Y-88044102D01*
X129614561Y-88044105D01*
X129607728Y-88087243D01*
X129605360Y-88098674D01*
X129594501Y-88140971D01*
X129594500Y-88140982D01*
X129594500Y-88161016D01*
X129592973Y-88180415D01*
X129589840Y-88200194D01*
X129589840Y-88200195D01*
X129593950Y-88243674D01*
X129594500Y-88255343D01*
X129594500Y-93750500D01*
X129574815Y-93817539D01*
X129522011Y-93863294D01*
X129470501Y-93874500D01*
X129297132Y-93874500D01*
X129297117Y-93874501D01*
X129255904Y-93878931D01*
X129229402Y-93878931D01*
X129192834Y-93875000D01*
X129145000Y-93875000D01*
X129129388Y-93890611D01*
X129125315Y-93904485D01*
X129095313Y-93936710D01*
X128995262Y-94011609D01*
X128994311Y-94012321D01*
X128928846Y-94036738D01*
X128860573Y-94021886D01*
X128845689Y-94012321D01*
X128844738Y-94011609D01*
X128744687Y-93936711D01*
X128708888Y-93888888D01*
X128695000Y-93875000D01*
X128647165Y-93875000D01*
X128610598Y-93878931D01*
X128584092Y-93878931D01*
X128542873Y-93874500D01*
X127997130Y-93874500D01*
X127997119Y-93874501D01*
X127958253Y-93878679D01*
X127931748Y-93878679D01*
X127892874Y-93874500D01*
X127347130Y-93874500D01*
X127347119Y-93874501D01*
X127308253Y-93878679D01*
X127281748Y-93878679D01*
X127242874Y-93874500D01*
X126697129Y-93874500D01*
X126697123Y-93874501D01*
X126637516Y-93880908D01*
X126502671Y-93931202D01*
X126502664Y-93931206D01*
X126387455Y-94017452D01*
X126387452Y-94017455D01*
X126301206Y-94132664D01*
X126301202Y-94132671D01*
X126250908Y-94267517D01*
X126244501Y-94327116D01*
X126244500Y-94327135D01*
X126244500Y-96172870D01*
X126244501Y-96172876D01*
X126250908Y-96232483D01*
X126301202Y-96367328D01*
X126301206Y-96367335D01*
X126387452Y-96482544D01*
X126387455Y-96482547D01*
X126502664Y-96568793D01*
X126502671Y-96568797D01*
X126541280Y-96583197D01*
X126637517Y-96619091D01*
X126697127Y-96625500D01*
X127242872Y-96625499D01*
X127242873Y-96625498D01*
X127242885Y-96625498D01*
X127281744Y-96621320D01*
X127308252Y-96621320D01*
X127347127Y-96625500D01*
X127892872Y-96625499D01*
X127892873Y-96625498D01*
X127892885Y-96625498D01*
X127931744Y-96621320D01*
X127958252Y-96621320D01*
X127997127Y-96625500D01*
X128542872Y-96625499D01*
X128551711Y-96624548D01*
X128584094Y-96621068D01*
X128610606Y-96621068D01*
X128647166Y-96624999D01*
X128647182Y-96625000D01*
X128695000Y-96625000D01*
X128710611Y-96609388D01*
X128714685Y-96595515D01*
X128744689Y-96563288D01*
X128845689Y-96487679D01*
X128911153Y-96463261D01*
X128979426Y-96478112D01*
X128994311Y-96487679D01*
X129095311Y-96563288D01*
X129131110Y-96611110D01*
X129145000Y-96625000D01*
X129192819Y-96625000D01*
X129192833Y-96624999D01*
X129229395Y-96621068D01*
X129255905Y-96621068D01*
X129297127Y-96625500D01*
X129842872Y-96625499D01*
X129842873Y-96625498D01*
X129842885Y-96625498D01*
X129881744Y-96621320D01*
X129908252Y-96621320D01*
X129947127Y-96625500D01*
X130492872Y-96625499D01*
X130492873Y-96625498D01*
X130492885Y-96625498D01*
X130531744Y-96621320D01*
X130558252Y-96621320D01*
X130597127Y-96625500D01*
X131142872Y-96625499D01*
X131151711Y-96624548D01*
X131184094Y-96621068D01*
X131210606Y-96621068D01*
X131247166Y-96624999D01*
X131247182Y-96625000D01*
X131295000Y-96625000D01*
X131310611Y-96609388D01*
X131314685Y-96595515D01*
X131344689Y-96563288D01*
X131445689Y-96487679D01*
X131511153Y-96463261D01*
X131579426Y-96478112D01*
X131594311Y-96487679D01*
X131695311Y-96563288D01*
X131731110Y-96611110D01*
X131745000Y-96625000D01*
X131792819Y-96625000D01*
X131792833Y-96624999D01*
X131829395Y-96621068D01*
X131855905Y-96621068D01*
X131897127Y-96625500D01*
X132442872Y-96625499D01*
X132442873Y-96625498D01*
X132442885Y-96625498D01*
X132481744Y-96621320D01*
X132508252Y-96621320D01*
X132547127Y-96625500D01*
X132685547Y-96625499D01*
X132752585Y-96645183D01*
X132798340Y-96697987D01*
X132808284Y-96767145D01*
X132779260Y-96830701D01*
X132773227Y-96837180D01*
X132642692Y-96967715D01*
X132581369Y-97001200D01*
X132511677Y-96996216D01*
X132504575Y-96993313D01*
X132359807Y-96928857D01*
X132359802Y-96928855D01*
X132202399Y-96895399D01*
X132174646Y-96889500D01*
X131985354Y-96889500D01*
X131957601Y-96895399D01*
X131800197Y-96928855D01*
X131800192Y-96928857D01*
X131627270Y-97005848D01*
X131627265Y-97005851D01*
X131474129Y-97117111D01*
X131347466Y-97257785D01*
X131252821Y-97421715D01*
X131252818Y-97421722D01*
X131199447Y-97585982D01*
X131194326Y-97601744D01*
X131174540Y-97790000D01*
X131194326Y-97978256D01*
X131194327Y-97978259D01*
X131252818Y-98158277D01*
X131252821Y-98158284D01*
X131347467Y-98322216D01*
X131428378Y-98412076D01*
X131443792Y-98429196D01*
X131474129Y-98462888D01*
X131543979Y-98513637D01*
X131586643Y-98568964D01*
X131592622Y-98638577D01*
X131560017Y-98700373D01*
X131558773Y-98701634D01*
X131207228Y-99053181D01*
X131145905Y-99086666D01*
X131119547Y-99089500D01*
X126695452Y-99089500D01*
X126628413Y-99069815D01*
X126607771Y-99053181D01*
X117966859Y-90412268D01*
X117933374Y-90350945D01*
X117938358Y-90281253D01*
X117980230Y-90225320D01*
X118045694Y-90200903D01*
X118065349Y-90201059D01*
X118110001Y-90204966D01*
X118110002Y-90204966D01*
X118336599Y-90185141D01*
X118336610Y-90185139D01*
X118556317Y-90126269D01*
X118556331Y-90126264D01*
X118762478Y-90030136D01*
X118835471Y-89979024D01*
X118154400Y-89297953D01*
X118235148Y-89285165D01*
X118348045Y-89227641D01*
X118437641Y-89138045D01*
X118495165Y-89025148D01*
X118507953Y-88944400D01*
X119189024Y-89625471D01*
X119240136Y-89552478D01*
X119336264Y-89346331D01*
X119336269Y-89346317D01*
X119395139Y-89126610D01*
X119395141Y-89126599D01*
X119414966Y-88900002D01*
X119414966Y-88899997D01*
X119395141Y-88673400D01*
X119395139Y-88673389D01*
X119336269Y-88453682D01*
X119336264Y-88453668D01*
X119240136Y-88247521D01*
X119240132Y-88247513D01*
X119189025Y-88174526D01*
X118507953Y-88855598D01*
X118495165Y-88774852D01*
X118437641Y-88661955D01*
X118348045Y-88572359D01*
X118235148Y-88514835D01*
X118154401Y-88502046D01*
X118835472Y-87820974D01*
X118762478Y-87769863D01*
X118556331Y-87673735D01*
X118556317Y-87673730D01*
X118336610Y-87614860D01*
X118336599Y-87614858D01*
X118110002Y-87595034D01*
X118109998Y-87595034D01*
X117883400Y-87614858D01*
X117883389Y-87614860D01*
X117663682Y-87673730D01*
X117663673Y-87673734D01*
X117457516Y-87769866D01*
X117457512Y-87769868D01*
X117384526Y-87820973D01*
X117384526Y-87820974D01*
X118065599Y-88502046D01*
X117984852Y-88514835D01*
X117871955Y-88572359D01*
X117782359Y-88661955D01*
X117724835Y-88774852D01*
X117712046Y-88855598D01*
X117030974Y-88174526D01*
X117030973Y-88174526D01*
X116979868Y-88247512D01*
X116979866Y-88247516D01*
X116883734Y-88453673D01*
X116883730Y-88453682D01*
X116824860Y-88673389D01*
X116824858Y-88673400D01*
X116805034Y-88899997D01*
X116805034Y-88900003D01*
X116808940Y-88944653D01*
X116795173Y-89013152D01*
X116746557Y-89063335D01*
X116678529Y-89079268D01*
X116612685Y-89055892D01*
X116597731Y-89043140D01*
X114945803Y-87391212D01*
X114935980Y-87378950D01*
X114935759Y-87379134D01*
X114930786Y-87373122D01*
X114881776Y-87327099D01*
X114878977Y-87324386D01*
X114859477Y-87304885D01*
X114859471Y-87304880D01*
X114856286Y-87302409D01*
X114847434Y-87294848D01*
X114815582Y-87264938D01*
X114815580Y-87264936D01*
X114815577Y-87264935D01*
X114798029Y-87255288D01*
X114781763Y-87244604D01*
X114765932Y-87232324D01*
X114725849Y-87214978D01*
X114715363Y-87209841D01*
X114677094Y-87188803D01*
X114677092Y-87188802D01*
X114657693Y-87183822D01*
X114639281Y-87177518D01*
X114620898Y-87169562D01*
X114620892Y-87169560D01*
X114577760Y-87162729D01*
X114566322Y-87160361D01*
X114524020Y-87149500D01*
X114524019Y-87149500D01*
X114503984Y-87149500D01*
X114484586Y-87147973D01*
X114477162Y-87146797D01*
X114464805Y-87144840D01*
X114464804Y-87144840D01*
X114421325Y-87148950D01*
X114409656Y-87149500D01*
X112726746Y-87149500D01*
X112711129Y-87147776D01*
X112711102Y-87148062D01*
X112703340Y-87147327D01*
X112636153Y-87149439D01*
X112632259Y-87149500D01*
X112604659Y-87149500D01*
X112600971Y-87149965D01*
X112600658Y-87150005D01*
X112589040Y-87150918D01*
X112545382Y-87152290D01*
X112545381Y-87152290D01*
X112526138Y-87157881D01*
X112507088Y-87161825D01*
X112487220Y-87164334D01*
X112487219Y-87164335D01*
X112446609Y-87180413D01*
X112435562Y-87184195D01*
X112393619Y-87196381D01*
X112393618Y-87196382D01*
X112376376Y-87206579D01*
X112358908Y-87215137D01*
X112340278Y-87222513D01*
X112340275Y-87222515D01*
X112304948Y-87248181D01*
X112295189Y-87254592D01*
X112257588Y-87276830D01*
X112243417Y-87291000D01*
X112228632Y-87303628D01*
X112212421Y-87315407D01*
X112184580Y-87349059D01*
X112176720Y-87357696D01*
X105463708Y-94070708D01*
X105451451Y-94080529D01*
X105451634Y-94080750D01*
X105445622Y-94085723D01*
X105399598Y-94134732D01*
X105396891Y-94137525D01*
X105377389Y-94157026D01*
X105377375Y-94157043D01*
X105374907Y-94160224D01*
X105367343Y-94169079D01*
X105337437Y-94200927D01*
X105337436Y-94200929D01*
X105327784Y-94218485D01*
X105317110Y-94234735D01*
X105304829Y-94250570D01*
X105304824Y-94250577D01*
X105287475Y-94290667D01*
X105282338Y-94301153D01*
X105261303Y-94339415D01*
X105256322Y-94358816D01*
X105250021Y-94377219D01*
X105242062Y-94395611D01*
X105242061Y-94395614D01*
X105235228Y-94438752D01*
X105232860Y-94450183D01*
X105222001Y-94492480D01*
X105222000Y-94492491D01*
X105222000Y-94512525D01*
X105220473Y-94531924D01*
X105217340Y-94551703D01*
X105217340Y-94551704D01*
X105221450Y-94595183D01*
X105222000Y-94606852D01*
X105222000Y-95325811D01*
X105202315Y-95392850D01*
X105169123Y-95427386D01*
X105008359Y-95539953D01*
X104935181Y-95613132D01*
X104873858Y-95646617D01*
X104804166Y-95641633D01*
X104759819Y-95613132D01*
X104686641Y-95539954D01*
X104500234Y-95409432D01*
X104500232Y-95409431D01*
X104293997Y-95313261D01*
X104293988Y-95313258D01*
X104074197Y-95254366D01*
X104074193Y-95254365D01*
X104074192Y-95254365D01*
X104074191Y-95254364D01*
X104074186Y-95254364D01*
X103847502Y-95234532D01*
X103847498Y-95234532D01*
X103620813Y-95254364D01*
X103620802Y-95254366D01*
X103401011Y-95313258D01*
X103401002Y-95313261D01*
X103194767Y-95409431D01*
X103194765Y-95409432D01*
X103008358Y-95539954D01*
X102847454Y-95700858D01*
X102716932Y-95887265D01*
X102716931Y-95887267D01*
X102620761Y-96093502D01*
X102620758Y-96093511D01*
X102561866Y-96313302D01*
X102561864Y-96313313D01*
X102547058Y-96482547D01*
X102542032Y-96540000D01*
X102554484Y-96682332D01*
X102561865Y-96766691D01*
X102561866Y-96766697D01*
X102580180Y-96835048D01*
X102578517Y-96904897D01*
X102548086Y-96954821D01*
X102338708Y-97164199D01*
X102326451Y-97174020D01*
X102326634Y-97174241D01*
X102320622Y-97179214D01*
X102274598Y-97228223D01*
X102271891Y-97231016D01*
X102252389Y-97250517D01*
X102252375Y-97250534D01*
X102249907Y-97253715D01*
X102242343Y-97262570D01*
X102212437Y-97294418D01*
X102212436Y-97294420D01*
X102202784Y-97311976D01*
X102192110Y-97328226D01*
X102179829Y-97344061D01*
X102179824Y-97344068D01*
X102162475Y-97384158D01*
X102157338Y-97394644D01*
X102136303Y-97432906D01*
X102131322Y-97452307D01*
X102125021Y-97470710D01*
X102117062Y-97489102D01*
X102117061Y-97489105D01*
X102110228Y-97532243D01*
X102107860Y-97543674D01*
X102097001Y-97585971D01*
X102097000Y-97585982D01*
X102097000Y-97606016D01*
X102095473Y-97625415D01*
X102092340Y-97645194D01*
X102092340Y-97645195D01*
X92710500Y-97645195D01*
X92710500Y-91790005D01*
X98482557Y-91790005D01*
X98502307Y-92103942D01*
X98502308Y-92103949D01*
X98561255Y-92412958D01*
X98658463Y-92712132D01*
X98658465Y-92712137D01*
X98792400Y-92996761D01*
X98792403Y-92996767D01*
X98960957Y-93262367D01*
X98960960Y-93262371D01*
X99051786Y-93372160D01*
X100016938Y-92407007D01*
X100065848Y-92485999D01*
X100209431Y-92643501D01*
X100367888Y-92763163D01*
X99402471Y-93728579D01*
X99402472Y-93728581D01*
X99645272Y-93904985D01*
X99645290Y-93904996D01*
X99920947Y-94056540D01*
X99920955Y-94056544D01*
X100213426Y-94172340D01*
X100518120Y-94250573D01*
X100518129Y-94250575D01*
X100830201Y-94289999D01*
X100830215Y-94290000D01*
X101144785Y-94290000D01*
X101144798Y-94289999D01*
X101456870Y-94250575D01*
X101456879Y-94250573D01*
X101761573Y-94172340D01*
X102054044Y-94056544D01*
X102054052Y-94056540D01*
X102329709Y-93904996D01*
X102329719Y-93904990D01*
X102572526Y-93728579D01*
X102572527Y-93728579D01*
X101607111Y-92763163D01*
X101765569Y-92643501D01*
X101909152Y-92485999D01*
X101958060Y-92407008D01*
X102923212Y-93372160D01*
X103014044Y-93262364D01*
X103182596Y-92996767D01*
X103182599Y-92996761D01*
X103316534Y-92712137D01*
X103316536Y-92712132D01*
X103413744Y-92412958D01*
X103472691Y-92103949D01*
X103472692Y-92103942D01*
X103492443Y-91790005D01*
X103492443Y-91789994D01*
X103472692Y-91476057D01*
X103472691Y-91476050D01*
X103413744Y-91167041D01*
X103316536Y-90867867D01*
X103316534Y-90867862D01*
X103182599Y-90583238D01*
X103182596Y-90583232D01*
X103014042Y-90317632D01*
X103014039Y-90317628D01*
X102923212Y-90207838D01*
X101958060Y-91172991D01*
X101909152Y-91094001D01*
X101765569Y-90936499D01*
X101607111Y-90816836D01*
X102572527Y-89851419D01*
X102572526Y-89851417D01*
X102329727Y-89675014D01*
X102329709Y-89675003D01*
X102054052Y-89523459D01*
X102054044Y-89523455D01*
X101761573Y-89407659D01*
X101456879Y-89329426D01*
X101456870Y-89329424D01*
X101144798Y-89290000D01*
X100830201Y-89290000D01*
X100518129Y-89329424D01*
X100518120Y-89329426D01*
X100213426Y-89407659D01*
X99920955Y-89523455D01*
X99920947Y-89523459D01*
X99645287Y-89675004D01*
X99645282Y-89675007D01*
X99402472Y-89851418D01*
X99402471Y-89851419D01*
X100367888Y-90816836D01*
X100209431Y-90936499D01*
X100065848Y-91094001D01*
X100016939Y-91172991D01*
X99051786Y-90207838D01*
X99051785Y-90207838D01*
X98960959Y-90317629D01*
X98960957Y-90317632D01*
X98792403Y-90583232D01*
X98792400Y-90583238D01*
X98658465Y-90867862D01*
X98658463Y-90867867D01*
X98561255Y-91167041D01*
X98502308Y-91476050D01*
X98502307Y-91476057D01*
X98482557Y-91789994D01*
X98482557Y-91790005D01*
X92710500Y-91790005D01*
X92710500Y-80743690D01*
X92730185Y-80676651D01*
X92782989Y-80630896D01*
X92852147Y-80620952D01*
X92915703Y-80649977D01*
X92952431Y-80705372D01*
X93014125Y-80895247D01*
X93014127Y-80895252D01*
X93142704Y-81168491D01*
X93142707Y-81168497D01*
X93304516Y-81423469D01*
X93385311Y-81521133D01*
X94314210Y-80592234D01*
X94414894Y-80733624D01*
X94566932Y-80878592D01*
X94669222Y-80944329D01*
X93736564Y-81876987D01*
X93736565Y-81876989D01*
X93961461Y-82040385D01*
X93961479Y-82040397D01*
X94226109Y-82185878D01*
X94226117Y-82185882D01*
X94506889Y-82297047D01*
X94506892Y-82297048D01*
X94799399Y-82372150D01*
X95098995Y-82409999D01*
X95099007Y-82410000D01*
X95400993Y-82410000D01*
X95401004Y-82409999D01*
X95700600Y-82372150D01*
X95993107Y-82297048D01*
X95993110Y-82297047D01*
X96273882Y-82185882D01*
X96273890Y-82185878D01*
X96538520Y-82040397D01*
X96538530Y-82040390D01*
X96763433Y-81876987D01*
X96763434Y-81876987D01*
X95833307Y-80946859D01*
X95847410Y-80939589D01*
X96012540Y-80809729D01*
X96150110Y-80650965D01*
X96184665Y-80591112D01*
X97114687Y-81521134D01*
X97195486Y-81423464D01*
X97357292Y-81168497D01*
X97357295Y-81168491D01*
X97485872Y-80895252D01*
X97485874Y-80895247D01*
X97579194Y-80608040D01*
X97635783Y-80311390D01*
X97635784Y-80311383D01*
X97654745Y-80010005D01*
X97654745Y-80009994D01*
X97635784Y-79708616D01*
X97635783Y-79708609D01*
X97579194Y-79411959D01*
X97485874Y-79124752D01*
X97485872Y-79124747D01*
X97357295Y-78851508D01*
X97357292Y-78851502D01*
X97195483Y-78596530D01*
X97114686Y-78498864D01*
X96185787Y-79427763D01*
X96085106Y-79286376D01*
X95933068Y-79141408D01*
X95830776Y-79075669D01*
X96763434Y-78143011D01*
X96763433Y-78143009D01*
X96538538Y-77979614D01*
X96538520Y-77979602D01*
X96273890Y-77834121D01*
X96273882Y-77834117D01*
X95993110Y-77722953D01*
X95960594Y-77714604D01*
X95900556Y-77678866D01*
X95869371Y-77616342D01*
X95876939Y-77546883D01*
X95920858Y-77492543D01*
X95987183Y-77470573D01*
X95991432Y-77470500D01*
X187218568Y-77470500D01*
X187285607Y-77490185D01*
G37*
%TD.AperFunction*%
%TA.AperFunction,Conductor*%
G36*
X94414894Y-115023624D02*
G01*
X94566932Y-115168592D01*
X94669222Y-115234329D01*
X93736564Y-116166987D01*
X93736565Y-116166989D01*
X93961461Y-116330385D01*
X93961479Y-116330397D01*
X94226109Y-116475878D01*
X94226117Y-116475882D01*
X94486880Y-116579125D01*
X94541966Y-116622106D01*
X94565069Y-116688045D01*
X94548856Y-116756007D01*
X94498473Y-116804415D01*
X94429916Y-116817900D01*
X94417041Y-116816034D01*
X94321674Y-116797064D01*
X94319508Y-116796613D01*
X94179777Y-116766217D01*
X94166276Y-116762470D01*
X94052338Y-116723793D01*
X94048863Y-116722556D01*
X93921196Y-116674938D01*
X93909687Y-116669969D01*
X93844947Y-116638043D01*
X93799348Y-116615556D01*
X93794779Y-116613183D01*
X93677520Y-116549154D01*
X93668056Y-116543424D01*
X93564729Y-116474383D01*
X93559310Y-116470548D01*
X93503396Y-116428691D01*
X93453278Y-116391173D01*
X93445848Y-116385150D01*
X93352022Y-116302867D01*
X93346100Y-116297320D01*
X93252678Y-116203898D01*
X93247131Y-116197976D01*
X93219956Y-116166989D01*
X93164844Y-116104145D01*
X93158830Y-116096727D01*
X93079450Y-115990688D01*
X93075615Y-115985269D01*
X93006574Y-115881942D01*
X93000844Y-115872478D01*
X92936798Y-115755187D01*
X92934461Y-115750687D01*
X92880024Y-115640300D01*
X92875060Y-115628802D01*
X92827420Y-115501074D01*
X92826228Y-115497725D01*
X92787522Y-115383703D01*
X92783786Y-115370240D01*
X92753374Y-115230437D01*
X92752945Y-115228378D01*
X92730772Y-115116904D01*
X92728709Y-115101590D01*
X92728342Y-115096469D01*
X92743198Y-115028202D01*
X92792606Y-114978799D01*
X92860879Y-114963950D01*
X92926342Y-114988371D01*
X92968211Y-115044306D01*
X92969958Y-115049316D01*
X93014125Y-115185247D01*
X93014127Y-115185252D01*
X93142704Y-115458491D01*
X93142707Y-115458497D01*
X93304516Y-115713469D01*
X93385311Y-115811133D01*
X94314210Y-114882234D01*
X94414894Y-115023624D01*
G37*
%TD.AperFunction*%
%TA.AperFunction,Conductor*%
G36*
X189824687Y-115811134D02*
G01*
X189905486Y-115713464D01*
X190067292Y-115458497D01*
X190067295Y-115458491D01*
X190195872Y-115185252D01*
X190195874Y-115185247D01*
X190240040Y-115049320D01*
X190279477Y-114991645D01*
X190343836Y-114964446D01*
X190412682Y-114976361D01*
X190464158Y-115023605D01*
X190481920Y-115091179D01*
X190481655Y-115096485D01*
X190481291Y-115101574D01*
X190479224Y-115116918D01*
X190457064Y-115228323D01*
X190456613Y-115230490D01*
X190426217Y-115370221D01*
X190422470Y-115383722D01*
X190383793Y-115497660D01*
X190382556Y-115501135D01*
X190334938Y-115628802D01*
X190329969Y-115640311D01*
X190275564Y-115750635D01*
X190273183Y-115755219D01*
X190209154Y-115872478D01*
X190203424Y-115881942D01*
X190134383Y-115985269D01*
X190130548Y-115990688D01*
X190051181Y-116096711D01*
X190045142Y-116104160D01*
X189962867Y-116197976D01*
X189957320Y-116203898D01*
X189863898Y-116297320D01*
X189857976Y-116302867D01*
X189764160Y-116385142D01*
X189756711Y-116391181D01*
X189650688Y-116470548D01*
X189645269Y-116474383D01*
X189541942Y-116543424D01*
X189532478Y-116549154D01*
X189415219Y-116613183D01*
X189410635Y-116615564D01*
X189300311Y-116669969D01*
X189288802Y-116674938D01*
X189161135Y-116722556D01*
X189157660Y-116723793D01*
X189043722Y-116762470D01*
X189030221Y-116766217D01*
X188890490Y-116796613D01*
X188888323Y-116797064D01*
X188792958Y-116816033D01*
X188723366Y-116809806D01*
X188668189Y-116766942D01*
X188644945Y-116701053D01*
X188661013Y-116633056D01*
X188711292Y-116584540D01*
X188723120Y-116579124D01*
X188983882Y-116475882D01*
X188983890Y-116475878D01*
X189248520Y-116330397D01*
X189248530Y-116330390D01*
X189473433Y-116166987D01*
X189473434Y-116166987D01*
X188543307Y-115236859D01*
X188557410Y-115229589D01*
X188722540Y-115099729D01*
X188860110Y-114940965D01*
X188894665Y-114881112D01*
X189824687Y-115811134D01*
G37*
%TD.AperFunction*%
%TA.AperFunction,Conductor*%
G36*
X94486638Y-77500190D02*
G01*
X94541815Y-77543053D01*
X94565060Y-77608943D01*
X94548992Y-77676940D01*
X94498713Y-77725455D01*
X94486886Y-77730872D01*
X94226112Y-77834120D01*
X94226109Y-77834121D01*
X93961476Y-77979604D01*
X93961471Y-77979607D01*
X93736565Y-78143010D01*
X93736564Y-78143011D01*
X94666693Y-79073140D01*
X94652590Y-79080411D01*
X94487460Y-79210271D01*
X94349890Y-79369035D01*
X94315334Y-79428887D01*
X93385311Y-78498864D01*
X93304520Y-78596525D01*
X93304518Y-78596528D01*
X93142707Y-78851502D01*
X93142704Y-78851508D01*
X93014127Y-79124747D01*
X92969958Y-79260684D01*
X92930520Y-79318359D01*
X92866161Y-79345557D01*
X92797315Y-79333642D01*
X92745839Y-79286398D01*
X92728078Y-79218823D01*
X92728339Y-79213581D01*
X92728709Y-79208409D01*
X92730771Y-79193099D01*
X92752955Y-79081573D01*
X92753364Y-79079606D01*
X92783788Y-78939749D01*
X92787519Y-78926305D01*
X92826243Y-78812230D01*
X92827404Y-78808967D01*
X92875068Y-78681177D01*
X92880017Y-78669713D01*
X92934481Y-78559272D01*
X92936777Y-78554851D01*
X93000855Y-78437501D01*
X93006562Y-78428075D01*
X93075639Y-78324694D01*
X93079425Y-78319344D01*
X93158850Y-78213246D01*
X93164823Y-78205878D01*
X93247161Y-78111989D01*
X93252648Y-78106131D01*
X93346131Y-78012648D01*
X93351989Y-78007161D01*
X93445878Y-77924823D01*
X93453246Y-77918850D01*
X93559344Y-77839425D01*
X93564694Y-77835639D01*
X93668075Y-77766562D01*
X93677501Y-77760855D01*
X93794851Y-77696777D01*
X93799272Y-77694481D01*
X93909713Y-77640017D01*
X93921177Y-77635068D01*
X94048967Y-77587404D01*
X94052230Y-77586243D01*
X94166305Y-77547519D01*
X94179749Y-77543788D01*
X94319607Y-77513364D01*
X94321552Y-77512959D01*
X94417051Y-77493963D01*
X94486638Y-77500190D01*
G37*
%TD.AperFunction*%
%TA.AperFunction,Conductor*%
G36*
X188792945Y-77493962D02*
G01*
X188888378Y-77512945D01*
X188890437Y-77513374D01*
X189030240Y-77543786D01*
X189043703Y-77547522D01*
X189157725Y-77586228D01*
X189161074Y-77587420D01*
X189288808Y-77635062D01*
X189300300Y-77640024D01*
X189410687Y-77694461D01*
X189415187Y-77696798D01*
X189532478Y-77760844D01*
X189541942Y-77766574D01*
X189645269Y-77835615D01*
X189650688Y-77839450D01*
X189756727Y-77918830D01*
X189764145Y-77924844D01*
X189826591Y-77979607D01*
X189857976Y-78007131D01*
X189863898Y-78012678D01*
X189957320Y-78106100D01*
X189962867Y-78112022D01*
X190045150Y-78205848D01*
X190051173Y-78213278D01*
X190088691Y-78263396D01*
X190130548Y-78319310D01*
X190134383Y-78324729D01*
X190203424Y-78428056D01*
X190209154Y-78437520D01*
X190273183Y-78554779D01*
X190275564Y-78559363D01*
X190329969Y-78669687D01*
X190334938Y-78681196D01*
X190382556Y-78808863D01*
X190383793Y-78812338D01*
X190422470Y-78926276D01*
X190426217Y-78939777D01*
X190456613Y-79079508D01*
X190457064Y-79081675D01*
X190479224Y-79193080D01*
X190481291Y-79208426D01*
X190481655Y-79213516D01*
X190466803Y-79281789D01*
X190417397Y-79331194D01*
X190349124Y-79346045D01*
X190283660Y-79321627D01*
X190241789Y-79265694D01*
X190240040Y-79260679D01*
X190195874Y-79124752D01*
X190195872Y-79124747D01*
X190067295Y-78851508D01*
X190067292Y-78851502D01*
X189905483Y-78596530D01*
X189824686Y-78498864D01*
X188895787Y-79427763D01*
X188795106Y-79286376D01*
X188643068Y-79141408D01*
X188540776Y-79075669D01*
X189473434Y-78143011D01*
X189473433Y-78143009D01*
X189248538Y-77979614D01*
X189248520Y-77979602D01*
X188983890Y-77834121D01*
X188983882Y-77834117D01*
X188723115Y-77730873D01*
X188668029Y-77687892D01*
X188644926Y-77621953D01*
X188661139Y-77553991D01*
X188711522Y-77505583D01*
X188780079Y-77492098D01*
X188792945Y-77493962D01*
G37*
%TD.AperFunction*%
%TD*%
M02*
