M48
; DRILL file {KiCad 7.0.10} date Mon Jan 22 13:30:57 2024
; FORMAT={-:-/ absolute / inch / decimal}
; #@! TF.CreationDate,2024-01-22T13:30:57+09:00
; #@! TF.GenerationSoftware,Kicad,Pcbnew,7.0.10
; #@! TF.FileFunction,Plated,1,2,PTH
FMAT,2
INCH
; #@! TA.AperFunction,Plated,PTH,ViaDrill
T1C0.0157
; #@! TA.AperFunction,Plated,PTH,ComponentDrill
T2C0.0315
; #@! TA.AperFunction,Plated,PTH,ComponentDrill
T3C0.0354
; #@! TA.AperFunction,Plated,PTH,ComponentDrill
T4C0.0374
; #@! TA.AperFunction,Plated,PTH,ComponentDrill
T5C0.0394
; #@! TA.AperFunction,Plated,PTH,ComponentDrill
T6C0.0472
; #@! TA.AperFunction,Plated,PTH,ComponentDrill
T7C0.0866
; #@! TA.AperFunction,Plated,PTH,ComponentDrill
T8C0.0906
%
G90
G05
T1
X4.3Y-3.7
X4.4Y-3.6
X4.5Y-3.7
X4.5Y-3.8
X4.6Y-3.7
X4.6Y-3.8
X4.85Y-4.0
X4.85Y-4.1
X5.0Y-4.15
X5.2Y-3.65
X5.2Y-3.85
X5.35Y-4.15
X5.5Y-3.8
X5.5Y-3.9
X5.5Y-4.1
X5.6Y-4.0
X5.6Y-4.1
T2
X4.45Y-4.2516
X4.45Y-4.4484
X4.4531Y-3.5
X4.65Y-3.5
X4.7Y-4.2531
X4.7Y-4.45
X5.65Y-3.25
X5.65Y-3.55
X5.75Y-3.75
X5.75Y-3.85
X5.75Y-3.95
X5.75Y-4.05
X6.05Y-3.25
X6.05Y-3.55
X6.05Y-3.75
X6.05Y-3.85
X6.05Y-3.95
X6.05Y-4.05
X6.05Y-4.4
X6.3Y-3.25
X6.3Y-3.65
X6.4Y-4.05
X6.45Y-4.4
X6.5Y-3.25
X6.5Y-3.65
X6.7Y-3.25
X6.7Y-3.65
X6.8Y-4.05
X6.9Y-3.25
X6.9Y-3.65
T3
X5.35Y-3.25
X5.35Y-3.55
X5.45Y-3.25
X5.45Y-3.55
T4
X4.0885Y-3.8008
X4.0885Y-3.8992
X4.1672Y-3.8008
X4.1672Y-3.8992
T5
X6.8Y-4.2
X6.8Y-4.3
T6
X7.25Y-3.75
X7.25Y-3.8878
X7.25Y-4.0256
T7
X3.75Y-3.15
X3.75Y-4.5
X7.4Y-3.15
X7.4Y-4.5
T8
X3.9759Y-3.6138
X3.9759Y-4.0862
M30
