%TF.GenerationSoftware,KiCad,Pcbnew,7.0.10*%
%TF.CreationDate,2024-01-22T13:30:58+09:00*%
%TF.ProjectId,RS485_Converter,52533438-355f-4436-9f6e-766572746572,1.0*%
%TF.SameCoordinates,Original*%
%TF.FileFunction,Drillmap*%
%TF.FilePolarity,Positive*%
%FSLAX45Y45*%
G04 Gerber Fmt 4.5, Leading zero omitted, Abs format (unit mm)*
G04 Created by KiCad (PCBNEW 7.0.10) date 2024-01-22 13:30:58*
%MOMM*%
%LPD*%
G01*
G04 APERTURE LIST*
%ADD10C,0.100000*%
%ADD11C,0.200000*%
G04 APERTURE END LIST*
D10*
X19050000Y-7947000D02*
X19050000Y-11484000D01*
X19050000Y-7947000D02*
G75*
G03*
X18850000Y-7747000I-200000J0D01*
G01*
X9271000Y-11484000D02*
G75*
G03*
X9471000Y-11684000I200000J0D01*
G01*
X9471000Y-7747000D02*
X18850000Y-7747000D01*
X18850000Y-11684000D02*
G75*
G03*
X19050000Y-11484000I0J200000D01*
G01*
X18850000Y-11684000D02*
X9471000Y-11684000D01*
X9271000Y-11484000D02*
X9271000Y-7947000D01*
X9471000Y-7747000D02*
G75*
G03*
X9271000Y-7947000I0J-200000D01*
G01*
D11*
X9526777Y-12000484D02*
X9526777Y-11800484D01*
X9526777Y-11800484D02*
X9574396Y-11800484D01*
X9574396Y-11800484D02*
X9602967Y-11810008D01*
X9602967Y-11810008D02*
X9622015Y-11829055D01*
X9622015Y-11829055D02*
X9631539Y-11848103D01*
X9631539Y-11848103D02*
X9641063Y-11886198D01*
X9641063Y-11886198D02*
X9641063Y-11914769D01*
X9641063Y-11914769D02*
X9631539Y-11952865D01*
X9631539Y-11952865D02*
X9622015Y-11971912D01*
X9622015Y-11971912D02*
X9602967Y-11990960D01*
X9602967Y-11990960D02*
X9574396Y-12000484D01*
X9574396Y-12000484D02*
X9526777Y-12000484D01*
X9726777Y-12000484D02*
X9726777Y-11867150D01*
X9726777Y-11905246D02*
X9736301Y-11886198D01*
X9736301Y-11886198D02*
X9745824Y-11876674D01*
X9745824Y-11876674D02*
X9764872Y-11867150D01*
X9764872Y-11867150D02*
X9783920Y-11867150D01*
X9850586Y-12000484D02*
X9850586Y-11867150D01*
X9850586Y-11800484D02*
X9841063Y-11810008D01*
X9841063Y-11810008D02*
X9850586Y-11819531D01*
X9850586Y-11819531D02*
X9860110Y-11810008D01*
X9860110Y-11810008D02*
X9850586Y-11800484D01*
X9850586Y-11800484D02*
X9850586Y-11819531D01*
X9974396Y-12000484D02*
X9955348Y-11990960D01*
X9955348Y-11990960D02*
X9945824Y-11971912D01*
X9945824Y-11971912D02*
X9945824Y-11800484D01*
X10079158Y-12000484D02*
X10060110Y-11990960D01*
X10060110Y-11990960D02*
X10050586Y-11971912D01*
X10050586Y-11971912D02*
X10050586Y-11800484D01*
X10307729Y-12000484D02*
X10307729Y-11800484D01*
X10307729Y-11800484D02*
X10374396Y-11943341D01*
X10374396Y-11943341D02*
X10441063Y-11800484D01*
X10441063Y-11800484D02*
X10441063Y-12000484D01*
X10622015Y-12000484D02*
X10622015Y-11895722D01*
X10622015Y-11895722D02*
X10612491Y-11876674D01*
X10612491Y-11876674D02*
X10593444Y-11867150D01*
X10593444Y-11867150D02*
X10555348Y-11867150D01*
X10555348Y-11867150D02*
X10536301Y-11876674D01*
X10622015Y-11990960D02*
X10602967Y-12000484D01*
X10602967Y-12000484D02*
X10555348Y-12000484D01*
X10555348Y-12000484D02*
X10536301Y-11990960D01*
X10536301Y-11990960D02*
X10526777Y-11971912D01*
X10526777Y-11971912D02*
X10526777Y-11952865D01*
X10526777Y-11952865D02*
X10536301Y-11933817D01*
X10536301Y-11933817D02*
X10555348Y-11924293D01*
X10555348Y-11924293D02*
X10602967Y-11924293D01*
X10602967Y-11924293D02*
X10622015Y-11914769D01*
X10717253Y-11867150D02*
X10717253Y-12067150D01*
X10717253Y-11876674D02*
X10736301Y-11867150D01*
X10736301Y-11867150D02*
X10774396Y-11867150D01*
X10774396Y-11867150D02*
X10793444Y-11876674D01*
X10793444Y-11876674D02*
X10802967Y-11886198D01*
X10802967Y-11886198D02*
X10812491Y-11905246D01*
X10812491Y-11905246D02*
X10812491Y-11962388D01*
X10812491Y-11962388D02*
X10802967Y-11981436D01*
X10802967Y-11981436D02*
X10793444Y-11990960D01*
X10793444Y-11990960D02*
X10774396Y-12000484D01*
X10774396Y-12000484D02*
X10736301Y-12000484D01*
X10736301Y-12000484D02*
X10717253Y-11990960D01*
X10898205Y-11981436D02*
X10907729Y-11990960D01*
X10907729Y-11990960D02*
X10898205Y-12000484D01*
X10898205Y-12000484D02*
X10888682Y-11990960D01*
X10888682Y-11990960D02*
X10898205Y-11981436D01*
X10898205Y-11981436D02*
X10898205Y-12000484D01*
X10898205Y-11876674D02*
X10907729Y-11886198D01*
X10907729Y-11886198D02*
X10898205Y-11895722D01*
X10898205Y-11895722D02*
X10888682Y-11886198D01*
X10888682Y-11886198D02*
X10898205Y-11876674D01*
X10898205Y-11876674D02*
X10898205Y-11895722D01*
M02*
