M48
; DRILL file {KiCad 8.0.0} date 2024-03-15T14:32:32+0900
; FORMAT={-:-/ absolute / inch / decimal}
; #@! TF.CreationDate,2024-03-15T14:32:32+09:00
; #@! TF.GenerationSoftware,Kicad,Pcbnew,8.0.0
; #@! TF.FileFunction,Plated,1,2,PTH
FMAT,2
INCH
; #@! TA.AperFunction,Plated,PTH,ViaDrill
T1C0.0157
; #@! TA.AperFunction,Plated,PTH,ComponentDrill
T2C0.0315
; #@! TA.AperFunction,Plated,PTH,ComponentDrill
T3C0.0354
; #@! TA.AperFunction,Plated,PTH,ComponentDrill
T4C0.0374
; #@! TA.AperFunction,Plated,PTH,ComponentDrill
T5C0.0394
; #@! TA.AperFunction,Plated,PTH,ComponentDrill
T6C0.0472
; #@! TA.AperFunction,Plated,PTH,ComponentDrill
T7C0.0866
; #@! TA.AperFunction,Plated,PTH,ComponentDrill
T8C0.0906
%
G90
G05
T1
X4.35Y-3.85
X4.35Y-3.9
X4.4Y-3.9
X5.0Y-4.15
X5.1Y-4.1
X5.15Y-4.2
X5.2Y-3.5
X5.25Y-3.5
X5.25Y-3.65
X5.35Y-4.15
X5.5Y-3.8
X5.5Y-3.9
X5.5Y-4.1
X5.6Y-4.0
X5.6Y-4.1
T2
X4.55Y-3.9516
X4.55Y-4.1484
X4.6Y-3.5531
X4.6Y-3.75
X4.75Y-3.9516
X4.75Y-4.1484
X4.8Y-3.5516
X4.8Y-3.7484
X5.65Y-3.25
X5.65Y-3.55
X5.75Y-3.75
X5.75Y-3.85
X5.75Y-3.95
X5.75Y-4.05
X6.05Y-3.25
X6.05Y-3.55
X6.05Y-3.75
X6.05Y-3.85
X6.05Y-3.95
X6.05Y-4.05
X6.05Y-4.4
X6.3Y-3.25
X6.3Y-3.65
X6.4Y-4.05
X6.45Y-4.4
X6.5Y-3.25
X6.5Y-3.65
X6.7Y-3.25
X6.7Y-3.65
X6.8Y-4.05
X6.9Y-3.25
X6.9Y-3.65
T3
X5.35Y-3.25
X5.35Y-3.55
X5.45Y-3.25
X5.45Y-3.55
T4
X4.0885Y-3.8008
X4.0885Y-3.8992
X4.1672Y-3.8008
X4.1672Y-3.8992
T5
X6.8Y-4.2
X6.8Y-4.3
T6
X7.25Y-3.75
X7.25Y-3.8878
X7.25Y-4.0256
T7
X3.75Y-3.15
X3.75Y-4.5
X7.4Y-3.15
X7.4Y-4.5
T8
X3.9759Y-3.6138
X3.9759Y-4.0862
M30
