%TF.GenerationSoftware,KiCad,Pcbnew,7.0.10*%
%TF.CreationDate,2024-01-22T13:30:55+09:00*%
%TF.ProjectId,RS485_Converter,52533438-355f-4436-9f6e-766572746572,1.0*%
%TF.SameCoordinates,Original*%
%TF.FileFunction,Legend,Top*%
%TF.FilePolarity,Positive*%
%FSLAX46Y46*%
G04 Gerber Fmt 4.6, Leading zero omitted, Abs format (unit mm)*
G04 Created by KiCad (PCBNEW 7.0.10) date 2024-01-22 13:30:55*
%MOMM*%
%LPD*%
G01*
G04 APERTURE LIST*
%ADD10C,0.150000*%
%ADD11C,0.120000*%
G04 APERTURE END LIST*
D10*
X100666779Y-81079819D02*
X100666779Y-81889342D01*
X100666779Y-81889342D02*
X100714398Y-81984580D01*
X100714398Y-81984580D02*
X100762017Y-82032200D01*
X100762017Y-82032200D02*
X100857255Y-82079819D01*
X100857255Y-82079819D02*
X101047731Y-82079819D01*
X101047731Y-82079819D02*
X101142969Y-82032200D01*
X101142969Y-82032200D02*
X101190588Y-81984580D01*
X101190588Y-81984580D02*
X101238207Y-81889342D01*
X101238207Y-81889342D02*
X101238207Y-81079819D01*
X101666779Y-82032200D02*
X101809636Y-82079819D01*
X101809636Y-82079819D02*
X102047731Y-82079819D01*
X102047731Y-82079819D02*
X102142969Y-82032200D01*
X102142969Y-82032200D02*
X102190588Y-81984580D01*
X102190588Y-81984580D02*
X102238207Y-81889342D01*
X102238207Y-81889342D02*
X102238207Y-81794104D01*
X102238207Y-81794104D02*
X102190588Y-81698866D01*
X102190588Y-81698866D02*
X102142969Y-81651247D01*
X102142969Y-81651247D02*
X102047731Y-81603628D01*
X102047731Y-81603628D02*
X101857255Y-81556009D01*
X101857255Y-81556009D02*
X101762017Y-81508390D01*
X101762017Y-81508390D02*
X101714398Y-81460771D01*
X101714398Y-81460771D02*
X101666779Y-81365533D01*
X101666779Y-81365533D02*
X101666779Y-81270295D01*
X101666779Y-81270295D02*
X101714398Y-81175057D01*
X101714398Y-81175057D02*
X101762017Y-81127438D01*
X101762017Y-81127438D02*
X101857255Y-81079819D01*
X101857255Y-81079819D02*
X102095350Y-81079819D01*
X102095350Y-81079819D02*
X102238207Y-81127438D01*
X103000112Y-81556009D02*
X103142969Y-81603628D01*
X103142969Y-81603628D02*
X103190588Y-81651247D01*
X103190588Y-81651247D02*
X103238207Y-81746485D01*
X103238207Y-81746485D02*
X103238207Y-81889342D01*
X103238207Y-81889342D02*
X103190588Y-81984580D01*
X103190588Y-81984580D02*
X103142969Y-82032200D01*
X103142969Y-82032200D02*
X103047731Y-82079819D01*
X103047731Y-82079819D02*
X102666779Y-82079819D01*
X102666779Y-82079819D02*
X102666779Y-81079819D01*
X102666779Y-81079819D02*
X103000112Y-81079819D01*
X103000112Y-81079819D02*
X103095350Y-81127438D01*
X103095350Y-81127438D02*
X103142969Y-81175057D01*
X103142969Y-81175057D02*
X103190588Y-81270295D01*
X103190588Y-81270295D02*
X103190588Y-81365533D01*
X103190588Y-81365533D02*
X103142969Y-81460771D01*
X103142969Y-81460771D02*
X103095350Y-81508390D01*
X103095350Y-81508390D02*
X103000112Y-81556009D01*
X103000112Y-81556009D02*
X102666779Y-81556009D01*
X103666779Y-81698866D02*
X104428684Y-81698866D01*
X105476302Y-82079819D02*
X105142969Y-81603628D01*
X104904874Y-82079819D02*
X104904874Y-81079819D01*
X104904874Y-81079819D02*
X105285826Y-81079819D01*
X105285826Y-81079819D02*
X105381064Y-81127438D01*
X105381064Y-81127438D02*
X105428683Y-81175057D01*
X105428683Y-81175057D02*
X105476302Y-81270295D01*
X105476302Y-81270295D02*
X105476302Y-81413152D01*
X105476302Y-81413152D02*
X105428683Y-81508390D01*
X105428683Y-81508390D02*
X105381064Y-81556009D01*
X105381064Y-81556009D02*
X105285826Y-81603628D01*
X105285826Y-81603628D02*
X104904874Y-81603628D01*
X105857255Y-82032200D02*
X106000112Y-82079819D01*
X106000112Y-82079819D02*
X106238207Y-82079819D01*
X106238207Y-82079819D02*
X106333445Y-82032200D01*
X106333445Y-82032200D02*
X106381064Y-81984580D01*
X106381064Y-81984580D02*
X106428683Y-81889342D01*
X106428683Y-81889342D02*
X106428683Y-81794104D01*
X106428683Y-81794104D02*
X106381064Y-81698866D01*
X106381064Y-81698866D02*
X106333445Y-81651247D01*
X106333445Y-81651247D02*
X106238207Y-81603628D01*
X106238207Y-81603628D02*
X106047731Y-81556009D01*
X106047731Y-81556009D02*
X105952493Y-81508390D01*
X105952493Y-81508390D02*
X105904874Y-81460771D01*
X105904874Y-81460771D02*
X105857255Y-81365533D01*
X105857255Y-81365533D02*
X105857255Y-81270295D01*
X105857255Y-81270295D02*
X105904874Y-81175057D01*
X105904874Y-81175057D02*
X105952493Y-81127438D01*
X105952493Y-81127438D02*
X106047731Y-81079819D01*
X106047731Y-81079819D02*
X106285826Y-81079819D01*
X106285826Y-81079819D02*
X106428683Y-81127438D01*
X107285826Y-81413152D02*
X107285826Y-82079819D01*
X107047731Y-81032200D02*
X106809636Y-81746485D01*
X106809636Y-81746485D02*
X107428683Y-81746485D01*
X107952493Y-81508390D02*
X107857255Y-81460771D01*
X107857255Y-81460771D02*
X107809636Y-81413152D01*
X107809636Y-81413152D02*
X107762017Y-81317914D01*
X107762017Y-81317914D02*
X107762017Y-81270295D01*
X107762017Y-81270295D02*
X107809636Y-81175057D01*
X107809636Y-81175057D02*
X107857255Y-81127438D01*
X107857255Y-81127438D02*
X107952493Y-81079819D01*
X107952493Y-81079819D02*
X108142969Y-81079819D01*
X108142969Y-81079819D02*
X108238207Y-81127438D01*
X108238207Y-81127438D02*
X108285826Y-81175057D01*
X108285826Y-81175057D02*
X108333445Y-81270295D01*
X108333445Y-81270295D02*
X108333445Y-81317914D01*
X108333445Y-81317914D02*
X108285826Y-81413152D01*
X108285826Y-81413152D02*
X108238207Y-81460771D01*
X108238207Y-81460771D02*
X108142969Y-81508390D01*
X108142969Y-81508390D02*
X107952493Y-81508390D01*
X107952493Y-81508390D02*
X107857255Y-81556009D01*
X107857255Y-81556009D02*
X107809636Y-81603628D01*
X107809636Y-81603628D02*
X107762017Y-81698866D01*
X107762017Y-81698866D02*
X107762017Y-81889342D01*
X107762017Y-81889342D02*
X107809636Y-81984580D01*
X107809636Y-81984580D02*
X107857255Y-82032200D01*
X107857255Y-82032200D02*
X107952493Y-82079819D01*
X107952493Y-82079819D02*
X108142969Y-82079819D01*
X108142969Y-82079819D02*
X108238207Y-82032200D01*
X108238207Y-82032200D02*
X108285826Y-81984580D01*
X108285826Y-81984580D02*
X108333445Y-81889342D01*
X108333445Y-81889342D02*
X108333445Y-81698866D01*
X108333445Y-81698866D02*
X108285826Y-81603628D01*
X108285826Y-81603628D02*
X108238207Y-81556009D01*
X108238207Y-81556009D02*
X108142969Y-81508390D01*
X109238207Y-81079819D02*
X108762017Y-81079819D01*
X108762017Y-81079819D02*
X108714398Y-81556009D01*
X108714398Y-81556009D02*
X108762017Y-81508390D01*
X108762017Y-81508390D02*
X108857255Y-81460771D01*
X108857255Y-81460771D02*
X109095350Y-81460771D01*
X109095350Y-81460771D02*
X109190588Y-81508390D01*
X109190588Y-81508390D02*
X109238207Y-81556009D01*
X109238207Y-81556009D02*
X109285826Y-81651247D01*
X109285826Y-81651247D02*
X109285826Y-81889342D01*
X109285826Y-81889342D02*
X109238207Y-81984580D01*
X109238207Y-81984580D02*
X109190588Y-82032200D01*
X109190588Y-82032200D02*
X109095350Y-82079819D01*
X109095350Y-82079819D02*
X108857255Y-82079819D01*
X108857255Y-82079819D02*
X108762017Y-82032200D01*
X108762017Y-82032200D02*
X108714398Y-81984580D01*
X111047731Y-81984580D02*
X111000112Y-82032200D01*
X111000112Y-82032200D02*
X110857255Y-82079819D01*
X110857255Y-82079819D02*
X110762017Y-82079819D01*
X110762017Y-82079819D02*
X110619160Y-82032200D01*
X110619160Y-82032200D02*
X110523922Y-81936961D01*
X110523922Y-81936961D02*
X110476303Y-81841723D01*
X110476303Y-81841723D02*
X110428684Y-81651247D01*
X110428684Y-81651247D02*
X110428684Y-81508390D01*
X110428684Y-81508390D02*
X110476303Y-81317914D01*
X110476303Y-81317914D02*
X110523922Y-81222676D01*
X110523922Y-81222676D02*
X110619160Y-81127438D01*
X110619160Y-81127438D02*
X110762017Y-81079819D01*
X110762017Y-81079819D02*
X110857255Y-81079819D01*
X110857255Y-81079819D02*
X111000112Y-81127438D01*
X111000112Y-81127438D02*
X111047731Y-81175057D01*
X111619160Y-82079819D02*
X111523922Y-82032200D01*
X111523922Y-82032200D02*
X111476303Y-81984580D01*
X111476303Y-81984580D02*
X111428684Y-81889342D01*
X111428684Y-81889342D02*
X111428684Y-81603628D01*
X111428684Y-81603628D02*
X111476303Y-81508390D01*
X111476303Y-81508390D02*
X111523922Y-81460771D01*
X111523922Y-81460771D02*
X111619160Y-81413152D01*
X111619160Y-81413152D02*
X111762017Y-81413152D01*
X111762017Y-81413152D02*
X111857255Y-81460771D01*
X111857255Y-81460771D02*
X111904874Y-81508390D01*
X111904874Y-81508390D02*
X111952493Y-81603628D01*
X111952493Y-81603628D02*
X111952493Y-81889342D01*
X111952493Y-81889342D02*
X111904874Y-81984580D01*
X111904874Y-81984580D02*
X111857255Y-82032200D01*
X111857255Y-82032200D02*
X111762017Y-82079819D01*
X111762017Y-82079819D02*
X111619160Y-82079819D01*
X112381065Y-81413152D02*
X112381065Y-82079819D01*
X112381065Y-81508390D02*
X112428684Y-81460771D01*
X112428684Y-81460771D02*
X112523922Y-81413152D01*
X112523922Y-81413152D02*
X112666779Y-81413152D01*
X112666779Y-81413152D02*
X112762017Y-81460771D01*
X112762017Y-81460771D02*
X112809636Y-81556009D01*
X112809636Y-81556009D02*
X112809636Y-82079819D01*
X113190589Y-81413152D02*
X113428684Y-82079819D01*
X113428684Y-82079819D02*
X113666779Y-81413152D01*
X114428684Y-82032200D02*
X114333446Y-82079819D01*
X114333446Y-82079819D02*
X114142970Y-82079819D01*
X114142970Y-82079819D02*
X114047732Y-82032200D01*
X114047732Y-82032200D02*
X114000113Y-81936961D01*
X114000113Y-81936961D02*
X114000113Y-81556009D01*
X114000113Y-81556009D02*
X114047732Y-81460771D01*
X114047732Y-81460771D02*
X114142970Y-81413152D01*
X114142970Y-81413152D02*
X114333446Y-81413152D01*
X114333446Y-81413152D02*
X114428684Y-81460771D01*
X114428684Y-81460771D02*
X114476303Y-81556009D01*
X114476303Y-81556009D02*
X114476303Y-81651247D01*
X114476303Y-81651247D02*
X114000113Y-81746485D01*
X114904875Y-82079819D02*
X114904875Y-81413152D01*
X114904875Y-81603628D02*
X114952494Y-81508390D01*
X114952494Y-81508390D02*
X115000113Y-81460771D01*
X115000113Y-81460771D02*
X115095351Y-81413152D01*
X115095351Y-81413152D02*
X115190589Y-81413152D01*
X115381066Y-81413152D02*
X115762018Y-81413152D01*
X115523923Y-81079819D02*
X115523923Y-81936961D01*
X115523923Y-81936961D02*
X115571542Y-82032200D01*
X115571542Y-82032200D02*
X115666780Y-82079819D01*
X115666780Y-82079819D02*
X115762018Y-82079819D01*
X116476304Y-82032200D02*
X116381066Y-82079819D01*
X116381066Y-82079819D02*
X116190590Y-82079819D01*
X116190590Y-82079819D02*
X116095352Y-82032200D01*
X116095352Y-82032200D02*
X116047733Y-81936961D01*
X116047733Y-81936961D02*
X116047733Y-81556009D01*
X116047733Y-81556009D02*
X116095352Y-81460771D01*
X116095352Y-81460771D02*
X116190590Y-81413152D01*
X116190590Y-81413152D02*
X116381066Y-81413152D01*
X116381066Y-81413152D02*
X116476304Y-81460771D01*
X116476304Y-81460771D02*
X116523923Y-81556009D01*
X116523923Y-81556009D02*
X116523923Y-81651247D01*
X116523923Y-81651247D02*
X116047733Y-81746485D01*
X116952495Y-82079819D02*
X116952495Y-81413152D01*
X116952495Y-81603628D02*
X117000114Y-81508390D01*
X117000114Y-81508390D02*
X117047733Y-81460771D01*
X117047733Y-81460771D02*
X117142971Y-81413152D01*
X117142971Y-81413152D02*
X117238209Y-81413152D01*
X100666779Y-83689819D02*
X100666779Y-82689819D01*
X100666779Y-82689819D02*
X101000112Y-83404104D01*
X101000112Y-83404104D02*
X101333445Y-82689819D01*
X101333445Y-82689819D02*
X101333445Y-83689819D01*
X102238207Y-83689819D02*
X102238207Y-83166009D01*
X102238207Y-83166009D02*
X102190588Y-83070771D01*
X102190588Y-83070771D02*
X102095350Y-83023152D01*
X102095350Y-83023152D02*
X101904874Y-83023152D01*
X101904874Y-83023152D02*
X101809636Y-83070771D01*
X102238207Y-83642200D02*
X102142969Y-83689819D01*
X102142969Y-83689819D02*
X101904874Y-83689819D01*
X101904874Y-83689819D02*
X101809636Y-83642200D01*
X101809636Y-83642200D02*
X101762017Y-83546961D01*
X101762017Y-83546961D02*
X101762017Y-83451723D01*
X101762017Y-83451723D02*
X101809636Y-83356485D01*
X101809636Y-83356485D02*
X101904874Y-83308866D01*
X101904874Y-83308866D02*
X102142969Y-83308866D01*
X102142969Y-83308866D02*
X102238207Y-83261247D01*
X103142969Y-83689819D02*
X103142969Y-82689819D01*
X103142969Y-83642200D02*
X103047731Y-83689819D01*
X103047731Y-83689819D02*
X102857255Y-83689819D01*
X102857255Y-83689819D02*
X102762017Y-83642200D01*
X102762017Y-83642200D02*
X102714398Y-83594580D01*
X102714398Y-83594580D02*
X102666779Y-83499342D01*
X102666779Y-83499342D02*
X102666779Y-83213628D01*
X102666779Y-83213628D02*
X102714398Y-83118390D01*
X102714398Y-83118390D02*
X102762017Y-83070771D01*
X102762017Y-83070771D02*
X102857255Y-83023152D01*
X102857255Y-83023152D02*
X103047731Y-83023152D01*
X103047731Y-83023152D02*
X103142969Y-83070771D01*
X104000112Y-83642200D02*
X103904874Y-83689819D01*
X103904874Y-83689819D02*
X103714398Y-83689819D01*
X103714398Y-83689819D02*
X103619160Y-83642200D01*
X103619160Y-83642200D02*
X103571541Y-83546961D01*
X103571541Y-83546961D02*
X103571541Y-83166009D01*
X103571541Y-83166009D02*
X103619160Y-83070771D01*
X103619160Y-83070771D02*
X103714398Y-83023152D01*
X103714398Y-83023152D02*
X103904874Y-83023152D01*
X103904874Y-83023152D02*
X104000112Y-83070771D01*
X104000112Y-83070771D02*
X104047731Y-83166009D01*
X104047731Y-83166009D02*
X104047731Y-83261247D01*
X104047731Y-83261247D02*
X103571541Y-83356485D01*
X105238208Y-83689819D02*
X105238208Y-82689819D01*
X105238208Y-83070771D02*
X105333446Y-83023152D01*
X105333446Y-83023152D02*
X105523922Y-83023152D01*
X105523922Y-83023152D02*
X105619160Y-83070771D01*
X105619160Y-83070771D02*
X105666779Y-83118390D01*
X105666779Y-83118390D02*
X105714398Y-83213628D01*
X105714398Y-83213628D02*
X105714398Y-83499342D01*
X105714398Y-83499342D02*
X105666779Y-83594580D01*
X105666779Y-83594580D02*
X105619160Y-83642200D01*
X105619160Y-83642200D02*
X105523922Y-83689819D01*
X105523922Y-83689819D02*
X105333446Y-83689819D01*
X105333446Y-83689819D02*
X105238208Y-83642200D01*
X106047732Y-83023152D02*
X106285827Y-83689819D01*
X106523922Y-83023152D02*
X106285827Y-83689819D01*
X106285827Y-83689819D02*
X106190589Y-83927914D01*
X106190589Y-83927914D02*
X106142970Y-83975533D01*
X106142970Y-83975533D02*
X106047732Y-84023152D01*
X107952494Y-82689819D02*
X107952494Y-83404104D01*
X107952494Y-83404104D02*
X107904875Y-83546961D01*
X107904875Y-83546961D02*
X107809637Y-83642200D01*
X107809637Y-83642200D02*
X107666780Y-83689819D01*
X107666780Y-83689819D02*
X107571542Y-83689819D01*
X108571542Y-83689819D02*
X108476304Y-83642200D01*
X108476304Y-83642200D02*
X108428685Y-83594580D01*
X108428685Y-83594580D02*
X108381066Y-83499342D01*
X108381066Y-83499342D02*
X108381066Y-83213628D01*
X108381066Y-83213628D02*
X108428685Y-83118390D01*
X108428685Y-83118390D02*
X108476304Y-83070771D01*
X108476304Y-83070771D02*
X108571542Y-83023152D01*
X108571542Y-83023152D02*
X108714399Y-83023152D01*
X108714399Y-83023152D02*
X108809637Y-83070771D01*
X108809637Y-83070771D02*
X108857256Y-83118390D01*
X108857256Y-83118390D02*
X108904875Y-83213628D01*
X108904875Y-83213628D02*
X108904875Y-83499342D01*
X108904875Y-83499342D02*
X108857256Y-83594580D01*
X108857256Y-83594580D02*
X108809637Y-83642200D01*
X108809637Y-83642200D02*
X108714399Y-83689819D01*
X108714399Y-83689819D02*
X108571542Y-83689819D01*
X109333447Y-83023152D02*
X109333447Y-83689819D01*
X109333447Y-83118390D02*
X109381066Y-83070771D01*
X109381066Y-83070771D02*
X109476304Y-83023152D01*
X109476304Y-83023152D02*
X109619161Y-83023152D01*
X109619161Y-83023152D02*
X109714399Y-83070771D01*
X109714399Y-83070771D02*
X109762018Y-83166009D01*
X109762018Y-83166009D02*
X109762018Y-83689819D01*
X110666780Y-83023152D02*
X110666780Y-83832676D01*
X110666780Y-83832676D02*
X110619161Y-83927914D01*
X110619161Y-83927914D02*
X110571542Y-83975533D01*
X110571542Y-83975533D02*
X110476304Y-84023152D01*
X110476304Y-84023152D02*
X110333447Y-84023152D01*
X110333447Y-84023152D02*
X110238209Y-83975533D01*
X110666780Y-83642200D02*
X110571542Y-83689819D01*
X110571542Y-83689819D02*
X110381066Y-83689819D01*
X110381066Y-83689819D02*
X110285828Y-83642200D01*
X110285828Y-83642200D02*
X110238209Y-83594580D01*
X110238209Y-83594580D02*
X110190590Y-83499342D01*
X110190590Y-83499342D02*
X110190590Y-83213628D01*
X110190590Y-83213628D02*
X110238209Y-83118390D01*
X110238209Y-83118390D02*
X110285828Y-83070771D01*
X110285828Y-83070771D02*
X110381066Y-83023152D01*
X110381066Y-83023152D02*
X110571542Y-83023152D01*
X110571542Y-83023152D02*
X110666780Y-83070771D01*
X111142971Y-83689819D02*
X111142971Y-82689819D01*
X111571542Y-83689819D02*
X111571542Y-83166009D01*
X111571542Y-83166009D02*
X111523923Y-83070771D01*
X111523923Y-83070771D02*
X111428685Y-83023152D01*
X111428685Y-83023152D02*
X111285828Y-83023152D01*
X111285828Y-83023152D02*
X111190590Y-83070771D01*
X111190590Y-83070771D02*
X111142971Y-83118390D01*
X112428685Y-83642200D02*
X112333447Y-83689819D01*
X112333447Y-83689819D02*
X112142971Y-83689819D01*
X112142971Y-83689819D02*
X112047733Y-83642200D01*
X112047733Y-83642200D02*
X112000114Y-83546961D01*
X112000114Y-83546961D02*
X112000114Y-83166009D01*
X112000114Y-83166009D02*
X112047733Y-83070771D01*
X112047733Y-83070771D02*
X112142971Y-83023152D01*
X112142971Y-83023152D02*
X112333447Y-83023152D01*
X112333447Y-83023152D02*
X112428685Y-83070771D01*
X112428685Y-83070771D02*
X112476304Y-83166009D01*
X112476304Y-83166009D02*
X112476304Y-83261247D01*
X112476304Y-83261247D02*
X112000114Y-83356485D01*
X113285828Y-83642200D02*
X113190590Y-83689819D01*
X113190590Y-83689819D02*
X113000114Y-83689819D01*
X113000114Y-83689819D02*
X112904876Y-83642200D01*
X112904876Y-83642200D02*
X112857257Y-83546961D01*
X112857257Y-83546961D02*
X112857257Y-83166009D01*
X112857257Y-83166009D02*
X112904876Y-83070771D01*
X112904876Y-83070771D02*
X113000114Y-83023152D01*
X113000114Y-83023152D02*
X113190590Y-83023152D01*
X113190590Y-83023152D02*
X113285828Y-83070771D01*
X113285828Y-83070771D02*
X113333447Y-83166009D01*
X113333447Y-83166009D02*
X113333447Y-83261247D01*
X113333447Y-83261247D02*
X112857257Y-83356485D01*
X114476305Y-83642200D02*
X114619162Y-83689819D01*
X114619162Y-83689819D02*
X114857257Y-83689819D01*
X114857257Y-83689819D02*
X114952495Y-83642200D01*
X114952495Y-83642200D02*
X115000114Y-83594580D01*
X115000114Y-83594580D02*
X115047733Y-83499342D01*
X115047733Y-83499342D02*
X115047733Y-83404104D01*
X115047733Y-83404104D02*
X115000114Y-83308866D01*
X115000114Y-83308866D02*
X114952495Y-83261247D01*
X114952495Y-83261247D02*
X114857257Y-83213628D01*
X114857257Y-83213628D02*
X114666781Y-83166009D01*
X114666781Y-83166009D02*
X114571543Y-83118390D01*
X114571543Y-83118390D02*
X114523924Y-83070771D01*
X114523924Y-83070771D02*
X114476305Y-82975533D01*
X114476305Y-82975533D02*
X114476305Y-82880295D01*
X114476305Y-82880295D02*
X114523924Y-82785057D01*
X114523924Y-82785057D02*
X114571543Y-82737438D01*
X114571543Y-82737438D02*
X114666781Y-82689819D01*
X114666781Y-82689819D02*
X114904876Y-82689819D01*
X114904876Y-82689819D02*
X115047733Y-82737438D01*
X115619162Y-83689819D02*
X115523924Y-83642200D01*
X115523924Y-83642200D02*
X115476305Y-83594580D01*
X115476305Y-83594580D02*
X115428686Y-83499342D01*
X115428686Y-83499342D02*
X115428686Y-83213628D01*
X115428686Y-83213628D02*
X115476305Y-83118390D01*
X115476305Y-83118390D02*
X115523924Y-83070771D01*
X115523924Y-83070771D02*
X115619162Y-83023152D01*
X115619162Y-83023152D02*
X115762019Y-83023152D01*
X115762019Y-83023152D02*
X115857257Y-83070771D01*
X115857257Y-83070771D02*
X115904876Y-83118390D01*
X115904876Y-83118390D02*
X115952495Y-83213628D01*
X115952495Y-83213628D02*
X115952495Y-83499342D01*
X115952495Y-83499342D02*
X115904876Y-83594580D01*
X115904876Y-83594580D02*
X115857257Y-83642200D01*
X115857257Y-83642200D02*
X115762019Y-83689819D01*
X115762019Y-83689819D02*
X115619162Y-83689819D01*
X116381067Y-83023152D02*
X116381067Y-83689819D01*
X116381067Y-83118390D02*
X116428686Y-83070771D01*
X116428686Y-83070771D02*
X116523924Y-83023152D01*
X116523924Y-83023152D02*
X116666781Y-83023152D01*
X116666781Y-83023152D02*
X116762019Y-83070771D01*
X116762019Y-83070771D02*
X116809638Y-83166009D01*
X116809638Y-83166009D02*
X116809638Y-83689819D01*
X178089160Y-98644104D02*
X178565350Y-98644104D01*
X177993922Y-98929819D02*
X178327255Y-97929819D01*
X178327255Y-97929819D02*
X178660588Y-98929819D01*
X178470112Y-102216009D02*
X178612969Y-102263628D01*
X178612969Y-102263628D02*
X178660588Y-102311247D01*
X178660588Y-102311247D02*
X178708207Y-102406485D01*
X178708207Y-102406485D02*
X178708207Y-102549342D01*
X178708207Y-102549342D02*
X178660588Y-102644580D01*
X178660588Y-102644580D02*
X178612969Y-102692200D01*
X178612969Y-102692200D02*
X178517731Y-102739819D01*
X178517731Y-102739819D02*
X178136779Y-102739819D01*
X178136779Y-102739819D02*
X178136779Y-101739819D01*
X178136779Y-101739819D02*
X178470112Y-101739819D01*
X178470112Y-101739819D02*
X178565350Y-101787438D01*
X178565350Y-101787438D02*
X178612969Y-101835057D01*
X178612969Y-101835057D02*
X178660588Y-101930295D01*
X178660588Y-101930295D02*
X178660588Y-102025533D01*
X178660588Y-102025533D02*
X178612969Y-102120771D01*
X178612969Y-102120771D02*
X178565350Y-102168390D01*
X178565350Y-102168390D02*
X178470112Y-102216009D01*
X178470112Y-102216009D02*
X178136779Y-102216009D01*
X177390588Y-94167438D02*
X177295350Y-94119819D01*
X177295350Y-94119819D02*
X177152493Y-94119819D01*
X177152493Y-94119819D02*
X177009636Y-94167438D01*
X177009636Y-94167438D02*
X176914398Y-94262676D01*
X176914398Y-94262676D02*
X176866779Y-94357914D01*
X176866779Y-94357914D02*
X176819160Y-94548390D01*
X176819160Y-94548390D02*
X176819160Y-94691247D01*
X176819160Y-94691247D02*
X176866779Y-94881723D01*
X176866779Y-94881723D02*
X176914398Y-94976961D01*
X176914398Y-94976961D02*
X177009636Y-95072200D01*
X177009636Y-95072200D02*
X177152493Y-95119819D01*
X177152493Y-95119819D02*
X177247731Y-95119819D01*
X177247731Y-95119819D02*
X177390588Y-95072200D01*
X177390588Y-95072200D02*
X177438207Y-95024580D01*
X177438207Y-95024580D02*
X177438207Y-94691247D01*
X177438207Y-94691247D02*
X177247731Y-94691247D01*
X177866779Y-95119819D02*
X177866779Y-94119819D01*
X177866779Y-94119819D02*
X178438207Y-95119819D01*
X178438207Y-95119819D02*
X178438207Y-94119819D01*
X178914398Y-95119819D02*
X178914398Y-94119819D01*
X178914398Y-94119819D02*
X179152493Y-94119819D01*
X179152493Y-94119819D02*
X179295350Y-94167438D01*
X179295350Y-94167438D02*
X179390588Y-94262676D01*
X179390588Y-94262676D02*
X179438207Y-94357914D01*
X179438207Y-94357914D02*
X179485826Y-94548390D01*
X179485826Y-94548390D02*
X179485826Y-94691247D01*
X179485826Y-94691247D02*
X179438207Y-94881723D01*
X179438207Y-94881723D02*
X179390588Y-94976961D01*
X179390588Y-94976961D02*
X179295350Y-95072200D01*
X179295350Y-95072200D02*
X179152493Y-95119819D01*
X179152493Y-95119819D02*
X178914398Y-95119819D01*
X167924819Y-87796666D02*
X167448628Y-88129999D01*
X167924819Y-88368094D02*
X166924819Y-88368094D01*
X166924819Y-88368094D02*
X166924819Y-87987142D01*
X166924819Y-87987142D02*
X166972438Y-87891904D01*
X166972438Y-87891904D02*
X167020057Y-87844285D01*
X167020057Y-87844285D02*
X167115295Y-87796666D01*
X167115295Y-87796666D02*
X167258152Y-87796666D01*
X167258152Y-87796666D02*
X167353390Y-87844285D01*
X167353390Y-87844285D02*
X167401009Y-87891904D01*
X167401009Y-87891904D02*
X167448628Y-87987142D01*
X167448628Y-87987142D02*
X167448628Y-88368094D01*
X167924819Y-86844285D02*
X167924819Y-87415713D01*
X167924819Y-87129999D02*
X166924819Y-87129999D01*
X166924819Y-87129999D02*
X167067676Y-87225237D01*
X167067676Y-87225237D02*
X167162914Y-87320475D01*
X167162914Y-87320475D02*
X167210533Y-87415713D01*
X115889580Y-110656666D02*
X115937200Y-110704285D01*
X115937200Y-110704285D02*
X115984819Y-110847142D01*
X115984819Y-110847142D02*
X115984819Y-110942380D01*
X115984819Y-110942380D02*
X115937200Y-111085237D01*
X115937200Y-111085237D02*
X115841961Y-111180475D01*
X115841961Y-111180475D02*
X115746723Y-111228094D01*
X115746723Y-111228094D02*
X115556247Y-111275713D01*
X115556247Y-111275713D02*
X115413390Y-111275713D01*
X115413390Y-111275713D02*
X115222914Y-111228094D01*
X115222914Y-111228094D02*
X115127676Y-111180475D01*
X115127676Y-111180475D02*
X115032438Y-111085237D01*
X115032438Y-111085237D02*
X114984819Y-110942380D01*
X114984819Y-110942380D02*
X114984819Y-110847142D01*
X114984819Y-110847142D02*
X115032438Y-110704285D01*
X115032438Y-110704285D02*
X115080057Y-110656666D01*
X115984819Y-109704285D02*
X115984819Y-110275713D01*
X115984819Y-109989999D02*
X114984819Y-109989999D01*
X114984819Y-109989999D02*
X115127676Y-110085237D01*
X115127676Y-110085237D02*
X115222914Y-110180475D01*
X115222914Y-110180475D02*
X115270533Y-110275713D01*
X136421905Y-79044819D02*
X136421905Y-78044819D01*
X136421905Y-78044819D02*
X136660000Y-78044819D01*
X136660000Y-78044819D02*
X136802857Y-78092438D01*
X136802857Y-78092438D02*
X136898095Y-78187676D01*
X136898095Y-78187676D02*
X136945714Y-78282914D01*
X136945714Y-78282914D02*
X136993333Y-78473390D01*
X136993333Y-78473390D02*
X136993333Y-78616247D01*
X136993333Y-78616247D02*
X136945714Y-78806723D01*
X136945714Y-78806723D02*
X136898095Y-78901961D01*
X136898095Y-78901961D02*
X136802857Y-78997200D01*
X136802857Y-78997200D02*
X136660000Y-79044819D01*
X136660000Y-79044819D02*
X136421905Y-79044819D01*
X137945714Y-79044819D02*
X137374286Y-79044819D01*
X137660000Y-79044819D02*
X137660000Y-78044819D01*
X137660000Y-78044819D02*
X137564762Y-78187676D01*
X137564762Y-78187676D02*
X137469524Y-78282914D01*
X137469524Y-78282914D02*
X137374286Y-78330533D01*
X167473333Y-105694819D02*
X167140000Y-105218628D01*
X166901905Y-105694819D02*
X166901905Y-104694819D01*
X166901905Y-104694819D02*
X167282857Y-104694819D01*
X167282857Y-104694819D02*
X167378095Y-104742438D01*
X167378095Y-104742438D02*
X167425714Y-104790057D01*
X167425714Y-104790057D02*
X167473333Y-104885295D01*
X167473333Y-104885295D02*
X167473333Y-105028152D01*
X167473333Y-105028152D02*
X167425714Y-105123390D01*
X167425714Y-105123390D02*
X167378095Y-105171009D01*
X167378095Y-105171009D02*
X167282857Y-105218628D01*
X167282857Y-105218628D02*
X166901905Y-105218628D01*
X168044762Y-105123390D02*
X167949524Y-105075771D01*
X167949524Y-105075771D02*
X167901905Y-105028152D01*
X167901905Y-105028152D02*
X167854286Y-104932914D01*
X167854286Y-104932914D02*
X167854286Y-104885295D01*
X167854286Y-104885295D02*
X167901905Y-104790057D01*
X167901905Y-104790057D02*
X167949524Y-104742438D01*
X167949524Y-104742438D02*
X168044762Y-104694819D01*
X168044762Y-104694819D02*
X168235238Y-104694819D01*
X168235238Y-104694819D02*
X168330476Y-104742438D01*
X168330476Y-104742438D02*
X168378095Y-104790057D01*
X168378095Y-104790057D02*
X168425714Y-104885295D01*
X168425714Y-104885295D02*
X168425714Y-104932914D01*
X168425714Y-104932914D02*
X168378095Y-105028152D01*
X168378095Y-105028152D02*
X168330476Y-105075771D01*
X168330476Y-105075771D02*
X168235238Y-105123390D01*
X168235238Y-105123390D02*
X168044762Y-105123390D01*
X168044762Y-105123390D02*
X167949524Y-105171009D01*
X167949524Y-105171009D02*
X167901905Y-105218628D01*
X167901905Y-105218628D02*
X167854286Y-105313866D01*
X167854286Y-105313866D02*
X167854286Y-105504342D01*
X167854286Y-105504342D02*
X167901905Y-105599580D01*
X167901905Y-105599580D02*
X167949524Y-105647200D01*
X167949524Y-105647200D02*
X168044762Y-105694819D01*
X168044762Y-105694819D02*
X168235238Y-105694819D01*
X168235238Y-105694819D02*
X168330476Y-105647200D01*
X168330476Y-105647200D02*
X168378095Y-105599580D01*
X168378095Y-105599580D02*
X168425714Y-105504342D01*
X168425714Y-105504342D02*
X168425714Y-105313866D01*
X168425714Y-105313866D02*
X168378095Y-105218628D01*
X168378095Y-105218628D02*
X168330476Y-105171009D01*
X168330476Y-105171009D02*
X168235238Y-105123390D01*
X149098095Y-92374819D02*
X149098095Y-93184342D01*
X149098095Y-93184342D02*
X149145714Y-93279580D01*
X149145714Y-93279580D02*
X149193333Y-93327200D01*
X149193333Y-93327200D02*
X149288571Y-93374819D01*
X149288571Y-93374819D02*
X149479047Y-93374819D01*
X149479047Y-93374819D02*
X149574285Y-93327200D01*
X149574285Y-93327200D02*
X149621904Y-93279580D01*
X149621904Y-93279580D02*
X149669523Y-93184342D01*
X149669523Y-93184342D02*
X149669523Y-92374819D01*
X150050476Y-92374819D02*
X150669523Y-92374819D01*
X150669523Y-92374819D02*
X150336190Y-92755771D01*
X150336190Y-92755771D02*
X150479047Y-92755771D01*
X150479047Y-92755771D02*
X150574285Y-92803390D01*
X150574285Y-92803390D02*
X150621904Y-92851009D01*
X150621904Y-92851009D02*
X150669523Y-92946247D01*
X150669523Y-92946247D02*
X150669523Y-93184342D01*
X150669523Y-93184342D02*
X150621904Y-93279580D01*
X150621904Y-93279580D02*
X150574285Y-93327200D01*
X150574285Y-93327200D02*
X150479047Y-93374819D01*
X150479047Y-93374819D02*
X150193333Y-93374819D01*
X150193333Y-93374819D02*
X150098095Y-93327200D01*
X150098095Y-93327200D02*
X150050476Y-93279580D01*
X98014166Y-106144819D02*
X98014166Y-106859104D01*
X98014166Y-106859104D02*
X97966547Y-107001961D01*
X97966547Y-107001961D02*
X97871309Y-107097200D01*
X97871309Y-107097200D02*
X97728452Y-107144819D01*
X97728452Y-107144819D02*
X97633214Y-107144819D01*
X99014166Y-107144819D02*
X98442738Y-107144819D01*
X98728452Y-107144819D02*
X98728452Y-106144819D01*
X98728452Y-106144819D02*
X98633214Y-106287676D01*
X98633214Y-106287676D02*
X98537976Y-106382914D01*
X98537976Y-106382914D02*
X98442738Y-106430533D01*
X179744819Y-99083333D02*
X180459104Y-99083333D01*
X180459104Y-99083333D02*
X180601961Y-99130952D01*
X180601961Y-99130952D02*
X180697200Y-99226190D01*
X180697200Y-99226190D02*
X180744819Y-99369047D01*
X180744819Y-99369047D02*
X180744819Y-99464285D01*
X180078152Y-98178571D02*
X180744819Y-98178571D01*
X179697200Y-98416666D02*
X180411485Y-98654761D01*
X180411485Y-98654761D02*
X180411485Y-98035714D01*
X115443333Y-86759580D02*
X115395714Y-86807200D01*
X115395714Y-86807200D02*
X115252857Y-86854819D01*
X115252857Y-86854819D02*
X115157619Y-86854819D01*
X115157619Y-86854819D02*
X115014762Y-86807200D01*
X115014762Y-86807200D02*
X114919524Y-86711961D01*
X114919524Y-86711961D02*
X114871905Y-86616723D01*
X114871905Y-86616723D02*
X114824286Y-86426247D01*
X114824286Y-86426247D02*
X114824286Y-86283390D01*
X114824286Y-86283390D02*
X114871905Y-86092914D01*
X114871905Y-86092914D02*
X114919524Y-85997676D01*
X114919524Y-85997676D02*
X115014762Y-85902438D01*
X115014762Y-85902438D02*
X115157619Y-85854819D01*
X115157619Y-85854819D02*
X115252857Y-85854819D01*
X115252857Y-85854819D02*
X115395714Y-85902438D01*
X115395714Y-85902438D02*
X115443333Y-85950057D01*
X115776667Y-85854819D02*
X116395714Y-85854819D01*
X116395714Y-85854819D02*
X116062381Y-86235771D01*
X116062381Y-86235771D02*
X116205238Y-86235771D01*
X116205238Y-86235771D02*
X116300476Y-86283390D01*
X116300476Y-86283390D02*
X116348095Y-86331009D01*
X116348095Y-86331009D02*
X116395714Y-86426247D01*
X116395714Y-86426247D02*
X116395714Y-86664342D01*
X116395714Y-86664342D02*
X116348095Y-86759580D01*
X116348095Y-86759580D02*
X116300476Y-86807200D01*
X116300476Y-86807200D02*
X116205238Y-86854819D01*
X116205238Y-86854819D02*
X115919524Y-86854819D01*
X115919524Y-86854819D02*
X115824286Y-86807200D01*
X115824286Y-86807200D02*
X115776667Y-86759580D01*
X136421905Y-86664819D02*
X136421905Y-85664819D01*
X136421905Y-85664819D02*
X136660000Y-85664819D01*
X136660000Y-85664819D02*
X136802857Y-85712438D01*
X136802857Y-85712438D02*
X136898095Y-85807676D01*
X136898095Y-85807676D02*
X136945714Y-85902914D01*
X136945714Y-85902914D02*
X136993333Y-86093390D01*
X136993333Y-86093390D02*
X136993333Y-86236247D01*
X136993333Y-86236247D02*
X136945714Y-86426723D01*
X136945714Y-86426723D02*
X136898095Y-86521961D01*
X136898095Y-86521961D02*
X136802857Y-86617200D01*
X136802857Y-86617200D02*
X136660000Y-86664819D01*
X136660000Y-86664819D02*
X136421905Y-86664819D01*
X137374286Y-85760057D02*
X137421905Y-85712438D01*
X137421905Y-85712438D02*
X137517143Y-85664819D01*
X137517143Y-85664819D02*
X137755238Y-85664819D01*
X137755238Y-85664819D02*
X137850476Y-85712438D01*
X137850476Y-85712438D02*
X137898095Y-85760057D01*
X137898095Y-85760057D02*
X137945714Y-85855295D01*
X137945714Y-85855295D02*
X137945714Y-85950533D01*
X137945714Y-85950533D02*
X137898095Y-86093390D01*
X137898095Y-86093390D02*
X137326667Y-86664819D01*
X137326667Y-86664819D02*
X137945714Y-86664819D01*
X172386666Y-111004819D02*
X172386666Y-111719104D01*
X172386666Y-111719104D02*
X172339047Y-111861961D01*
X172339047Y-111861961D02*
X172243809Y-111957200D01*
X172243809Y-111957200D02*
X172100952Y-112004819D01*
X172100952Y-112004819D02*
X172005714Y-112004819D01*
X172767619Y-111004819D02*
X173386666Y-111004819D01*
X173386666Y-111004819D02*
X173053333Y-111385771D01*
X173053333Y-111385771D02*
X173196190Y-111385771D01*
X173196190Y-111385771D02*
X173291428Y-111433390D01*
X173291428Y-111433390D02*
X173339047Y-111481009D01*
X173339047Y-111481009D02*
X173386666Y-111576247D01*
X173386666Y-111576247D02*
X173386666Y-111814342D01*
X173386666Y-111814342D02*
X173339047Y-111909580D01*
X173339047Y-111909580D02*
X173291428Y-111957200D01*
X173291428Y-111957200D02*
X173196190Y-112004819D01*
X173196190Y-112004819D02*
X172910476Y-112004819D01*
X172910476Y-112004819D02*
X172815238Y-111957200D01*
X172815238Y-111957200D02*
X172767619Y-111909580D01*
X148423333Y-85374819D02*
X148090000Y-84898628D01*
X147851905Y-85374819D02*
X147851905Y-84374819D01*
X147851905Y-84374819D02*
X148232857Y-84374819D01*
X148232857Y-84374819D02*
X148328095Y-84422438D01*
X148328095Y-84422438D02*
X148375714Y-84470057D01*
X148375714Y-84470057D02*
X148423333Y-84565295D01*
X148423333Y-84565295D02*
X148423333Y-84708152D01*
X148423333Y-84708152D02*
X148375714Y-84803390D01*
X148375714Y-84803390D02*
X148328095Y-84851009D01*
X148328095Y-84851009D02*
X148232857Y-84898628D01*
X148232857Y-84898628D02*
X147851905Y-84898628D01*
X149280476Y-84374819D02*
X149090000Y-84374819D01*
X149090000Y-84374819D02*
X148994762Y-84422438D01*
X148994762Y-84422438D02*
X148947143Y-84470057D01*
X148947143Y-84470057D02*
X148851905Y-84612914D01*
X148851905Y-84612914D02*
X148804286Y-84803390D01*
X148804286Y-84803390D02*
X148804286Y-85184342D01*
X148804286Y-85184342D02*
X148851905Y-85279580D01*
X148851905Y-85279580D02*
X148899524Y-85327200D01*
X148899524Y-85327200D02*
X148994762Y-85374819D01*
X148994762Y-85374819D02*
X149185238Y-85374819D01*
X149185238Y-85374819D02*
X149280476Y-85327200D01*
X149280476Y-85327200D02*
X149328095Y-85279580D01*
X149328095Y-85279580D02*
X149375714Y-85184342D01*
X149375714Y-85184342D02*
X149375714Y-84946247D01*
X149375714Y-84946247D02*
X149328095Y-84851009D01*
X149328095Y-84851009D02*
X149280476Y-84803390D01*
X149280476Y-84803390D02*
X149185238Y-84755771D01*
X149185238Y-84755771D02*
X148994762Y-84755771D01*
X148994762Y-84755771D02*
X148899524Y-84803390D01*
X148899524Y-84803390D02*
X148851905Y-84851009D01*
X148851905Y-84851009D02*
X148804286Y-84946247D01*
X122279580Y-110656666D02*
X122327200Y-110704285D01*
X122327200Y-110704285D02*
X122374819Y-110847142D01*
X122374819Y-110847142D02*
X122374819Y-110942380D01*
X122374819Y-110942380D02*
X122327200Y-111085237D01*
X122327200Y-111085237D02*
X122231961Y-111180475D01*
X122231961Y-111180475D02*
X122136723Y-111228094D01*
X122136723Y-111228094D02*
X121946247Y-111275713D01*
X121946247Y-111275713D02*
X121803390Y-111275713D01*
X121803390Y-111275713D02*
X121612914Y-111228094D01*
X121612914Y-111228094D02*
X121517676Y-111180475D01*
X121517676Y-111180475D02*
X121422438Y-111085237D01*
X121422438Y-111085237D02*
X121374819Y-110942380D01*
X121374819Y-110942380D02*
X121374819Y-110847142D01*
X121374819Y-110847142D02*
X121422438Y-110704285D01*
X121422438Y-110704285D02*
X121470057Y-110656666D01*
X121470057Y-110275713D02*
X121422438Y-110228094D01*
X121422438Y-110228094D02*
X121374819Y-110132856D01*
X121374819Y-110132856D02*
X121374819Y-109894761D01*
X121374819Y-109894761D02*
X121422438Y-109799523D01*
X121422438Y-109799523D02*
X121470057Y-109751904D01*
X121470057Y-109751904D02*
X121565295Y-109704285D01*
X121565295Y-109704285D02*
X121660533Y-109704285D01*
X121660533Y-109704285D02*
X121803390Y-109751904D01*
X121803390Y-109751904D02*
X122374819Y-110323332D01*
X122374819Y-110323332D02*
X122374819Y-109704285D01*
X178084819Y-87796666D02*
X177608628Y-88129999D01*
X178084819Y-88368094D02*
X177084819Y-88368094D01*
X177084819Y-88368094D02*
X177084819Y-87987142D01*
X177084819Y-87987142D02*
X177132438Y-87891904D01*
X177132438Y-87891904D02*
X177180057Y-87844285D01*
X177180057Y-87844285D02*
X177275295Y-87796666D01*
X177275295Y-87796666D02*
X177418152Y-87796666D01*
X177418152Y-87796666D02*
X177513390Y-87844285D01*
X177513390Y-87844285D02*
X177561009Y-87891904D01*
X177561009Y-87891904D02*
X177608628Y-87987142D01*
X177608628Y-87987142D02*
X177608628Y-88368094D01*
X177418152Y-86939523D02*
X178084819Y-86939523D01*
X177037200Y-87177618D02*
X177751485Y-87415713D01*
X177751485Y-87415713D02*
X177751485Y-86796666D01*
X148423333Y-88084819D02*
X148090000Y-87608628D01*
X147851905Y-88084819D02*
X147851905Y-87084819D01*
X147851905Y-87084819D02*
X148232857Y-87084819D01*
X148232857Y-87084819D02*
X148328095Y-87132438D01*
X148328095Y-87132438D02*
X148375714Y-87180057D01*
X148375714Y-87180057D02*
X148423333Y-87275295D01*
X148423333Y-87275295D02*
X148423333Y-87418152D01*
X148423333Y-87418152D02*
X148375714Y-87513390D01*
X148375714Y-87513390D02*
X148328095Y-87561009D01*
X148328095Y-87561009D02*
X148232857Y-87608628D01*
X148232857Y-87608628D02*
X147851905Y-87608628D01*
X148756667Y-87084819D02*
X149423333Y-87084819D01*
X149423333Y-87084819D02*
X148994762Y-88084819D01*
X173004819Y-87796666D02*
X172528628Y-88129999D01*
X173004819Y-88368094D02*
X172004819Y-88368094D01*
X172004819Y-88368094D02*
X172004819Y-87987142D01*
X172004819Y-87987142D02*
X172052438Y-87891904D01*
X172052438Y-87891904D02*
X172100057Y-87844285D01*
X172100057Y-87844285D02*
X172195295Y-87796666D01*
X172195295Y-87796666D02*
X172338152Y-87796666D01*
X172338152Y-87796666D02*
X172433390Y-87844285D01*
X172433390Y-87844285D02*
X172481009Y-87891904D01*
X172481009Y-87891904D02*
X172528628Y-87987142D01*
X172528628Y-87987142D02*
X172528628Y-88368094D01*
X172100057Y-87415713D02*
X172052438Y-87368094D01*
X172052438Y-87368094D02*
X172004819Y-87272856D01*
X172004819Y-87272856D02*
X172004819Y-87034761D01*
X172004819Y-87034761D02*
X172052438Y-86939523D01*
X172052438Y-86939523D02*
X172100057Y-86891904D01*
X172100057Y-86891904D02*
X172195295Y-86844285D01*
X172195295Y-86844285D02*
X172290533Y-86844285D01*
X172290533Y-86844285D02*
X172433390Y-86891904D01*
X172433390Y-86891904D02*
X173004819Y-87463332D01*
X173004819Y-87463332D02*
X173004819Y-86844285D01*
X124399819Y-99611904D02*
X125209342Y-99611904D01*
X125209342Y-99611904D02*
X125304580Y-99564285D01*
X125304580Y-99564285D02*
X125352200Y-99516666D01*
X125352200Y-99516666D02*
X125399819Y-99421428D01*
X125399819Y-99421428D02*
X125399819Y-99230952D01*
X125399819Y-99230952D02*
X125352200Y-99135714D01*
X125352200Y-99135714D02*
X125304580Y-99088095D01*
X125304580Y-99088095D02*
X125209342Y-99040476D01*
X125209342Y-99040476D02*
X124399819Y-99040476D01*
X124495057Y-98611904D02*
X124447438Y-98564285D01*
X124447438Y-98564285D02*
X124399819Y-98469047D01*
X124399819Y-98469047D02*
X124399819Y-98230952D01*
X124399819Y-98230952D02*
X124447438Y-98135714D01*
X124447438Y-98135714D02*
X124495057Y-98088095D01*
X124495057Y-98088095D02*
X124590295Y-98040476D01*
X124590295Y-98040476D02*
X124685533Y-98040476D01*
X124685533Y-98040476D02*
X124828390Y-98088095D01*
X124828390Y-98088095D02*
X125399819Y-98659523D01*
X125399819Y-98659523D02*
X125399819Y-98040476D01*
X158583333Y-114584819D02*
X158250000Y-114108628D01*
X158011905Y-114584819D02*
X158011905Y-113584819D01*
X158011905Y-113584819D02*
X158392857Y-113584819D01*
X158392857Y-113584819D02*
X158488095Y-113632438D01*
X158488095Y-113632438D02*
X158535714Y-113680057D01*
X158535714Y-113680057D02*
X158583333Y-113775295D01*
X158583333Y-113775295D02*
X158583333Y-113918152D01*
X158583333Y-113918152D02*
X158535714Y-114013390D01*
X158535714Y-114013390D02*
X158488095Y-114061009D01*
X158488095Y-114061009D02*
X158392857Y-114108628D01*
X158392857Y-114108628D02*
X158011905Y-114108628D01*
X159488095Y-113584819D02*
X159011905Y-113584819D01*
X159011905Y-113584819D02*
X158964286Y-114061009D01*
X158964286Y-114061009D02*
X159011905Y-114013390D01*
X159011905Y-114013390D02*
X159107143Y-113965771D01*
X159107143Y-113965771D02*
X159345238Y-113965771D01*
X159345238Y-113965771D02*
X159440476Y-114013390D01*
X159440476Y-114013390D02*
X159488095Y-114061009D01*
X159488095Y-114061009D02*
X159535714Y-114156247D01*
X159535714Y-114156247D02*
X159535714Y-114394342D01*
X159535714Y-114394342D02*
X159488095Y-114489580D01*
X159488095Y-114489580D02*
X159440476Y-114537200D01*
X159440476Y-114537200D02*
X159345238Y-114584819D01*
X159345238Y-114584819D02*
X159107143Y-114584819D01*
X159107143Y-114584819D02*
X159011905Y-114537200D01*
X159011905Y-114537200D02*
X158964286Y-114489580D01*
X162844819Y-87796666D02*
X162368628Y-88129999D01*
X162844819Y-88368094D02*
X161844819Y-88368094D01*
X161844819Y-88368094D02*
X161844819Y-87987142D01*
X161844819Y-87987142D02*
X161892438Y-87891904D01*
X161892438Y-87891904D02*
X161940057Y-87844285D01*
X161940057Y-87844285D02*
X162035295Y-87796666D01*
X162035295Y-87796666D02*
X162178152Y-87796666D01*
X162178152Y-87796666D02*
X162273390Y-87844285D01*
X162273390Y-87844285D02*
X162321009Y-87891904D01*
X162321009Y-87891904D02*
X162368628Y-87987142D01*
X162368628Y-87987142D02*
X162368628Y-88368094D01*
X161844819Y-87463332D02*
X161844819Y-86844285D01*
X161844819Y-86844285D02*
X162225771Y-87177618D01*
X162225771Y-87177618D02*
X162225771Y-87034761D01*
X162225771Y-87034761D02*
X162273390Y-86939523D01*
X162273390Y-86939523D02*
X162321009Y-86891904D01*
X162321009Y-86891904D02*
X162416247Y-86844285D01*
X162416247Y-86844285D02*
X162654342Y-86844285D01*
X162654342Y-86844285D02*
X162749580Y-86891904D01*
X162749580Y-86891904D02*
X162797200Y-86939523D01*
X162797200Y-86939523D02*
X162844819Y-87034761D01*
X162844819Y-87034761D02*
X162844819Y-87320475D01*
X162844819Y-87320475D02*
X162797200Y-87415713D01*
X162797200Y-87415713D02*
X162749580Y-87463332D01*
D11*
%TO.C,R1*%
X165100000Y-83590000D02*
X165100000Y-84360000D01*
X166470000Y-84360000D02*
X163730000Y-84360000D01*
X163730000Y-84360000D02*
X163730000Y-90900000D01*
X166470000Y-90900000D02*
X166470000Y-84360000D01*
X163730000Y-90900000D02*
X166470000Y-90900000D01*
X165100000Y-91670000D02*
X165100000Y-90900000D01*
%TO.C,C1*%
X114400000Y-107870000D02*
X114085000Y-107870000D01*
X114400000Y-107870000D02*
X114400000Y-113110000D01*
X111975000Y-107870000D02*
X111660000Y-107870000D01*
X111660000Y-107870000D02*
X111660000Y-113110000D01*
X114400000Y-113110000D02*
X114085000Y-113110000D01*
X111975000Y-113110000D02*
X111660000Y-113110000D01*
%TO.C,D1*%
X134600000Y-81005000D02*
X134600000Y-84095000D01*
X140149999Y-82550462D02*
G75*
G03*
X134600001Y-81005170I-2989999J462D01*
G01*
X134600000Y-84094830D02*
G75*
G03*
X140150000Y-82549538I2560000J1544830D01*
G01*
X139660000Y-82550000D02*
G75*
G03*
X134660000Y-82550000I-2500000J0D01*
G01*
X134660000Y-82550000D02*
G75*
G03*
X139660000Y-82550000I2500000J0D01*
G01*
%TO.C,R8*%
X171680000Y-102870000D02*
X170910000Y-102870000D01*
X170910000Y-104240000D02*
X170910000Y-101500000D01*
X170910000Y-101500000D02*
X164370000Y-101500000D01*
X164370000Y-104240000D02*
X170910000Y-104240000D01*
X164370000Y-101500000D02*
X164370000Y-104240000D01*
X163600000Y-102870000D02*
X164370000Y-102870000D01*
%TO.C,U3*%
X144720000Y-93860000D02*
X144720000Y-104260000D01*
X144720000Y-104260000D02*
X155000000Y-104260000D01*
X147210000Y-93920000D02*
X147210000Y-104200000D01*
X147210000Y-104200000D02*
X152510000Y-104200000D01*
X148860000Y-93920000D02*
X147210000Y-93920000D01*
X152510000Y-93920000D02*
X150860000Y-93920000D01*
X152510000Y-104200000D02*
X152510000Y-93920000D01*
X155000000Y-93860000D02*
X144720000Y-93860000D01*
X155000000Y-104260000D02*
X155000000Y-93860000D01*
X148860000Y-93920000D02*
G75*
G03*
X150860000Y-93920000I1000000J0D01*
G01*
%TO.C,J1*%
X107897500Y-99540000D02*
X107897500Y-98540000D01*
X107897500Y-98540000D02*
X107397500Y-99040000D01*
X107397500Y-99040000D02*
X107897500Y-99540000D01*
X107197500Y-103900000D02*
X103447500Y-103900000D01*
X107197500Y-91680000D02*
X107197500Y-103900000D01*
X107197500Y-91680000D02*
X103447500Y-91680000D01*
X90577500Y-103900000D02*
X98547500Y-103900000D01*
X90577500Y-91680000D02*
X98547500Y-91680000D01*
X90577500Y-91680000D02*
X90577500Y-103900000D01*
%TO.C,J4*%
X186410000Y-104300000D02*
X188150000Y-104300000D01*
X188150000Y-104300000D02*
X188150000Y-102800000D01*
X181290000Y-104060000D02*
X187910000Y-104060000D01*
X181290000Y-104060000D02*
X181290000Y-93440000D01*
X186350000Y-104060000D02*
X186350000Y-93440000D01*
X187910000Y-104060000D02*
X187910000Y-93440000D01*
X185064000Y-99853000D02*
X185140000Y-99929000D01*
X185275000Y-99685000D02*
X185330000Y-99739000D01*
X182970000Y-97760000D02*
X183024000Y-97814000D01*
X183160000Y-97570000D02*
X183236000Y-97646000D01*
X185064000Y-96353000D02*
X185140000Y-96429000D01*
X185275000Y-96185000D02*
X185330000Y-96239000D01*
X182970000Y-94260000D02*
X183024000Y-94314000D01*
X183160000Y-94070000D02*
X183236000Y-94146000D01*
X181290000Y-93440000D02*
X187910000Y-93440000D01*
X183443001Y-103635999D02*
G75*
G03*
X184855733Y-103636644I706999J1385999D01*
G01*
X182764001Y-101543001D02*
G75*
G03*
X182763356Y-102955733I1385999J-706999D01*
G01*
X185535999Y-102957000D02*
G75*
G03*
X185705681Y-102223556I-1385994J706999D01*
G01*
X185704999Y-102250000D02*
G75*
G03*
X185535514Y-101544045I-1555007J-2D01*
G01*
X184857000Y-100864000D02*
G75*
G03*
X183444267Y-100863355I-706999J-1386001D01*
G01*
X185705000Y-98750000D02*
G75*
G03*
X182595000Y-98750000I-1555000J0D01*
G01*
X182595000Y-98750000D02*
G75*
G03*
X185705000Y-98750000I1555000J0D01*
G01*
X185705000Y-95250000D02*
G75*
G03*
X182595000Y-95250000I-1555000J0D01*
G01*
X182595000Y-95250000D02*
G75*
G03*
X185705000Y-95250000I1555000J0D01*
G01*
%TO.C,C3*%
X112990000Y-87530000D02*
X112990000Y-87845000D01*
X112990000Y-87530000D02*
X118230000Y-87530000D01*
X112990000Y-89955000D02*
X112990000Y-90270000D01*
X112990000Y-90270000D02*
X118230000Y-90270000D01*
X118230000Y-87530000D02*
X118230000Y-87845000D01*
X118230000Y-89955000D02*
X118230000Y-90270000D01*
%TO.C,D2*%
X134600000Y-88625000D02*
X134600000Y-91715000D01*
X140149999Y-90170462D02*
G75*
G03*
X134600001Y-88625170I-2989999J462D01*
G01*
X134600000Y-91714830D02*
G75*
G03*
X140150000Y-90169538I2560000J1544830D01*
G01*
X139660000Y-90170000D02*
G75*
G03*
X134660000Y-90170000I-2500000J0D01*
G01*
X134660000Y-90170000D02*
G75*
G03*
X139660000Y-90170000I2500000J0D01*
G01*
%TO.C,J3*%
X174050000Y-110550000D02*
X172720000Y-110550000D01*
X174050000Y-109220000D02*
X174050000Y-110550000D01*
X174050000Y-107950000D02*
X174050000Y-105350000D01*
X174050000Y-107950000D02*
X171390000Y-107950000D01*
X174050000Y-105350000D02*
X171390000Y-105350000D01*
X171390000Y-107950000D02*
X171390000Y-105350000D01*
%TO.C,R6*%
X152630000Y-82550000D02*
X151860000Y-82550000D01*
X151860000Y-83920000D02*
X151860000Y-81180000D01*
X151860000Y-81180000D02*
X145320000Y-81180000D01*
X145320000Y-83920000D02*
X151860000Y-83920000D01*
X145320000Y-81180000D02*
X145320000Y-83920000D01*
X144550000Y-82550000D02*
X145320000Y-82550000D01*
%TO.C,C2*%
X120750000Y-107910000D02*
X120435000Y-107910000D01*
X120750000Y-107910000D02*
X120750000Y-113150000D01*
X118325000Y-107910000D02*
X118010000Y-107910000D01*
X118010000Y-107910000D02*
X118010000Y-113150000D01*
X120750000Y-113150000D02*
X120435000Y-113150000D01*
X118325000Y-113150000D02*
X118010000Y-113150000D01*
%TO.C,R4*%
X175260000Y-83590000D02*
X175260000Y-84360000D01*
X176630000Y-84360000D02*
X173890000Y-84360000D01*
X173890000Y-84360000D02*
X173890000Y-90900000D01*
X176630000Y-90900000D02*
X176630000Y-84360000D01*
X173890000Y-90900000D02*
X176630000Y-90900000D01*
X175260000Y-91670000D02*
X175260000Y-90900000D01*
%TO.C,R7*%
X152630000Y-90170000D02*
X151860000Y-90170000D01*
X151860000Y-91540000D02*
X151860000Y-88800000D01*
X151860000Y-88800000D02*
X145320000Y-88800000D01*
X145320000Y-91540000D02*
X151860000Y-91540000D01*
X145320000Y-88800000D02*
X145320000Y-91540000D01*
X144550000Y-90170000D02*
X145320000Y-90170000D01*
%TO.C,R2*%
X170180000Y-83590000D02*
X170180000Y-84360000D01*
X171550000Y-84360000D02*
X168810000Y-84360000D01*
X168810000Y-84360000D02*
X168810000Y-90900000D01*
X171550000Y-90900000D02*
X171550000Y-84360000D01*
X168810000Y-90900000D02*
X171550000Y-90900000D01*
X170180000Y-91670000D02*
X170180000Y-90900000D01*
D10*
%TO.C,U2*%
X125870000Y-101725000D02*
X126445000Y-101725000D01*
X125870000Y-101725000D02*
X125870000Y-95975000D01*
X126445000Y-101725000D02*
X126445000Y-103325000D01*
X136520000Y-101725000D02*
X135870000Y-101725000D01*
X136520000Y-101725000D02*
X136520000Y-95975000D01*
X125870000Y-95975000D02*
X126520000Y-95975000D01*
X136520000Y-95975000D02*
X135870000Y-95975000D01*
D11*
%TO.C,R5*%
X162790000Y-111760000D02*
X162020000Y-111760000D01*
X162020000Y-113130000D02*
X162020000Y-110390000D01*
X162020000Y-110390000D02*
X155480000Y-110390000D01*
X155480000Y-113130000D02*
X162020000Y-113130000D01*
X155480000Y-110390000D02*
X155480000Y-113130000D01*
X154710000Y-111760000D02*
X155480000Y-111760000D01*
%TO.C,R3*%
X160020000Y-83590000D02*
X160020000Y-84360000D01*
X161390000Y-84360000D02*
X158650000Y-84360000D01*
X158650000Y-84360000D02*
X158650000Y-90900000D01*
X161390000Y-90900000D02*
X161390000Y-84360000D01*
X158650000Y-90900000D02*
X161390000Y-90900000D01*
X160020000Y-91670000D02*
X160020000Y-90900000D01*
%TD*%
M02*
